<svg width="207" height="26" viewBox="0 0 207 26" fill="none" xmlns="http://www.w3.org/2000/svg">
<path d="M16.095 25L15.2343 25.5092L15.5247 26H16.095V25ZM9.2 13.345L8.69109 12.4842L7.83002 12.9932L8.33933 13.8542L9.2 13.345ZM14.765 10.055L15.6182 9.53347L15.1043 8.69271L14.2561 9.19418L14.765 10.055ZM23.9 25V26H25.6833L24.7532 24.4785L23.9 25ZM0.485 25H-0.515V26H0.485V25ZM0.485 0.499998V-0.500002H-0.515V0.499998H0.485ZM7.38 0.499998H8.38V-0.500002H7.38V0.499998ZM7.38 25V26H8.38V25H7.38ZM5.385 15.62H4.385V16.62H5.385V15.62ZM5.385 10.02V9.02H4.385V10.02H5.385ZM14.275 10.02H15.275V9.02H14.275V10.02ZM14.275 15.62V16.62H15.275V15.62H14.275ZM15.43 13.485L15.3214 14.4791L15.9346 14.5461L16.2696 14.0282L15.43 13.485ZM9.025 12.785L8.17226 12.2627L7.34837 13.6077L8.91636 13.7791L9.025 12.785ZM16.55 0.499998V-0.500002H15.9898L15.6973 -0.022336L16.55 0.499998ZM23.83 0.499998L24.6696 1.04316L25.6679 -0.500002H23.83V0.499998ZM16.9557 24.4908L10.0607 12.8358L8.33933 13.8542L15.2343 25.5092L16.9557 24.4908ZM9.70891 14.2058L15.2739 10.9158L14.2561 9.19418L8.69109 12.4842L9.70891 14.2058ZM13.9118 10.5765L23.0468 25.5215L24.7532 24.4785L15.6182 9.53347L13.9118 10.5765ZM23.9 24H16.095V26H23.9V24ZM1.485 25V0.499998H-0.515V25H1.485ZM0.485 1.5H7.38V-0.500002H0.485V1.5ZM6.38 0.499998V25H8.38V0.499998H6.38ZM7.38 24H0.485V26H7.38V24ZM6.385 15.62V10.02H4.385V15.62H6.385ZM5.385 11.02H14.275V9.02H5.385V11.02ZM13.275 10.02V15.62H15.275V10.02H13.275ZM14.275 14.62H5.385V16.62H14.275V14.62ZM15.5386 12.4909L9.13364 11.7909L8.91636 13.7791L15.3214 14.4791L15.5386 12.4909ZM9.87774 13.3073L17.4027 1.02233L15.6973 -0.022336L8.17226 12.2627L9.87774 13.3073ZM16.55 1.5H23.83V-0.500002H16.55V1.5ZM22.9904 -0.0431595L14.5904 12.9418L16.2696 14.0282L24.6696 1.04316L22.9904 -0.0431595ZM32.6013 24.545L32.2459 25.4797L32.6013 24.545ZM28.2613 21.885L27.5682 22.6058L27.5753 22.6126L27.5825 22.6193L28.2613 21.885ZM25.4263 17.825L24.5108 18.2273L25.4263 17.825ZM25.4263 7.675L24.5108 7.27273L25.4263 7.675ZM28.2613 3.65L28.9471 4.37779L28.9475 4.37739L28.2613 3.65ZM32.6013 0.954999L32.2459 0.0203028L32.6013 0.954999ZM43.4513 0.954999L43.0915 1.88801L43.0959 1.8897L43.4513 0.954999ZM47.7563 3.65L47.0632 4.37087L47.0705 4.37779L47.7563 3.65ZM50.5913 7.675L49.6757 8.0773L49.681 8.0888L50.5913 7.675ZM50.5913 17.86L49.6786 17.4513L49.6758 17.4577L50.5913 17.86ZM47.7563 21.885L48.4421 22.6128L47.7563 21.885ZM43.4513 24.545L43.0959 23.6103L43.0915 23.612L43.4513 24.545ZM40.6163 19.26L40.2449 18.3315L40.2356 18.3353L40.6163 19.26ZM42.7163 17.86L41.996 17.1664L41.9955 17.1669L42.7163 17.86ZM44.1163 15.62L43.1896 15.2443L43.1852 15.2552L43.181 15.2661L44.1163 15.62ZM44.1163 9.88L43.181 10.2339L43.1869 10.2494L43.1933 10.2646L44.1163 9.88ZM42.7163 7.675L41.9826 8.35441L41.9956 8.36851L42.0092 8.3821L42.7163 7.675ZM40.6163 6.24L40.2356 7.16472L40.2449 7.16848L40.6163 6.24ZM35.4013 6.24L35.0299 5.31148L35.0206 5.31532L35.4013 6.24ZM33.3013 7.675L32.581 6.98136L32.5805 6.98189L33.3013 7.675ZM31.9013 9.88L30.9746 9.5043L30.9719 9.5109L30.9693 9.51755L31.9013 9.88ZM31.9013 15.62L30.966 15.9739L30.9702 15.9848L30.9746 15.9957L31.9013 15.62ZM33.3013 17.86L32.5676 18.5394L32.5806 18.5535L32.5942 18.5671L33.3013 17.86ZM35.4013 19.26L35.0206 20.1847L35.0299 20.1885L35.4013 19.26ZM38.0263 24.49C36.175 24.49 34.4885 24.1928 32.9568 23.6103L32.2459 25.4797C34.0275 26.1572 35.9577 26.49 38.0263 26.49V24.49ZM32.9568 23.6103C31.4134 23.0234 30.078 22.2027 28.9402 21.1507L27.5825 22.6193C28.918 23.854 30.4759 24.8066 32.2459 25.4797L32.9568 23.6103ZM28.9544 21.1642C27.8353 20.0881 26.9659 18.8429 26.3418 17.4227L24.5108 18.2273C25.2401 19.8871 26.2607 21.3486 27.5682 22.6058L28.9544 21.1642ZM26.3418 17.4227C25.726 16.0212 25.4113 14.4682 25.4113 12.75H23.4113C23.4113 14.7184 23.7733 16.5488 24.5108 18.2273L26.3418 17.4227ZM25.4113 12.75C25.4113 11.0318 25.726 9.47877 26.3418 8.07727L24.5108 7.27273C23.7733 8.95123 23.4113 10.7816 23.4113 12.75H25.4113ZM26.3418 8.07727C26.965 6.65895 27.8323 5.42828 28.9471 4.37779L27.5755 2.92221C26.2637 4.15839 25.2409 5.61104 24.5108 7.27273L26.3418 8.07727ZM28.9475 4.37739C30.0846 3.30471 31.4176 2.47502 32.9568 1.8897L32.2459 0.0203028C30.4717 0.694981 28.9114 1.66196 27.5751 2.92261L28.9475 4.37739ZM32.9568 1.8897C34.4885 1.30721 36.175 1.01 38.0263 1.01V-0.990002C35.9577 -0.990002 34.0275 -0.657209 32.2459 0.0203028L32.9568 1.8897ZM38.0263 1.01C39.9028 1.01 41.5872 1.30777 43.0915 1.888L43.8112 0.0219975C42.0488 -0.657774 40.1165 -0.990002 38.0263 -0.990002V1.01ZM43.0959 1.8897C44.6335 2.47443 45.952 3.30235 47.0632 4.37083L48.4494 2.92917C47.134 1.66432 45.5825 0.695563 43.8068 0.0203028L43.0959 1.8897ZM47.0705 4.37779C48.1853 5.42828 49.0526 6.65895 49.6758 8.07727L51.5069 7.27272C50.7767 5.61104 49.754 4.15839 48.4421 2.92221L47.0705 4.37779ZM49.681 8.0888C50.3168 9.48755 50.6413 11.0365 50.6413 12.75H52.6413C52.6413 10.7769 52.2659 8.94245 51.5017 7.2612L49.681 8.0888ZM50.6413 12.75C50.6413 14.4634 50.3168 16.0261 49.6786 17.4513L51.504 18.2687C52.2659 16.5672 52.6413 14.7233 52.6413 12.75H50.6413ZM49.6758 17.4577C49.0526 18.876 48.1853 20.1067 47.0705 21.1572L48.4421 22.6128C49.754 21.3766 50.7767 19.924 51.5069 18.2623L49.6758 17.4577ZM47.0705 21.1572C45.9586 22.205 44.6378 23.024 43.0959 23.6103L43.8068 25.4797C45.5782 24.806 47.1274 23.8517 48.4421 22.6128L47.0705 21.1572ZM43.0915 23.612C41.5872 24.1922 39.9028 24.49 38.0263 24.49V26.49C40.1165 26.49 42.0488 26.1578 43.8112 25.478L43.0915 23.612ZM38.0263 20.75C39.0787 20.75 40.0727 20.5653 40.9971 20.1847L40.2356 18.3353C39.5733 18.608 38.8406 18.75 38.0263 18.75V20.75ZM40.9877 20.1885C41.9302 19.8115 42.7509 19.2668 43.4372 18.5531L41.9955 17.1669C41.515 17.6666 40.9358 18.0552 40.2449 18.3315L40.9877 20.1885ZM43.4366 18.5536C44.1424 17.8208 44.6797 16.9567 45.0516 15.9739L43.181 15.2661C42.8996 16.0099 42.5036 16.6392 41.996 17.1664L43.4366 18.5536ZM45.0431 15.9957C45.4472 14.9988 45.6413 13.9125 45.6413 12.75H43.6413C43.6413 13.6875 43.4854 14.5145 43.1896 15.2443L45.0431 15.9957ZM45.6413 12.75C45.6413 11.568 45.4484 10.4771 45.0394 9.49538L43.1933 10.2646C43.4842 10.9629 43.6413 11.7854 43.6413 12.75H45.6413ZM45.0516 9.52611C44.6786 8.54041 44.1378 7.68224 43.4234 6.96789L42.0092 8.3821C42.5082 8.88109 42.9007 9.49293 43.181 10.2339L45.0516 9.52611ZM43.4501 6.99559C42.7634 6.254 41.9387 5.69191 40.9877 5.31152L40.2449 7.16848C40.9273 7.44142 41.5026 7.836 41.9826 8.35441L43.4501 6.99559ZM40.9971 5.31532C40.0727 4.9347 39.0787 4.75 38.0263 4.75V6.75C38.8406 6.75 39.5733 6.89196 40.2356 7.16468L40.9971 5.31532ZM38.0263 4.75C36.9736 4.75 35.9718 4.93477 35.0299 5.31152L35.7727 7.16848C36.4642 6.89189 37.2123 6.75 38.0263 6.75V4.75ZM35.0206 5.31532C34.0968 5.69572 33.2817 6.25367 32.581 6.98136L34.0216 8.36864C34.5342 7.83633 35.1192 7.43761 35.7821 7.16468L35.0206 5.31532ZM32.5805 6.98189C31.9 7.68962 31.3673 8.53563 30.9746 9.5043L32.8281 10.2557C33.1354 9.4977 33.536 8.87372 34.0222 8.36811L32.5805 6.98189ZM30.9693 9.51755C30.59 10.4929 30.4113 11.5758 30.4113 12.75H32.4113C32.4113 11.7775 32.5593 10.9471 32.8333 10.2424L30.9693 9.51755ZM30.4113 12.75C30.4113 13.9044 30.5911 14.983 30.966 15.9739L32.8366 15.2661C32.5582 14.5303 32.4113 13.6956 32.4113 12.75H30.4113ZM30.9746 15.9957C31.3661 16.9615 31.8953 17.8134 32.5676 18.5394L34.0351 17.1806C33.5406 16.6466 33.1365 16.0051 32.8281 15.2443L30.9746 15.9957ZM32.5942 18.5671C33.2942 19.2671 34.1052 19.8077 35.0206 20.1847L35.7821 18.3353C35.1108 18.0589 34.5217 17.6662 34.0084 17.1529L32.5942 18.5671ZM35.0299 20.1885C35.9718 20.5652 36.9736 20.75 38.0263 20.75V18.75C37.2123 18.75 36.4642 18.6081 35.7727 18.3315L35.0299 20.1885ZM71.7267 0.499998V-0.500002H70.7267V0.499998H71.7267ZM78.6567 0.499998H79.6567V-0.500002H78.6567V0.499998ZM78.6567 25V26H79.6567V25H78.6567ZM71.7267 25H70.7267V26H71.7267V25ZM62.2767 25V26H63.2767V25H62.2767ZM55.3467 25H54.3467V26H55.3467V25ZM55.3467 0.499998V-0.500002H54.3467V0.499998H55.3467ZM62.2767 0.499998H63.2767V-0.500002H62.2767V0.499998ZM72.2167 15.445V16.445H73.2167V15.445H72.2167ZM61.7867 15.445H60.7867V16.445H61.7867V15.445ZM61.7867 9.705V8.705H60.7867V9.705H61.7867ZM72.2167 9.705H73.2167V8.705H72.2167V9.705ZM71.7267 1.5H78.6567V-0.500002H71.7267V1.5ZM77.6567 0.499998V25H79.6567V0.499998H77.6567ZM78.6567 24H71.7267V26H78.6567V24ZM72.7267 25V0.499998H70.7267V25H72.7267ZM62.2767 24H55.3467V26H62.2767V24ZM56.3467 25V0.499998H54.3467V25H56.3467ZM55.3467 1.5H62.2767V-0.500002H55.3467V1.5ZM61.2767 0.499998V25H63.2767V0.499998H61.2767ZM72.2167 14.445H61.7867V16.445H72.2167V14.445ZM62.7867 15.445V9.705H60.7867V15.445H62.7867ZM61.7867 10.705H72.2167V8.705H61.7867V10.705ZM71.2167 9.705V15.445H73.2167V9.705H71.2167ZM89.3459 25H88.3459V26H89.3459V25ZM89.3459 4.455L90.053 3.74789L88.3459 2.04079V4.455H89.3459ZM90.8859 5.995V6.995H93.3001L91.593 5.28789L90.8859 5.995ZM81.8209 5.995H80.8209V6.995H81.8209V5.995ZM81.8209 0.499998V-0.500002H80.8209V0.499998H81.8209ZM103.661 0.499998H104.661V-0.500002H103.661V0.499998ZM103.661 5.995V6.995H104.661V5.995H103.661ZM94.6309 5.995L93.9238 5.28789L92.2167 6.995H94.6309V5.995ZM96.1709 4.455H97.1709V2.04079L95.4638 3.74789L96.1709 4.455ZM96.1709 25V26H97.1709V25H96.1709ZM90.3459 25V4.455H88.3459V25H90.3459ZM88.6388 5.16211L90.1788 6.70211L91.593 5.28789L90.053 3.74789L88.6388 5.16211ZM90.8859 4.995H81.8209V6.995H90.8859V4.995ZM82.8209 5.995V0.499998H80.8209V5.995H82.8209ZM81.8209 1.5H103.661V-0.500002H81.8209V1.5ZM102.661 0.499998V5.995H104.661V0.499998H102.661ZM103.661 4.995H94.6309V6.995H103.661V4.995ZM95.338 6.70211L96.878 5.16211L95.4638 3.74789L93.9238 5.28789L95.338 6.70211ZM95.1709 4.455V25H97.1709V4.455H95.1709ZM96.1709 24H89.3459V26H96.1709V24ZM103.175 25L102.26 24.5962L101.64 26H103.175V25ZM113.99 0.499998V-0.500002H113.338L113.075 0.0961647L113.99 0.499998ZM120.815 0.499998L121.729 0.0950718L121.466 -0.500002H120.815V0.499998ZM131.665 25V26H133.202L132.579 24.5951L131.665 25ZM124.455 25L123.527 25.3725L123.779 26H124.455V25ZM115.985 3.895V2.895H114.506L115.057 4.26745L115.985 3.895ZM118.715 3.895L119.643 4.26745L120.194 2.895H118.715V3.895ZM110.245 25V26H110.921L111.173 25.3725L110.245 25ZM109.09 20.24L108.146 19.9102L107.681 21.24H109.09V20.24ZM110.875 15.13V14.13H110.165L109.931 14.8002L110.875 15.13ZM122.845 15.13L123.789 14.8002L123.555 14.13H122.845V15.13ZM124.63 20.24V21.24H126.039L125.574 19.9102L124.63 20.24ZM104.09 25.4038L114.905 0.903831L113.075 0.0961647L102.26 24.5962L104.09 25.4038ZM113.99 1.5H120.815V-0.500002H113.99V1.5ZM119.901 0.904924L130.751 25.4049L132.579 24.5951L121.729 0.0950718L119.901 0.904924ZM131.665 24H124.455V26H131.665V24ZM125.383 24.6275L116.913 3.52255L115.057 4.26745L123.527 25.3725L125.383 24.6275ZM115.985 4.895H118.715V2.895H115.985V4.895ZM117.787 3.52255L109.317 24.6275L111.173 25.3725L119.643 4.26745L117.787 3.52255ZM110.245 24H103.175V26H110.245V24ZM110.034 20.5698L111.819 15.4598L109.931 14.8002L108.146 19.9102L110.034 20.5698ZM110.875 16.13H122.845V14.13H110.875V16.13ZM121.901 15.4598L123.686 20.5698L125.574 19.9102L123.789 14.8002L121.901 15.4598ZM124.63 19.24H109.09V21.24H124.63V19.24ZM149.943 25L149.082 25.5092L149.372 26H149.943V25ZM143.048 13.345L142.539 12.4842L141.678 12.9932L142.187 13.8542L143.048 13.345ZM148.613 10.055L149.466 9.53347L148.952 8.69271L148.104 9.19418L148.613 10.055ZM157.748 25V26H159.531L158.601 24.4785L157.748 25ZM134.333 25H133.333V26H134.333V25ZM134.333 0.499998V-0.500002H133.333V0.499998H134.333ZM141.228 0.499998H142.228V-0.500002H141.228V0.499998ZM141.228 25V26H142.228V25H141.228ZM139.233 15.62H138.233V16.62H139.233V15.62ZM139.233 10.02V9.02H138.233V10.02H139.233ZM148.123 10.02H149.123V9.02H148.123V10.02ZM148.123 15.62V16.62H149.123V15.62H148.123ZM149.278 13.485L149.169 14.4791L149.782 14.5461L150.117 14.0282L149.278 13.485ZM142.873 12.785L142.02 12.2627L141.196 13.6077L142.764 13.7791L142.873 12.785ZM150.398 0.499998V-0.500002H149.838L149.545 -0.022336L150.398 0.499998ZM157.678 0.499998L158.517 1.04316L159.516 -0.500002H157.678V0.499998ZM150.803 24.4908L143.908 12.8358L142.187 13.8542L149.082 25.5092L150.803 24.4908ZM143.557 14.2058L149.122 10.9158L148.104 9.19418L142.539 12.4842L143.557 14.2058ZM147.759 10.5765L156.894 25.5215L158.601 24.4785L149.466 9.53347L147.759 10.5765ZM157.748 24H149.943V26H157.748V24ZM135.333 25V0.499998H133.333V25H135.333ZM134.333 1.5H141.228V-0.500002H134.333V1.5ZM140.228 0.499998V25H142.228V0.499998H140.228ZM141.228 24H134.333V26H141.228V24ZM140.233 15.62V10.02H138.233V15.62H140.233ZM139.233 11.02H148.123V9.02H139.233V11.02ZM147.123 10.02V15.62H149.123V10.02H147.123ZM148.123 14.62H139.233V16.62H148.123V14.62ZM149.386 12.4909L142.981 11.7909L142.764 13.7791L149.169 14.4791L149.386 12.4909ZM143.725 13.3073L151.25 1.02233L149.545 -0.022336L142.02 12.2627L143.725 13.3073ZM150.398 1.5H157.678V-0.500002H150.398V1.5ZM156.838 -0.0431595L148.438 12.9418L150.117 14.0282L158.517 1.04316L156.838 -0.0431595ZM165.088 25H164.088V26H165.088V25ZM165.088 4.455L165.795 3.74789L164.088 2.04079V4.455H165.088ZM166.628 5.995V6.995H169.042L167.335 5.28789L166.628 5.995ZM157.563 5.995H156.563V6.995H157.563V5.995ZM157.563 0.499998V-0.500002H156.563V0.499998H157.563ZM179.403 0.499998H180.403V-0.500002H179.403V0.499998ZM179.403 5.995V6.995H180.403V5.995H179.403ZM170.373 5.995L169.666 5.28789L167.959 6.995H170.373V5.995ZM171.913 4.455H172.913V2.04079L171.206 3.74789L171.913 4.455ZM171.913 25V26H172.913V25H171.913ZM166.088 25V4.455H164.088V25H166.088ZM164.381 5.16211L165.921 6.70211L167.335 5.28789L165.795 3.74789L164.381 5.16211ZM166.628 4.995H157.563V6.995H166.628V4.995ZM158.563 5.995V0.499998H156.563V5.995H158.563ZM157.563 1.5H179.403V-0.500002H157.563V1.5ZM178.403 0.499998V5.995H180.403V0.499998H178.403ZM179.403 4.995H170.373V6.995H179.403V4.995ZM171.08 6.70211L172.62 5.16211L171.206 3.74789L169.666 5.28789L171.08 6.70211ZM170.913 4.455V25H172.913V4.455H170.913ZM171.913 24H165.088V26H171.913V24ZM182.598 25H181.598V26H182.598V25ZM182.598 0.499998V-0.500002H181.598V0.499998H182.598ZM189.423 0.499998H190.423V-0.500002H189.423V0.499998ZM189.423 14.885H188.423V18.0457L190.241 15.4602L189.423 14.885ZM199.538 0.499998V-0.500002H199.018L198.72 -0.0751991L199.538 0.499998ZM206.048 0.499998H207.048V-0.500002H206.048V0.499998ZM206.048 25V26H207.048V25H206.048ZM199.223 25H198.223V26H199.223V25ZM199.223 10.65H200.223V7.48666L198.404 10.0752L199.223 10.65ZM189.143 25V26H189.662L189.961 25.5748L189.143 25ZM183.598 25V0.499998H181.598V25H183.598ZM182.598 1.5H189.423V-0.500002H182.598V1.5ZM188.423 0.499998V14.885H190.423V0.499998H188.423ZM190.241 15.4602L200.356 1.0752L198.72 -0.0751991L188.605 14.3098L190.241 15.4602ZM199.538 1.5H206.048V-0.500002H199.538V1.5ZM205.048 0.499998V25H207.048V0.499998H205.048ZM206.048 24H199.223V26H206.048V24ZM200.223 25V10.65H198.223V25H200.223ZM198.404 10.0752L188.324 24.4252L189.961 25.5748L200.041 11.2248L198.404 10.0752ZM189.143 24H182.598V26H189.143V24Z" fill="#DDDCDC" fill-opacity="0.2"/>
</svg>
