<svg width="25" height="25" viewBox="0 0 25 25" fill="none" xmlns="http://www.w3.org/2000/svg">
<path d="M12.5629 8.51104C10.3318 8.51104 8.51106 10.3318 8.51106 12.5629C8.51106 14.7939 10.3318 16.6147 12.5629 16.6147C14.7939 16.6147 16.6147 14.7939 16.6147 12.5629C16.6147 10.3318 14.7939 8.51104 12.5629 8.51104ZM24.7153 12.5629C24.7153 10.885 24.7305 9.22231 24.6362 7.54748C24.542 5.60213 24.0982 3.87563 22.6757 2.45308C21.2501 1.0275 19.5266 0.58676 17.5813 0.492532C15.9034 0.398304 14.2407 0.413502 12.5659 0.413502C10.888 0.413502 9.22537 0.398304 7.55054 0.492532C5.60518 0.58676 3.87868 1.03054 2.45614 2.45308C1.03056 3.87867 0.589812 5.60213 0.495584 7.54748C0.401355 9.22535 0.416554 10.888 0.416554 12.5629C0.416554 14.2377 0.401355 15.9034 0.495584 17.5782C0.589812 19.5236 1.0336 21.2501 2.45614 22.6726C3.88172 24.0982 5.60518 24.5389 7.55054 24.6332C9.22841 24.7274 10.8911 24.7122 12.5659 24.7122C14.2438 24.7122 15.9064 24.7274 17.5813 24.6332C19.5266 24.5389 21.2531 24.0952 22.6757 22.6726C24.1013 21.247 24.542 19.5236 24.6362 17.5782C24.7335 15.9034 24.7153 14.2407 24.7153 12.5629V12.5629ZM12.5629 18.7971C9.1129 18.7971 6.32861 16.0128 6.32861 12.5629C6.32861 9.11289 9.1129 6.3286 12.5629 6.3286C16.0128 6.3286 18.7971 9.11289 18.7971 12.5629C18.7971 16.0128 16.0128 18.7971 12.5629 18.7971ZM19.0524 7.52925C18.247 7.52925 17.5965 6.87877 17.5965 6.07327C17.5965 5.26777 18.247 4.61729 19.0524 4.61729C19.8579 4.61729 20.5084 5.26777 20.5084 6.07327C20.5087 6.26454 20.4712 6.45398 20.3981 6.63073C20.325 6.80749 20.2178 6.96809 20.0825 7.10334C19.9473 7.23858 19.7867 7.34582 19.6099 7.41891C19.4332 7.49199 19.2437 7.52949 19.0524 7.52925V7.52925Z" fill="white"/>
</svg>
