<svg width="25" height="25" viewBox="0 0 25 25" fill="none" xmlns="http://www.w3.org/2000/svg">
<path fill-rule="evenodd" clip-rule="evenodd" d="M24.4427 12.5628C24.4427 19.2773 18.9987 24.7212 12.2842 24.7212C5.56969 24.7212 0.125732 19.2773 0.125732 12.5628C0.125732 5.84825 5.56969 0.404297 12.2842 0.404297C18.9987 0.404297 24.4427 5.84825 24.4427 12.5628ZM12.7199 9.38029C11.5375 9.87169 9.17366 10.89 5.62947 12.4341C5.05397 12.6631 4.75203 12.887 4.72467 13.1058C4.67807 13.4767 5.14211 13.6226 5.77233 13.8202C5.85845 13.8475 5.94761 13.8749 6.0388 13.9053C6.6599 14.1069 7.49478 14.343 7.92843 14.3521C8.32257 14.3602 8.7623 14.1981 9.24763 13.8658C12.5588 11.6296 14.2681 10.4999 14.3755 10.4756C14.4515 10.4583 14.5568 10.436 14.6277 10.4999C14.6987 10.5627 14.6916 10.6823 14.6845 10.7147C14.6379 10.9102 12.8202 12.6013 11.8779 13.4767C11.5841 13.7492 11.3764 13.9428 11.3338 13.9873C11.2386 14.0856 11.1413 14.1798 11.0481 14.27C10.4706 14.8253 10.0389 15.2427 11.0724 15.9236C11.5689 16.2508 11.9661 16.5214 12.3622 16.7909C12.7949 17.0857 13.2265 17.3795 13.7858 17.7463C13.9276 17.8395 14.0634 17.9358 14.1961 18.03C14.6997 18.3897 15.1526 18.7119 15.7119 18.6613C16.0361 18.6309 16.3725 18.3259 16.5427 17.415C16.945 15.2609 17.7373 10.5961 17.9207 8.67307C17.9318 8.5134 17.925 8.35299 17.9004 8.19484C17.8857 8.0671 17.8235 7.94957 17.7261 7.86554C17.5812 7.747 17.3563 7.72167 17.255 7.7237C16.798 7.7318 16.0969 7.97598 12.7199 9.38029Z" fill="white"/>
</svg>
