<svg width="26" height="25" viewBox="0 0 26 25" fill="none" xmlns="http://www.w3.org/2000/svg">
<path d="M15.1143 12.3517L12.2743 11.0265C12.0265 10.9114 11.8229 11.0404 11.8229 11.3148V13.8109C11.8229 14.0853 12.0265 14.2143 12.2743 14.0992L15.1131 12.774C15.3622 12.6577 15.3622 12.468 15.1143 12.3517ZM13.0874 0.423828C6.3831 0.423828 0.948364 5.85857 0.948364 12.5628C0.948364 19.2671 6.3831 24.7019 13.0874 24.7019C19.7917 24.7019 25.2264 19.2671 25.2264 12.5628C25.2264 5.85857 19.7917 0.423828 13.0874 0.423828ZM13.0874 17.4943C6.87372 17.4943 6.76498 16.9342 6.76498 12.5628C6.76498 8.19153 6.87372 7.63137 13.0874 7.63137C19.301 7.63137 19.4098 8.19153 19.4098 12.5628C19.4098 16.9342 19.301 17.4943 13.0874 17.4943Z" fill="white"/>
</svg>
