<svg width="77" height="31" viewBox="0 0 77 31" fill="none" xmlns="http://www.w3.org/2000/svg">
<path d="M7.39 11.245V10.245H6.39V11.245H7.39ZM18.695 11.245H19.695V10.245H18.695V11.245ZM18.695 16.6V17.6H19.695V16.6H18.695ZM7.39 16.6H6.39V17.6H7.39V16.6ZM7.88 25V26H8.88V25H7.88ZM0.95 25H-0.05V26H0.95V25ZM0.95 0.499998V-0.500002H-0.05V0.499998H0.95ZM20.165 0.499998H21.165V-0.500002H20.165V0.499998ZM20.165 5.855V6.855H21.165V5.855H20.165ZM7.88 5.855V4.855H6.88V5.855H7.88ZM7.39 12.245H18.695V10.245H7.39V12.245ZM17.695 11.245V16.6H19.695V11.245H17.695ZM18.695 15.6H7.39V17.6H18.695V15.6ZM8.39 16.6V11.245H6.39V16.6H8.39ZM7.88 24H0.95V26H7.88V24ZM1.95 25V0.499998H-0.05V25H1.95ZM0.95 1.5H20.165V-0.500002H0.95V1.5ZM19.165 0.499998V5.855H21.165V0.499998H19.165ZM20.165 4.855H7.88V6.855H20.165V4.855ZM6.88 5.855V25H8.88V5.855H6.88ZM19.509 25L18.5942 24.5962L17.9745 26H19.509V25ZM30.324 0.499998V-0.500002H29.6724L29.4092 0.0961647L30.324 0.499998ZM37.149 0.499998L38.0634 0.0950718L37.7998 -0.500002H37.149V0.499998ZM47.999 25V26H49.5356L48.9134 24.5951L47.999 25ZM40.789 25L39.861 25.3725L40.1128 26H40.789V25ZM32.319 3.895V2.895H30.8402L31.391 4.26745L32.319 3.895ZM35.049 3.895L35.9771 4.26745L36.5279 2.895H35.049V3.895ZM26.579 25V26H27.2552L27.5071 25.3725L26.579 25ZM25.424 20.24L24.48 19.9102L24.0155 21.24H25.424V20.24ZM27.209 15.13V14.13H26.4991L26.265 14.8002L27.209 15.13ZM39.179 15.13L40.1231 14.8002L39.889 14.13H39.179V15.13ZM40.964 20.24V21.24H42.3726L41.9081 19.9102L40.964 20.24ZM20.4239 25.4038L31.2389 0.903831L29.4092 0.0961647L18.5942 24.5962L20.4239 25.4038ZM30.324 1.5H37.149V-0.500002H30.324V1.5ZM36.2347 0.904924L47.0847 25.4049L48.9134 24.5951L38.0634 0.0950718L36.2347 0.904924ZM47.999 24H40.789V26H47.999V24ZM41.7171 24.6275L33.2471 3.52255L31.391 4.26745L39.861 25.3725L41.7171 24.6275ZM32.319 4.895H35.049V2.895H32.319V4.895ZM34.121 3.52255L25.651 24.6275L27.5071 25.3725L35.9771 4.26745L34.121 3.52255ZM26.579 24H19.509V26H26.579V24ZM26.3681 20.5698L28.1531 15.4598L26.265 14.8002L24.48 19.9102L26.3681 20.5698ZM27.209 16.13H39.179V14.13H27.209V16.13ZM38.235 15.4598L40.02 20.5698L41.9081 19.9102L40.1231 14.8002L38.235 15.4598ZM40.964 19.24H25.424V21.24H40.964V19.24ZM56.5519 24.545L56.1964 25.4797L56.5519 24.545ZM52.2119 21.885L51.5188 22.6058L51.5258 22.6126L51.533 22.6193L52.2119 21.885ZM49.3769 17.825L48.4614 18.2273L49.3769 17.825ZM49.3769 7.675L48.4614 7.27272V7.27273L49.3769 7.675ZM52.2119 3.65L52.8977 4.37779L52.8981 4.37739L52.2119 3.65ZM56.5519 0.954999L56.1964 0.0203028L56.5519 0.954999ZM67.4019 0.954999L67.042 1.88801L67.0464 1.8897L67.4019 0.954999ZM71.7069 3.615L71.0211 4.34279L71.7069 3.615ZM74.5419 7.675L73.6242 8.07222L73.6278 8.08055L73.6315 8.0888L74.5419 7.675ZM74.5419 17.86L73.6292 17.4513L73.6264 17.4577L74.5419 17.86ZM71.7069 21.885L72.3927 22.6128L71.7069 21.885ZM67.4019 24.545L67.0464 23.6103L67.042 23.612L67.4019 24.545ZM67.0519 30.565L67.3002 29.5963L67.2885 29.5933L67.2767 29.5906L67.0519 30.565ZM64.3569 29.515L63.8632 30.3847L63.8732 30.3902L64.3569 29.515ZM61.6269 27.52L60.9579 28.2634L60.9671 28.2714L61.6269 27.52ZM58.4769 24.405L58.2332 23.4351L56.5791 23.8507L57.7495 25.0912L58.4769 24.405ZM65.7219 22.585L66.5505 22.0251L66.158 21.4444L65.4782 21.6151L65.7219 22.585ZM67.2969 24.615L68.021 23.9253V23.9253L67.2969 24.615ZM68.6619 25.665L68.2338 26.5687L68.2426 26.5729L68.2515 26.5769L68.6619 25.665ZM73.8419 24.265L74.6064 23.6204L73.8973 22.7794L73.1275 23.5652L73.8419 24.265ZM76.8519 27.835L77.6215 28.4735L78.1555 27.8298L77.6164 27.1904L76.8519 27.835ZM64.5669 19.26L64.1955 18.3315L64.1861 18.3353L64.5669 19.26ZM66.6669 17.86L65.9466 17.1664L65.946 17.1669L66.6669 17.86ZM68.0669 15.62L67.1401 15.2443L67.1357 15.2551L67.1316 15.2661L68.0669 15.62ZM68.0669 9.88L67.1316 10.2339L67.1374 10.2494L67.1438 10.2646L68.0669 9.88ZM66.6669 7.675L65.9331 8.35441L65.9462 8.36851L65.9598 8.3821L66.6669 7.675ZM64.5669 6.24L64.1861 7.16472L64.1955 7.16848L64.5669 6.24ZM59.3519 6.24L58.9805 5.31148L58.9711 5.31532L59.3519 6.24ZM57.2519 7.675L56.5316 6.98136L56.531 6.98189L57.2519 7.675ZM55.8519 9.88L54.9251 9.5043L54.9225 9.5109L54.9199 9.51755L55.8519 9.88ZM55.8519 15.62L54.9166 15.9739L54.9207 15.9848L54.9251 15.9957L55.8519 15.62ZM57.2519 17.86L56.5181 18.5394L56.5312 18.5535L56.5448 18.5671L57.2519 17.86ZM59.3519 19.26L58.9711 20.1847L58.9805 20.1885L59.3519 19.26ZM61.9769 24.49C60.1255 24.49 58.4391 24.1928 56.9073 23.6103L56.1964 25.4797C57.978 26.1572 59.9082 26.49 61.9769 26.49V24.49ZM56.9073 23.6103C55.3639 23.0234 54.0285 22.2027 52.8907 21.1507L51.533 22.6193C52.8685 23.854 54.4265 24.8066 56.1964 25.4797L56.9073 23.6103ZM52.905 21.1642C51.7858 20.0881 50.9164 18.8429 50.2924 17.4227L48.4614 18.2273C49.1907 19.8871 50.2113 21.3486 51.5188 22.6058L52.905 21.1642ZM50.2924 17.4227C49.6766 16.0212 49.3619 14.4682 49.3619 12.75H47.3619C47.3619 14.7184 47.7238 16.5488 48.4614 18.2273L50.2924 17.4227ZM49.3619 12.75C49.3619 11.0318 49.6766 9.47877 50.2924 8.07727L48.4614 7.27273C47.7238 8.95123 47.3619 10.7816 47.3619 12.75H49.3619ZM50.2924 8.07727C50.9156 6.65895 51.7829 5.42828 52.8977 4.37779L51.5261 2.92221C50.2142 4.15839 49.1915 5.61104 48.4614 7.27272L50.2924 8.07727ZM52.8981 4.37739C54.0351 3.30471 55.3681 2.47502 56.9073 1.8897L56.1964 0.0203028C54.4223 0.694981 52.8619 1.66196 51.5257 2.92261L52.8981 4.37739ZM56.9073 1.8897C58.4391 1.30721 60.1255 1.01 61.9769 1.01V-0.990002C59.9082 -0.990002 57.978 -0.657209 56.1964 0.0203028L56.9073 1.8897ZM61.9769 1.01C63.8534 1.01 65.5377 1.30777 67.042 1.888L67.7617 0.0219975C65.9994 -0.657775 64.067 -0.990002 61.9769 -0.990002V1.01ZM67.0464 1.8897C68.5883 2.47605 69.9091 3.29501 71.0211 4.34279L72.3927 2.88721C71.0779 1.64832 69.5288 0.693952 67.7573 0.0203028L67.0464 1.8897ZM71.0211 4.34279C72.1332 5.39079 73.0003 6.63091 73.6242 8.07222L75.4596 7.27777C74.7301 5.59242 73.7072 4.12588 72.3927 2.88721L71.0211 4.34279ZM73.6315 8.0888C74.2673 9.48755 74.5919 11.0365 74.5919 12.75H76.5919C76.5919 10.7769 76.2164 8.94245 75.4522 7.2612L73.6315 8.0888ZM74.5919 12.75C74.5919 14.4634 74.2673 16.0261 73.6292 17.4513L75.4546 18.2687C76.2164 16.5672 76.5919 14.7233 76.5919 12.75H74.5919ZM73.6264 17.4577C73.0032 18.876 72.1359 20.1067 71.0211 21.1572L72.3927 22.6128C73.7045 21.3766 74.7273 19.924 75.4574 18.2623L73.6264 17.4577ZM71.0211 21.1572C69.9091 22.205 68.5883 23.024 67.0464 23.6103L67.7573 25.4797C69.5288 24.806 71.0779 23.8517 72.3927 22.6128L71.0211 21.1572ZM67.042 23.612C65.5377 24.1922 63.8534 24.49 61.9769 24.49V26.49C64.067 26.49 65.9994 26.1578 67.7617 25.478L67.042 23.612ZM69.9919 29.915C69.016 29.915 68.1202 29.8066 67.3002 29.5963L66.8035 31.5337C67.8035 31.7901 68.8678 31.915 69.9919 31.915V29.915ZM67.2767 29.5906C66.4645 29.4032 65.6528 29.0886 64.8406 28.6398L63.8732 30.3902C64.8343 30.9214 65.8192 31.3068 66.827 31.5394L67.2767 29.5906ZM64.8505 28.6453C64.0603 28.1968 63.2057 27.5755 62.2867 26.7686L60.9671 28.2714C61.9614 29.1445 62.9268 29.8532 63.8633 30.3847L64.8505 28.6453ZM62.2958 26.7767C61.3884 25.96 60.3583 24.942 59.2043 23.7188L57.7495 25.0912C58.9288 26.3413 59.9987 27.4 60.9579 28.2633L62.2958 26.7767ZM58.7205 25.3749L65.9655 23.5549L65.4782 21.6151L58.2332 23.4351L58.7205 25.3749ZM64.8933 23.1449C65.493 24.0325 66.0531 24.759 66.5727 25.3047L68.021 23.9253C67.6074 23.491 67.1174 22.8642 66.5505 22.0251L64.8933 23.1449ZM66.5727 25.3047C67.0942 25.8522 67.6461 26.2903 68.2338 26.5687L69.09 24.7613C68.791 24.6197 68.4329 24.3578 68.021 23.9253L66.5727 25.3047ZM68.2515 26.5769C68.8476 26.8452 69.4775 26.98 70.1319 26.98V24.98C69.7596 24.98 69.4095 24.9048 69.0722 24.7531L68.2515 26.5769ZM70.1319 26.98C71.8027 26.98 73.2852 26.2623 74.5562 24.9648L73.1275 23.5652C72.1586 24.5544 71.1677 24.98 70.1319 24.98V26.98ZM73.0774 24.9096L76.0874 28.4796L77.6164 27.1904L74.6064 23.6204L73.0774 24.9096ZM76.0822 27.1965C74.5847 29.0018 72.59 29.915 69.9919 29.915V31.915C73.1337 31.915 75.7124 30.7749 77.6215 28.4735L76.0822 27.1965ZM61.9769 20.75C63.0293 20.75 64.0233 20.5653 64.9476 20.1847L64.1861 18.3353C63.5238 18.608 62.7911 18.75 61.9769 18.75V20.75ZM64.9383 20.1885C65.8807 19.8115 66.7015 19.2668 67.3877 18.5531L65.946 17.1669C65.4656 17.6666 64.8864 18.0552 64.1955 18.3315L64.9383 20.1885ZM67.3872 18.5536C68.0929 17.8208 68.6303 16.9567 69.0022 15.9739L67.1316 15.2661C66.8501 16.0099 66.4542 16.6392 65.9466 17.1664L67.3872 18.5536ZM68.9936 15.9957C69.3978 14.9988 69.5919 13.9125 69.5919 12.75H67.5919C67.5919 13.6875 67.436 14.5145 67.1401 15.2443L68.9936 15.9957ZM69.5919 12.75C69.5919 11.568 69.399 10.4771 68.99 9.49538L67.1438 10.2646C67.4348 10.9629 67.5919 11.7854 67.5919 12.75H69.5919ZM69.0022 9.52611C68.6292 8.54041 68.0883 7.68224 67.374 6.96789L65.9598 8.3821C66.4588 8.88109 66.8512 9.49293 67.1316 10.2339L69.0022 9.52611ZM67.4006 6.99559C66.714 6.254 65.8892 5.69191 64.9383 5.31152L64.1955 7.16848C64.8779 7.44142 65.4531 7.836 65.9331 8.35441L67.4006 6.99559ZM64.9476 5.31532C64.0233 4.9347 63.0293 4.75 61.9769 4.75V6.75C62.7911 6.75 63.5238 6.89196 64.1861 7.16468L64.9476 5.31532ZM61.9769 4.75C60.9242 4.75 59.9224 4.93477 58.9805 5.31152L59.7233 7.16848C60.4147 6.89189 61.1629 6.75 61.9769 6.75V4.75ZM58.9711 5.31532C58.0473 5.69572 57.2323 6.25367 56.5316 6.98136L57.9722 8.36864C58.4848 7.83633 59.0698 7.43761 59.7326 7.16468L58.9711 5.31532ZM56.531 6.98189C55.8505 7.68962 55.3178 8.53563 54.9251 9.5043L56.7786 10.2557C57.0859 9.4977 57.4865 8.87372 57.9727 8.36811L56.531 6.98189ZM54.9199 9.51755C54.5406 10.4929 54.3619 11.5758 54.3619 12.75H56.3619C56.3619 11.7775 56.5098 10.9471 56.7839 10.2424L54.9199 9.51755ZM54.3619 12.75C54.3619 13.9044 54.5417 14.983 54.9166 15.9739L56.7872 15.2661C56.5087 14.5303 56.3619 13.6956 56.3619 12.75H54.3619ZM54.9251 15.9957C55.3167 16.9615 55.8459 17.8134 56.5181 18.5394L57.9856 17.1806C57.4912 16.6466 57.0871 16.0051 56.7786 15.2443L54.9251 15.9957ZM56.5448 18.5671C57.2448 19.2671 58.0557 19.8077 58.9711 20.1847L59.7326 18.3353C59.0614 18.0589 58.4723 17.6662 57.959 17.1529L56.5448 18.5671ZM58.9805 20.1885C59.9224 20.5652 60.9242 20.75 61.9769 20.75V18.75C61.1629 18.75 60.4147 18.6081 59.7233 18.3315L58.9805 20.1885Z" fill="#DDDCDC" fill-opacity="0.2"/>
</svg>
