<svg width="164" height="30" viewBox="0 0 164 30" fill="none" xmlns="http://www.w3.org/2000/svg">
<path d="M0.125 25H-0.875V26H0.125V25ZM0.125 0.499998V-0.500002H-0.875V0.499998H0.125ZM18.85 2.18L18.2789 3.00091L18.2857 3.00562L18.2926 3.01022L18.85 2.18ZM19.025 11.56L19.6191 12.3645L19.627 12.3585L19.025 11.56ZM12.935 13.24L12.0148 12.8484L11.4227 14.24H12.935V13.24ZM13.635 11.595V10.595H12.9738L12.7148 11.2034L13.635 11.595ZM20.075 13.24L19.4949 14.0546L19.5019 14.0595L19.509 14.0644L20.075 13.24ZM19.9 23.11L19.3 22.31L19.2946 22.3141L19.9 23.11ZM6.95 20.03H5.95V21.03H6.95V20.03ZM14.65 19.4L15.3008 20.1593L15.3036 20.1568L14.65 19.4ZM14.65 15.62L13.9992 16.3793L14.0185 16.3958L14.0386 16.4113L14.65 15.62ZM6.95 14.99V13.99H5.95V14.99H6.95ZM6.95 10.3H5.95V11.3H6.95V10.3ZM13.565 9.705L14.1942 10.4822L14.2051 10.4734L14.2158 10.4643L13.565 9.705ZM13.565 6.1L12.9142 6.85926L12.9249 6.8684L12.9358 6.87724L13.565 6.1ZM6.95 5.47V4.47H5.95V5.47H6.95ZM1.125 25V0.499998H-0.875V25H1.125ZM0.125 1.5H12.025V-0.500002H0.125V1.5ZM12.025 1.5C14.8569 1.5 16.9011 2.0424 18.2789 3.00091L19.4211 1.35909C17.5789 0.0775938 15.0731 -0.500002 12.025 -0.500002V1.5ZM18.2926 3.01022C19.6389 3.91418 20.3 5.16047 20.3 6.87H22.3C22.3 4.51953 21.3278 2.63916 19.4074 1.34978L18.2926 3.01022ZM20.3 6.87C20.3 8.55568 19.6764 9.81666 18.423 10.7615L19.627 12.3585C21.407 11.0167 22.3 9.15099 22.3 6.87H20.3ZM18.431 10.7556C17.1374 11.7108 15.3382 12.24 12.935 12.24V14.24C15.6185 14.24 17.8793 13.6492 19.619 12.3644L18.431 10.7556ZM13.8552 13.6316L14.5552 11.9866L12.7148 11.2034L12.0148 12.8484L13.8552 13.6316ZM13.635 12.595C16.2711 12.595 18.1856 13.1222 19.4949 14.0546L20.6551 12.4254C18.8844 11.1645 16.5056 10.595 13.635 10.595V12.595ZM19.509 14.0644C20.7682 14.9289 21.42 16.1881 21.42 18H23.42C23.42 15.6119 22.5085 13.6977 20.641 12.4156L19.509 14.0644ZM21.42 18C21.42 19.8401 20.7217 21.2437 19.3 22.31L20.5 23.91C22.4383 22.4563 23.42 20.4532 23.42 18H21.42ZM19.2946 22.3141C17.8811 23.3891 15.7278 24 12.69 24V26C15.9522 26 18.6056 25.3509 20.5054 23.9059L19.2946 22.3141ZM12.69 24H0.125V26H12.69V24ZM6.95 21.03H12.41V19.03H6.95V21.03ZM12.41 21.03C13.5259 21.03 14.5525 20.8006 15.3008 20.1593L13.9992 18.6407C13.7675 18.8393 13.3008 19.03 12.41 19.03V21.03ZM15.3036 20.1568C16.0881 19.4793 16.42 18.5304 16.42 17.475H14.42C14.42 18.0996 14.2386 18.434 13.9964 18.6432L15.3036 20.1568ZM16.42 17.475C16.42 16.4248 16.0891 15.4683 15.2614 14.8287L14.0386 16.4113C14.2376 16.5651 14.42 16.8452 14.42 17.475H16.42ZM15.3008 14.8607C14.5525 14.2193 13.5259 13.99 12.41 13.99V15.99C13.3008 15.99 13.7675 16.1807 13.9992 16.3793L15.3008 14.8607ZM12.41 13.99H6.95V15.99H12.41V13.99ZM5.95 14.99V20.03H7.95V14.99H5.95ZM6.95 11.3H11.36V9.3H6.95V11.3ZM11.36 11.3C12.4489 11.3 13.4511 11.0838 14.1942 10.4822L12.9358 8.92776C12.6989 9.1195 12.2311 9.3 11.36 9.3V11.3ZM14.2158 10.4643C14.9774 9.81146 15.3 8.89735 15.3 7.885H13.3C13.3 8.45932 13.1326 8.75853 12.9142 8.94574L14.2158 10.4643ZM15.3 7.885C15.3 6.87503 14.9777 5.95705 14.1942 5.32275L12.9358 6.87724C13.1323 7.03628 13.3 7.3083 13.3 7.885H15.3ZM14.2158 5.34074C13.471 4.70235 12.4597 4.47 11.36 4.47V6.47C12.2203 6.47 12.679 6.65764 12.9142 6.85926L14.2158 5.34074ZM11.36 4.47H6.95V6.47H11.36V4.47ZM5.95 5.47V10.3H7.95V5.47H5.95ZM26.1699 25H25.1699V26H26.1699V25ZM26.1699 0.499998V-0.500002H25.1699V0.499998H26.1699ZM32.9949 0.499998H33.9949V-0.500002H32.9949V0.499998ZM32.9949 25V26H33.9949V25H32.9949ZM27.1699 25V0.499998H25.1699V25H27.1699ZM26.1699 1.5H32.9949V-0.500002H26.1699V1.5ZM31.9949 0.499998V25H33.9949V0.499998H31.9949ZM32.9949 24H26.1699V26H32.9949V24ZM54.337 21.99H53.337V22.99H54.337V21.99ZM54.337 5.995H55.337V4.995H54.337V5.995ZM47.302 5.995V4.995H46.3407L46.3028 5.95555L47.302 5.995ZM47.197 8.655L46.1978 8.61555L46.1975 8.62223L47.197 8.655ZM46.917 12.645L45.9233 12.5325L45.9223 12.5418L45.9214 12.5511L46.917 12.645ZM46.392 16.04L45.4169 15.8184L45.4145 15.829L45.4123 15.8396L46.392 16.04ZM45.517 18.7L44.6225 18.2527L44.6168 18.2644L45.517 18.7ZM44.222 20.38L44.1043 21.3731L44.5101 21.4211L44.8334 21.1713L44.222 20.38ZM36.837 19.505L36.8656 18.5054L36.7193 20.4981L36.837 19.505ZM38.832 18.7L38.0961 18.0229L38.0948 18.0243L38.832 18.7ZM40.092 16.285L39.1391 15.9818L39.1359 15.9917L39.133 16.0017L40.092 16.285ZM40.792 12.645L39.7987 12.5291L39.7978 12.5373L39.797 12.5455L40.792 12.645ZM41.142 8.06L42.1411 8.10221L42.1413 8.09701L41.142 8.06ZM41.422 0.499998V-0.500002H40.4583L40.4227 0.462987L41.422 0.499998ZM61.162 0.499998H62.162V-0.500002H61.162V0.499998ZM61.162 21.99V22.99H62.162V21.99H61.162ZM36.102 29.935H35.102V30.935H36.102V29.935ZM36.102 19.505V18.505H35.102V19.505H36.102ZM64.487 19.505H65.487V18.505H64.487V19.505ZM64.487 29.935V30.935H65.487V29.935H64.487ZM58.152 29.935H57.152V30.935H58.152V29.935ZM58.152 25H59.152V24H58.152V25ZM42.472 25V24H41.472V25H42.472ZM42.472 29.935V30.935H43.472V29.935H42.472ZM55.337 21.99V5.995H53.337V21.99H55.337ZM54.337 4.995H47.302V6.995H54.337V4.995ZM46.3028 5.95555L46.1978 8.61556L48.1962 8.69444L48.3012 6.03444L46.3028 5.95555ZM46.1975 8.62223C46.1516 10.0226 46.06 11.3258 45.9233 12.5325L47.9106 12.7575C48.054 11.4909 48.149 10.134 48.1965 8.68777L46.1975 8.62223ZM45.9214 12.5511C45.8081 13.7522 45.6391 14.8405 45.4169 15.8184L47.3671 16.2616C47.6115 15.1862 47.7926 14.0111 47.9126 12.7389L45.9214 12.5511ZM45.4123 15.8396C45.2156 16.8014 44.9483 17.6012 44.6226 18.2528L46.4114 19.1472C46.8323 18.3054 47.1484 17.332 47.3717 16.2404L45.4123 15.8396ZM44.6168 18.2644C44.3185 18.881 43.9757 19.3066 43.6105 19.5887L44.8334 21.1713C45.495 20.6601 46.0155 19.9656 46.4172 19.1356L44.6168 18.2644ZM44.3397 19.3869L36.9547 18.5119L36.7193 20.4981L44.1043 21.3731L44.3397 19.3869ZM36.8084 20.5046C37.8905 20.5355 38.8435 20.1673 39.5691 19.3757L38.0948 18.0243C37.7938 18.3527 37.4169 18.5212 36.8656 18.5054L36.8084 20.5046ZM39.5679 19.3771C40.2378 18.649 40.7188 17.6927 41.051 16.5683L39.133 16.0017C38.8585 16.9306 38.4996 17.5844 38.0961 18.0229L39.5679 19.3771ZM41.0449 16.5882C41.3979 15.4787 41.6421 14.194 41.787 12.7445L39.797 12.5455C39.6619 13.896 39.4394 15.0379 39.1391 15.9818L41.0449 16.5882ZM41.7853 12.7609C41.9519 11.3326 42.0702 9.77934 42.1411 8.10221L40.1429 8.01778C40.0737 9.65399 39.9588 11.1574 39.7987 12.5291L41.7853 12.7609ZM42.1413 8.09701L42.4213 0.53701L40.4227 0.462987L40.1427 8.02299L42.1413 8.09701ZM41.422 1.5H61.162V-0.500002H41.422V1.5ZM60.162 0.499998V21.99H62.162V0.499998H60.162ZM61.162 20.99H54.337V22.99H61.162V20.99ZM37.102 29.935V19.505H35.102V29.935H37.102ZM36.102 20.505H64.487V18.505H36.102V20.505ZM63.487 19.505V29.935H65.487V19.505H63.487ZM64.487 28.935H58.152V30.935H64.487V28.935ZM59.152 29.935V25H57.152V29.935H59.152ZM58.152 24H42.472V26H58.152V24ZM41.472 25V29.935H43.472V25H41.472ZM42.472 28.935H36.102V30.935H42.472V28.935ZM67.8008 25H66.8008V26H67.8008V25ZM67.8008 0.499998V-0.500002H66.8008V0.499998H67.8008ZM85.7558 0.499998L86.7558 0.506368L86.7622 -0.500002H85.7558V0.499998ZM85.7208 5.995V6.995H86.7144L86.7208 6.00137L85.7208 5.995ZM73.0858 5.995L72.3787 5.28789L70.6716 6.995H73.0858V5.995ZM74.6258 4.455H75.6258V2.04079L73.9187 3.74789L74.6258 4.455ZM74.6258 25V26H75.6258V25H74.6258ZM68.8008 25V0.499998H66.8008V25H68.8008ZM67.8008 1.5H85.7558V-0.500002H67.8008V1.5ZM84.7558 0.493629L84.7208 5.98863L86.7208 6.00137L86.7558 0.506368L84.7558 0.493629ZM85.7208 4.995H73.0858V6.995H85.7208V4.995ZM73.7929 6.70211L75.3329 5.16211L73.9187 3.74789L72.3787 5.28789L73.7929 6.70211ZM73.6258 4.455V25H75.6258V4.455H73.6258ZM74.6258 24H67.8008V26H74.6258V24ZM90.2555 19.505L90.5323 18.5441L89.6007 18.2756L89.3036 19.1986L90.2555 19.505ZM93.6155 19.89L93.7755 20.8771L93.7861 20.8754L93.7966 20.8735L93.6155 19.89ZM95.9605 18.14L95.1335 17.5777L95.1314 17.5809L95.9605 18.14ZM97.1505 16.39L96.4052 15.7232L96.3609 15.7727L96.3235 15.8277L97.1505 16.39ZM97.7455 15.725L98.4907 16.3918L98.5797 16.2923L98.6395 16.173L97.7455 15.725ZM105.375 0.499998V-0.500002H104.758L104.481 0.0519629L105.375 0.499998ZM112.13 0.499998L113.012 0.972445L113.801 -0.500002H112.13V0.499998ZM101.98 19.435L102.861 19.9084L102.862 19.9074L101.98 19.435ZM98.3755 23.775L97.7841 22.9686L97.7776 22.9734L98.3755 23.775ZM93.8255 25.525L93.7413 24.5286L93.8255 25.525ZM88.6105 24.615L87.6586 24.3086L87.3751 25.1891L88.2309 25.5402L88.6105 24.615ZM97.6405 21.29L96.7601 21.7643L97.491 23.121L98.4323 21.9008L97.6405 21.29ZM86.4405 0.499998V-0.500002H84.7659L85.5601 0.974275L86.4405 0.499998ZM93.7555 0.499998L94.6562 0.065527L94.3834 -0.500002H93.7555V0.499998ZM101.42 16.39L102.212 17.0008L102.589 16.5118L102.321 15.9555L101.42 16.39ZM89.9786 20.4659C91.4175 20.8805 92.7022 21.0512 93.7755 20.8771L93.4554 18.9029C92.8021 19.0088 91.8468 18.9228 90.5323 18.5441L89.9786 20.4659ZM93.7966 20.8735C95.0283 20.6466 96.0158 19.8464 96.7895 18.6991L95.1314 17.5809C94.5518 18.4403 93.976 18.8068 93.4343 18.9065L93.7966 20.8735ZM96.7874 18.7023L97.9774 16.9523L96.3235 15.8277L95.1335 17.5777L96.7874 18.7023ZM97.8957 17.0568L98.4907 16.3918L97.0002 15.0582L96.4052 15.7232L97.8957 17.0568ZM98.6395 16.173L106.269 0.948034L104.481 0.0519629L96.8515 15.277L98.6395 16.173ZM105.375 1.5H112.13V-0.500002H105.375V1.5ZM111.249 0.0275507L101.099 18.9626L102.862 19.9074L113.012 0.972445L111.249 0.0275507ZM101.1 18.9616C100.152 20.7255 99.0405 22.0472 97.7841 22.9686L98.9668 24.5814C100.51 23.4494 101.803 21.8779 102.861 19.9084L101.1 18.9616ZM97.7776 22.9734C96.5455 23.8923 95.2056 24.4048 93.7413 24.5286L93.9097 26.5215C95.7587 26.3652 97.4521 25.711 98.9733 24.5766L97.7776 22.9734ZM93.7413 24.5286C92.2692 24.653 90.6901 24.3873 88.99 23.6898L88.2309 25.5402C90.1709 26.3361 92.0684 26.677 93.9097 26.5215L93.7413 24.5286ZM89.5624 24.9214L91.2074 19.8114L89.3036 19.1986L87.6586 24.3086L89.5624 24.9214ZM98.5208 20.8157L87.3208 0.0257215L85.5601 0.974275L96.7601 21.7643L98.5208 20.8157ZM86.4405 1.5H93.7555V-0.500002H86.4405V1.5ZM92.8548 0.93447L100.52 16.8245L102.321 15.9555L94.6562 0.065527L92.8548 0.93447ZM100.629 15.7792L96.8487 20.6792L98.4323 21.9008L102.212 17.0008L100.629 15.7792ZM129.824 25L128.963 25.5092L129.253 26H129.824V25ZM122.929 13.345L122.42 12.4842L121.559 12.9932L122.068 13.8542L122.929 13.345ZM128.494 10.055L129.347 9.53347L128.833 8.69271L127.985 9.19418L128.494 10.055ZM137.629 25V26H139.412L138.482 24.4785L137.629 25ZM114.214 25H113.214V26H114.214V25ZM114.214 0.499998V-0.500002H113.214V0.499998H114.214ZM121.109 0.499998H122.109V-0.500002H121.109V0.499998ZM121.109 25V26H122.109V25H121.109ZM119.114 15.62H118.114V16.62H119.114V15.62ZM119.114 10.02V9.02H118.114V10.02H119.114ZM128.004 10.02H129.004V9.02H128.004V10.02ZM128.004 15.62V16.62H129.004V15.62H128.004ZM129.159 13.485L129.05 14.4791L129.663 14.5461L129.998 14.0282L129.159 13.485ZM122.754 12.785L121.901 12.2627L121.077 13.6077L122.645 13.7791L122.754 12.785ZM130.279 0.499998V-0.500002H129.718L129.426 -0.022336L130.279 0.499998ZM137.559 0.499998L138.398 1.04316L139.396 -0.500002H137.559V0.499998ZM130.684 24.4908L123.789 12.8358L122.068 13.8542L128.963 25.5092L130.684 24.4908ZM123.437 14.2058L129.002 10.9158L127.985 9.19418L122.42 12.4842L123.437 14.2058ZM127.64 10.5765L136.775 25.5215L138.482 24.4785L129.347 9.53347L127.64 10.5765ZM137.629 24H129.824V26H137.629V24ZM115.214 25V0.499998H113.214V25H115.214ZM114.214 1.5H121.109V-0.500002H114.214V1.5ZM120.109 0.499998V25H122.109V0.499998H120.109ZM121.109 24H114.214V26H121.109V24ZM120.114 15.62V10.02H118.114V15.62H120.114ZM119.114 11.02H128.004V9.02H119.114V11.02ZM127.004 10.02V15.62H129.004V10.02H127.004ZM128.004 14.62H119.114V16.62H128.004V14.62ZM129.267 12.4909L122.862 11.7909L122.645 13.7791L129.05 14.4791L129.267 12.4909ZM123.606 13.3073L131.131 1.02233L129.426 -0.022336L121.901 12.2627L123.606 13.3073ZM130.279 1.5H137.559V-0.500002H130.279V1.5ZM136.719 -0.0431595L128.319 12.9418L129.998 14.0282L138.398 1.04316L136.719 -0.0431595ZM139.852 25H138.852V26H139.852V25ZM139.852 0.499998V-0.500002H138.852V0.499998H139.852ZM146.677 0.499998H147.677V-0.500002H146.677V0.499998ZM146.677 14.885H145.677V18.0457L147.495 15.4602L146.677 14.885ZM156.792 0.499998V-0.500002H156.272L155.974 -0.0751991L156.792 0.499998ZM163.302 0.499998H164.302V-0.500002H163.302V0.499998ZM163.302 25V26H164.302V25H163.302ZM156.477 25H155.477V26H156.477V25ZM156.477 10.65H157.477V7.48666L155.658 10.0752L156.477 10.65ZM146.397 25V26H146.916L147.215 25.5748L146.397 25ZM140.852 25V0.499998H138.852V25H140.852ZM139.852 1.5H146.677V-0.500002H139.852V1.5ZM145.677 0.499998V14.885H147.677V0.499998H145.677ZM147.495 15.4602L157.61 1.0752L155.974 -0.0751991L145.859 14.3098L147.495 15.4602ZM156.792 1.5H163.302V-0.500002H156.792V1.5ZM162.302 0.499998V25H164.302V0.499998H162.302ZM163.302 24H156.477V26H163.302V24ZM157.477 25V10.65H155.477V25H157.477ZM155.658 10.0752L145.578 24.4252L147.215 25.5748L157.295 11.2248L155.658 10.0752ZM146.397 24H139.852V26H146.397V24Z" fill="#DDDCDC" fill-opacity="0.2"/>
</svg>
