<svg width="188" height="31" viewBox="0 0 188 31" fill="none" xmlns="http://www.w3.org/2000/svg">
<path d="M0.125 26H-0.875V27H0.125V26ZM0.125 1.5V0.499998H-0.875V1.5H0.125ZM17.1 2.585L16.6902 3.49718L16.6951 3.49935L17.1 2.585ZM20.88 5.735L20.0393 6.27649L20.0435 6.28302L20.88 5.735ZM20.88 15.36L20.0435 14.812L20.88 15.36ZM17.1 18.51L17.5098 19.4222L17.5158 19.4195L17.1 18.51ZM3.975 19.595L3.27607 18.8798L1.52099 20.595H3.975V19.595ZM7.055 16.585H8.055V14.2095L6.35607 15.8698L7.055 16.585ZM7.055 26V27H8.055V26H7.055ZM7.055 17.32L6.33614 18.0152L8.055 19.7926V17.32H7.055ZM3.975 14.135V13.135H1.61687L3.25614 14.8302L3.975 14.135ZM14.125 13.19L13.4682 12.4359L13.4621 12.4413L13.456 12.4467L14.125 13.19ZM14.125 7.905L13.456 8.64829L13.4621 8.65374L13.4682 8.65908L14.125 7.905ZM3.975 6.96L3.25614 6.26484L1.61687 7.96H3.975V6.96ZM7.055 3.775H8.055V1.30239L6.33614 3.07984L7.055 3.775ZM1.125 26V1.5H-0.875V26H1.125ZM0.125 2.5H11.325V0.499998H0.125V2.5ZM11.325 2.5C13.4604 2.5 15.2388 2.84509 16.6902 3.49717L17.5098 1.67283C15.7412 0.878242 13.6696 0.499998 11.325 0.499998V2.5ZM16.6951 3.49935C18.1668 4.1511 19.268 5.07888 20.0393 6.27648L21.7207 5.19352C20.7187 3.63779 19.2999 2.46556 17.5049 1.67065L16.6951 3.49935ZM20.0435 6.28302C20.8078 7.4496 21.21 8.86234 21.21 10.565H23.21C23.21 8.53432 22.7255 6.72707 21.7165 5.18697L20.0435 6.28302ZM21.21 10.565C21.21 12.2415 20.8092 13.6434 20.0435 14.812L21.7165 15.908C22.7242 14.37 23.21 12.5751 23.21 10.565H21.21ZM20.0435 14.812C19.2714 15.9906 18.1656 16.9234 16.6842 17.6005L17.5158 19.4195C19.3011 18.6033 20.7153 17.4361 21.7165 15.908L20.0435 14.812ZM16.6902 17.5978C15.2388 18.2499 13.4604 18.595 11.325 18.595V20.595C13.6696 20.595 15.7412 20.2168 17.5098 19.4222L16.6902 17.5978ZM11.325 18.595H3.975V20.595H11.325V18.595ZM4.67393 20.3102L7.75393 17.3002L6.35607 15.8698L3.27607 18.8798L4.67393 20.3102ZM6.055 16.585V26H8.055V16.585H6.055ZM7.055 25H0.125V27H7.055V25ZM7.77386 16.6248L4.69386 13.4398L3.25614 14.8302L6.33614 18.0152L7.77386 16.6248ZM3.975 15.135H10.905V13.135H3.975V15.135ZM10.905 15.135C12.4711 15.135 13.8336 14.7977 14.794 13.9333L13.456 12.4467C13.0164 12.8423 12.2323 13.135 10.905 13.135V15.135ZM14.7818 13.9441C15.7605 13.0916 16.21 11.9206 16.21 10.565H14.21C14.21 11.4494 13.9361 12.0284 13.4682 12.4359L14.7818 13.9441ZM16.21 10.565C16.21 9.1934 15.7652 8.00747 14.7818 7.15092L13.4682 8.65908C13.9314 9.06253 14.21 9.64993 14.21 10.565H16.21ZM14.794 7.16171C13.8336 6.29735 12.4711 5.96 10.905 5.96V7.96C12.2323 7.96 13.0164 8.25265 13.456 8.64829L14.794 7.16171ZM10.905 5.96H3.975V7.96H10.905V5.96ZM4.69386 7.65516L7.77386 4.47016L6.33614 3.07984L3.25614 6.26484L4.69386 7.65516ZM6.055 3.775V17.32H8.055V3.775H6.055ZM32.3064 25.545L31.951 26.4797L32.3064 25.545ZM27.9664 22.885L27.2733 23.6058L27.2804 23.6126L27.2876 23.6193L27.9664 22.885ZM25.1314 18.825L24.2159 19.2273L25.1314 18.825ZM25.1314 8.675L24.2159 8.27273L25.1314 8.675ZM27.9664 4.65L28.6522 5.37779L28.6526 5.37739L27.9664 4.65ZM32.3064 1.955L31.951 1.0203L32.3064 1.955ZM43.1564 1.955L42.7965 2.88801L42.801 2.8897L43.1564 1.955ZM47.4614 4.65L46.7683 5.37087L46.7756 5.37779L47.4614 4.65ZM50.2964 8.675L49.3808 9.0773L49.386 9.0888L50.2964 8.675ZM50.2964 18.86L49.3837 18.4513L49.3809 18.4577L50.2964 18.86ZM47.4614 22.885L48.1472 23.6128L47.4614 22.885ZM43.1564 25.545L42.801 24.6103L42.7965 24.612L43.1564 25.545ZM40.3214 20.26L39.95 19.3315L39.9407 19.3353L40.3214 20.26ZM42.4214 18.86L41.7011 18.1664L41.7006 18.1669L42.4214 18.86ZM43.8214 16.62L42.8947 16.2443L42.8903 16.2552L42.8861 16.2661L43.8214 16.62ZM43.8214 10.88L42.8861 11.2339L42.892 11.2494L42.8983 11.2646L43.8214 10.88ZM42.4214 8.675L41.6876 9.35441L41.7007 9.36851L41.7143 9.3821L42.4214 8.675ZM40.3214 7.24L39.9406 8.16472L39.95 8.16848L40.3214 7.24ZM35.1064 7.24L34.735 6.31148L34.7257 6.31532L35.1064 7.24ZM33.0064 8.675L32.2861 7.98136L32.2856 7.98189L33.0064 8.675ZM31.6064 10.88L30.6797 10.5043L30.677 10.5109L30.6744 10.5176L31.6064 10.88ZM31.6064 16.62L30.6711 16.9739L30.6753 16.9848L30.6797 16.9957L31.6064 16.62ZM33.0064 18.86L32.2726 19.5394L32.2857 19.5535L32.2993 19.5671L33.0064 18.86ZM35.1064 20.26L34.7256 21.1847L34.735 21.1885L35.1064 20.26ZM37.7314 25.49C35.88 25.49 34.1936 25.1928 32.6619 24.6103L31.951 26.4797C33.7326 27.1572 35.6628 27.49 37.7314 27.49V25.49ZM32.6619 24.6103C31.1185 24.0234 29.7831 23.2027 28.6453 22.1507L27.2876 23.6193C28.6231 24.854 30.181 25.8066 31.951 26.4797L32.6619 24.6103ZM28.6595 22.1642C27.5404 21.0881 26.671 19.8429 26.0469 18.4227L24.2159 19.2273C24.9452 20.8871 25.9658 22.3486 27.2733 23.6058L28.6595 22.1642ZM26.0469 18.4227C25.4311 17.0212 25.1164 15.4682 25.1164 13.75H23.1164C23.1164 15.7184 23.4784 17.5488 24.2159 19.2273L26.0469 18.4227ZM25.1164 13.75C25.1164 12.0318 25.4311 10.4788 26.0469 9.07727L24.2159 8.27273C23.4784 9.95123 23.1164 11.7816 23.1164 13.75H25.1164ZM26.0469 9.07727C26.6701 7.65895 27.5374 6.42828 28.6522 5.37779L27.2806 3.92221C25.9687 5.15839 24.946 6.61104 24.2159 8.27273L26.0469 9.07727ZM28.6526 5.37739C29.7897 4.30471 31.1227 3.47502 32.6619 2.8897L31.951 1.0203C30.1768 1.69498 28.6165 2.66196 27.2802 3.92261L28.6526 5.37739ZM32.6619 2.8897C34.1936 2.30721 35.88 2.01 37.7314 2.01V0.00999832C35.6628 0.00999832 33.7326 0.342791 31.951 1.0203L32.6619 2.8897ZM37.7314 2.01C39.6079 2.01 41.2922 2.30777 42.7965 2.888L43.5163 1.022C41.7539 0.342226 39.8216 0.00999832 37.7314 0.00999832V2.01ZM42.801 2.8897C44.3386 3.47443 45.6571 4.30235 46.7683 5.37083L48.1545 3.92917C46.8391 2.66432 45.2875 1.69556 43.5119 1.0203L42.801 2.8897ZM46.7756 5.37779C47.8904 6.42828 48.7577 7.65895 49.3809 9.07727L51.2119 8.27272C50.4818 6.61104 49.4591 5.15839 48.1472 3.92221L46.7756 5.37779ZM49.386 9.0888C50.0218 10.4875 50.3464 12.0365 50.3464 13.75H52.3464C52.3464 11.7769 51.971 9.94245 51.2068 8.2612L49.386 9.0888ZM50.3464 13.75C50.3464 15.4634 50.0219 17.0261 49.3837 18.4513L51.2091 19.2687C51.9709 17.5672 52.3464 15.7233 52.3464 13.75H50.3464ZM49.3809 18.4577C48.7577 19.876 47.8904 21.1067 46.7756 22.1572L48.1472 23.6128C49.4591 22.3766 50.4818 20.924 51.2119 19.2623L49.3809 18.4577ZM46.7756 22.1572C45.6637 23.205 44.3428 24.024 42.801 24.6103L43.5119 26.4797C45.2833 25.806 46.8325 24.8517 48.1472 23.6128L46.7756 22.1572ZM42.7965 24.612C41.2922 25.1922 39.6079 25.49 37.7314 25.49V27.49C39.8216 27.49 41.7539 27.1578 43.5163 26.478L42.7965 24.612ZM37.7314 21.75C38.7838 21.75 39.7778 21.5653 40.7022 21.1847L39.9407 19.3353C39.2783 19.608 38.5457 19.75 37.7314 19.75V21.75ZM40.6928 21.1885C41.6353 20.8115 42.456 20.2668 43.1422 19.5531L41.7006 18.1669C41.2201 18.6666 40.6409 19.0552 39.95 19.3315L40.6928 21.1885ZM43.1417 19.5536C43.8475 18.8208 44.3848 17.9567 44.7567 16.9739L42.8861 16.2661C42.6047 17.0099 42.2087 17.6392 41.7011 18.1664L43.1417 19.5536ZM44.7481 16.9957C45.1523 15.9988 45.3464 14.9125 45.3464 13.75H43.3464C43.3464 14.6875 43.1905 15.5145 42.8947 16.2443L44.7481 16.9957ZM45.3464 13.75C45.3464 12.568 45.1535 11.4771 44.7445 10.4954L42.8983 11.2646C43.1893 11.9629 43.3464 12.7854 43.3464 13.75H45.3464ZM44.7567 10.5261C44.3837 9.54041 43.8429 8.68224 43.1285 7.96789L41.7143 9.3821C42.2133 9.88109 42.6058 10.4929 42.8861 11.2339L44.7567 10.5261ZM43.1552 7.99559C42.4685 7.254 41.6438 6.69191 40.6928 6.31152L39.95 8.16848C40.6324 8.44142 41.2076 8.836 41.6876 9.35441L43.1552 7.99559ZM40.7022 6.31532C39.7778 5.9347 38.7838 5.75 37.7314 5.75V7.75C38.5457 7.75 39.2783 7.89196 39.9407 8.16468L40.7022 6.31532ZM37.7314 5.75C36.6787 5.75 35.6769 5.93477 34.735 6.31152L35.4778 8.16848C36.1693 7.89189 36.9174 7.75 37.7314 7.75V5.75ZM34.7257 6.31532C33.8018 6.69572 32.9868 7.25367 32.2861 7.98136L33.7267 9.36864C34.2393 8.83633 34.8243 8.43761 35.4872 8.16468L34.7257 6.31532ZM32.2856 7.98189C31.6051 8.68962 31.0724 9.53563 30.6797 10.5043L32.5331 11.2557C32.8404 10.4977 33.2411 9.87372 33.7272 9.36811L32.2856 7.98189ZM30.6744 10.5176C30.2951 11.4929 30.1164 12.5758 30.1164 13.75H32.1164C32.1164 12.7775 32.2644 11.9471 32.5384 11.2424L30.6744 10.5176ZM30.1164 13.75C30.1164 14.9044 30.2962 15.983 30.6711 16.9739L32.5417 16.2661C32.2633 15.5303 32.1164 14.6956 32.1164 13.75H30.1164ZM30.6797 16.9957C31.0712 17.9615 31.6004 18.8134 32.2726 19.5394L33.7402 18.1806C33.2457 17.6466 32.8416 17.0051 32.5331 16.2443L30.6797 16.9957ZM32.2993 19.5671C32.9993 20.2671 33.8102 20.8077 34.7257 21.1847L35.4872 19.3353C34.8159 19.0589 34.2268 18.6662 33.7135 18.1529L32.2993 19.5671ZM34.735 21.1885C35.6769 21.5652 36.6787 21.75 37.7314 21.75V19.75C36.9174 19.75 36.1693 19.6081 35.4778 19.3315L34.735 21.1885ZM52.4082 24.11L51.4877 23.7193L51.1205 24.5842L51.9609 25.0044L52.4082 24.11ZM54.4732 19.245L54.9283 18.3546L53.9722 17.8659L53.5527 18.8543L54.4732 19.245ZM57.7632 20.47L57.5253 21.4413L57.7632 20.47ZM63.9932 20.75L64.2045 21.7274L64.2141 21.7253L64.2236 21.7231L63.9932 20.75ZM66.0932 19.805L66.7264 20.579V20.579L66.0932 19.805ZM65.9182 16.55L65.4184 17.4162L65.4379 17.4274L65.4578 17.4378L65.9182 16.55ZM57.2382 16.025H56.2382V17.025H57.2382V16.025ZM57.2382 10.95V9.95H56.2382V10.95H57.2382ZM65.1132 10.39L65.7013 11.1987L65.1132 10.39ZM65.2182 7.45L64.574 8.21491L64.5861 8.22509L64.5985 8.23488L65.2182 7.45ZM63.4332 6.68L63.2195 7.6569L63.2341 7.6601L63.2489 7.66287L63.4332 6.68ZM60.9132 6.505L60.8632 5.50625L60.9132 6.505ZM58.0082 7.03L58.277 7.99319L58.2873 7.99031L58.2976 7.98721L58.0082 7.03ZM55.1032 8.185L54.1721 8.54987L54.5795 9.58937L55.568 9.0704L55.1032 8.185ZM53.0732 3.005L52.631 2.10806L51.8068 2.51435L52.1421 3.36987L53.0732 3.005ZM58.2882 1.325L58.1238 0.338605L58.2882 1.325ZM63.6082 1.115L63.514 2.11055L63.6082 1.115ZM68.2982 2.27L67.9005 3.18765L67.9136 3.19308L68.2982 2.27ZM71.6232 4.615L70.8549 5.25525L70.8639 5.26579L71.6232 4.615ZM69.3832 13.33L68.9517 12.4279V12.4279L69.3832 13.33ZM65.6732 14.1L64.6802 13.9818L64.5471 15.1H65.6732V14.1ZM65.8482 12.63V11.63H64.9602L64.8552 12.5118L65.8482 12.63ZM70.0482 13.47L69.6224 14.3748L69.6291 14.378L70.0482 13.47ZM72.8482 15.78L72.0161 16.3347L72.0238 16.3462L72.0318 16.3575L72.8482 15.78ZM72.9182 22.29L72.0893 21.7305L72.0861 21.7353L72.9182 22.29ZM70.3632 24.6L69.865 23.7329H69.865L70.3632 24.6ZM66.5832 26L66.3747 25.022L66.3653 25.024L66.3559 25.0262L66.5832 26ZM62.0682 26.455L62.0827 25.4551L62.0754 25.455H62.0682V26.455ZM57.1682 25.86L56.9322 26.8318L56.9353 26.8325L57.1682 25.86ZM53.3287 24.5007L55.3937 19.6357L53.5527 18.8543L51.4877 23.7193L53.3287 24.5007ZM54.0181 20.1354C55.137 20.7073 56.3065 21.1428 57.5253 21.4413L58.001 19.4987C56.9331 19.2372 55.9094 18.856 54.9283 18.3546L54.0181 20.1354ZM57.5253 21.4413C58.7264 21.7354 59.8999 21.9093 61.0447 21.9591L61.1316 19.9609C60.1297 19.9174 59.0866 19.7646 58.001 19.4987L57.5253 21.4413ZM61.0447 21.9591C62.1858 22.0087 63.2418 21.9356 64.2045 21.7274L63.7818 19.7726C63.0179 19.9378 62.1372 20.0047 61.1316 19.9609L61.0447 21.9591ZM64.2236 21.7231C65.2058 21.4905 66.0603 21.124 66.7264 20.579L65.4599 19.031C65.0994 19.326 64.5538 19.5895 63.7627 19.7769L64.2236 21.7231ZM66.7264 20.579C67.4773 19.9646 67.8632 19.1296 67.8632 18.16H65.8632C65.8632 18.5438 65.7357 18.8054 65.4599 19.031L66.7264 20.579ZM67.8632 18.16C67.8632 17.6444 67.7534 17.1412 67.4893 16.6913C67.2236 16.2385 66.8367 15.8999 66.3785 15.6622L65.4578 17.4378C65.6296 17.5268 65.7153 17.6198 65.7645 17.7037C65.8154 17.7905 65.8632 17.929 65.8632 18.16H67.8632ZM66.4179 15.6838C65.6075 15.2163 64.6104 15.025 63.5032 15.025V17.025C64.4025 17.025 65.0155 17.1837 65.4184 17.4162L66.4179 15.6838ZM63.5032 15.025H57.2382V17.025H63.5032V15.025ZM58.2382 16.025V10.95H56.2382V16.025H58.2382ZM57.2382 11.95H62.9432V9.95H57.2382V11.95ZM62.9432 11.95C63.9929 11.95 64.9537 11.7425 65.7013 11.1987L64.525 9.58126C64.246 9.78417 63.76 9.95 62.9432 9.95V11.95ZM65.7013 11.1987C66.4711 10.6389 66.8832 9.83778 66.8832 8.885H64.8832C64.8832 9.19221 64.7819 9.39443 64.525 9.58126L65.7013 11.1987ZM66.8832 8.885C66.8832 7.99837 66.5411 7.22036 65.8378 6.66512L64.5985 8.23488C64.7819 8.37964 64.8832 8.55829 64.8832 8.885H66.8832ZM65.8623 6.68509C65.2523 6.17137 64.4825 5.85932 63.6175 5.69713L63.2489 7.66287C63.8772 7.78067 64.2974 7.98196 64.574 8.21491L65.8623 6.68509ZM63.6469 5.7031C62.797 5.51719 61.8662 5.4561 60.8632 5.50625L60.9631 7.50375C61.8268 7.46056 62.576 7.51614 63.2195 7.6569L63.6469 5.7031ZM60.8632 5.50625C59.8395 5.55743 58.7907 5.74873 57.7188 6.07279L58.2976 7.98721C59.2323 7.7046 60.1201 7.5459 60.9631 7.50375L60.8632 5.50625ZM57.7394 6.0668C56.6673 6.36598 55.6333 6.77723 54.6383 7.2996L55.568 9.0704C56.4397 8.61277 57.3423 8.25402 58.277 7.99319L57.7394 6.0668ZM56.0342 7.82013L54.0042 2.64013L52.1421 3.36987L54.1721 8.54987L56.0342 7.82013ZM53.5153 3.90194C55.0844 3.12846 56.7291 2.59863 58.4526 2.31139L58.1238 0.338605C56.2072 0.658032 54.3753 1.2482 52.631 2.10806L53.5153 3.90194ZM58.4526 2.31139C60.1926 2.02139 61.8789 1.95588 63.514 2.11055L63.7023 0.119444C61.8841 -0.0525503 60.0238 0.0219383 58.1238 0.338605L58.4526 2.31139ZM63.514 2.11055C65.1501 2.26532 66.6091 2.62794 67.9006 3.18755L68.6958 1.35244C67.1872 0.698723 65.5195 0.291341 63.7023 0.119443L63.514 2.11055ZM67.9136 3.19308C69.1927 3.72607 70.1593 4.42039 70.8549 5.25518L72.3914 3.97482C71.4537 2.84961 70.2036 1.98059 68.6828 1.34692L67.9136 3.19308ZM70.8639 5.26579C71.5435 6.05861 71.8832 6.98077 71.8832 8.08H73.8832C73.8832 6.51923 73.3829 5.13139 72.3824 3.96421L70.8639 5.26579ZM71.8832 8.08C71.8832 9.0549 71.6237 9.89235 71.116 10.6258L72.7604 11.7642C73.5126 10.6776 73.8832 9.43843 73.8832 8.08H71.8832ZM71.116 10.6258C70.5924 11.382 69.8802 11.9838 68.9517 12.4279L69.8146 14.2321C71.0328 13.6495 72.0239 12.828 72.7604 11.7642L71.116 10.6258ZM68.9517 12.4279C68.0349 12.8664 66.95 13.1 65.6732 13.1V15.1C67.1963 15.1 68.5848 14.8203 69.8146 14.2321L68.9517 12.4279ZM66.6662 14.2182L66.8412 12.7482L64.8552 12.5118L64.6802 13.9818L66.6662 14.2182ZM65.8482 13.63C67.3433 13.63 68.592 13.8899 69.6224 14.3748L70.474 12.5652C69.1243 11.9301 67.5731 11.63 65.8482 11.63V13.63ZM69.6291 14.378C70.6979 14.8712 71.4784 15.5282 72.0161 16.3347L73.6802 15.2253C72.9112 14.0718 71.8251 13.1887 70.4672 12.562L69.6291 14.378ZM72.0318 16.3575C72.5798 17.1323 72.8632 18.0354 72.8632 19.105H74.8632C74.8632 17.6546 74.4698 16.341 73.6646 15.2025L72.0318 16.3575ZM72.8632 19.105C72.8632 20.1076 72.6013 20.9721 72.0893 21.7305L73.747 22.8495C74.4951 21.7413 74.8632 20.4824 74.8632 19.105H72.8632ZM72.0861 21.7353C71.5776 22.4981 70.8487 23.1678 69.865 23.7329L70.8613 25.4671C72.0709 24.7722 73.0454 23.9019 73.7502 22.8447L72.0861 21.7353ZM69.865 23.7329C68.871 24.3039 67.7113 24.7371 66.3747 25.022L66.7916 26.978C68.3017 26.6562 69.662 26.1561 70.8613 25.4671L69.865 23.7329ZM66.3559 25.0262C65.044 25.3323 63.6209 25.4774 62.0827 25.4551L62.0537 27.4549C63.7354 27.4793 65.3224 27.321 66.8104 26.9738L66.3559 25.0262ZM62.0682 25.455C60.541 25.455 58.9858 25.2669 57.401 24.8875L56.9353 26.8325C58.6638 27.2464 60.3753 27.455 62.0682 27.455V25.455ZM57.4042 24.8882C55.8457 24.5098 54.3298 23.9528 52.8554 23.2156L51.9609 25.0044C53.5666 25.8072 55.224 26.4169 56.9322 26.8318L57.4042 24.8882ZM93.0804 26L92.2197 26.5092L92.5101 27H93.0804V26ZM86.1854 14.345L85.6764 13.4842L84.8154 13.9932L85.3247 14.8542L86.1854 14.345ZM91.7504 11.055L92.6036 10.5335L92.0897 9.69271L91.2414 10.1942L91.7504 11.055ZM100.885 26V27H102.669L101.739 25.4785L100.885 26ZM77.4704 26H76.4704V27H77.4704V26ZM77.4704 1.5V0.499998H76.4704V1.5H77.4704ZM84.3653 1.5H85.3653V0.499998H84.3653V1.5ZM84.3653 26V27H85.3653V26H84.3653ZM82.3704 16.62H81.3704V17.62H82.3704V16.62ZM82.3704 11.02V10.02H81.3704V11.02H82.3704ZM91.2604 11.02H92.2604V10.02H91.2604V11.02ZM91.2604 16.62V17.62H92.2604V16.62H91.2604ZM92.4154 14.485L92.3067 15.4791L92.9199 15.5461L93.255 15.0282L92.4154 14.485ZM86.0104 13.785L85.1576 13.2627L84.3337 14.6077L85.9017 14.7791L86.0104 13.785ZM93.5354 1.5V0.499998H92.9752L92.6826 0.977664L93.5354 1.5ZM100.815 1.5L101.655 2.04316L102.653 0.499998H100.815V1.5ZM93.941 25.4908L87.046 13.8358L85.3247 14.8542L92.2197 26.5092L93.941 25.4908ZM86.6943 15.2058L92.2593 11.9158L91.2414 10.1942L85.6764 13.4842L86.6943 15.2058ZM90.8971 11.5765L100.032 26.5215L101.739 25.4785L92.6036 10.5335L90.8971 11.5765ZM100.885 25H93.0804V27H100.885V25ZM78.4704 26V1.5H76.4704V26H78.4704ZM77.4704 2.5H84.3653V0.499998H77.4704V2.5ZM83.3653 1.5V26H85.3653V1.5H83.3653ZM84.3653 25H77.4704V27H84.3653V25ZM83.3704 16.62V11.02H81.3704V16.62H83.3704ZM82.3704 12.02H91.2604V10.02H82.3704V12.02ZM90.2604 11.02V16.62H92.2604V11.02H90.2604ZM91.2604 15.62H82.3704V17.62H91.2604V15.62ZM92.524 13.4909L86.119 12.7909L85.9017 14.7791L92.3067 15.4791L92.524 13.4909ZM86.8631 14.3073L94.3881 2.02233L92.6826 0.977664L85.1576 13.2627L86.8631 14.3073ZM93.5354 2.5H100.815V0.499998H93.5354V2.5ZM99.9757 0.956841L91.5757 13.9418L93.255 15.0282L101.655 2.04316L99.9757 0.956841ZM103.302 26.315L103.167 27.3058L103.173 27.3066L103.302 26.315ZM101.657 26L100.659 25.9323L100.602 26.7752L101.424 26.9724L101.657 26ZM102.042 20.33L102.252 19.3522L101.123 19.1103L101.044 20.2623L102.042 20.33ZM105.157 19.315L105.993 19.8637L106.001 19.8519L105.157 19.315ZM106.172 16.095L105.183 15.9442L105.182 15.9524L105.181 15.9606L106.172 16.095ZM106.557 11.265L105.558 11.2292L105.557 11.2397L106.557 11.265ZM106.907 1.5V0.499998H105.942L105.908 1.46418L106.907 1.5ZM126.647 1.5H127.647V0.499998H126.647V1.5ZM126.647 26V27H127.647V26H126.647ZM119.822 26H118.822V27H119.822V26ZM119.822 5.455L120.537 4.75607L118.822 3.00099V5.455H119.822ZM121.327 6.995V7.995H123.702L122.042 6.29607L121.327 6.995ZM111.422 6.995L110.667 6.33882L109.227 7.995H111.422V6.995ZM112.822 5.385L113.822 5.41623L113.909 2.61076L112.067 4.72882L112.822 5.385ZM112.647 10.985L111.647 10.9538L111.647 10.9556L112.647 10.985ZM112.157 17.425L113.148 17.5596L113.148 17.558L112.157 17.425ZM110.932 22.29L111.854 22.6781L111.856 22.6724L110.932 22.29ZM108.587 25.37L109.168 26.1837L109.172 26.1812L108.587 25.37ZM104.807 25.42C104.39 25.42 103.932 25.3887 103.431 25.3234L103.173 27.3066C103.746 27.3813 104.291 27.42 104.807 27.42V25.42ZM103.437 25.3242C102.961 25.2593 102.446 25.161 101.89 25.0276L101.424 26.9724C102.034 27.119 102.616 27.2307 103.167 27.3058L103.437 25.3242ZM102.655 26.0677L103.04 20.3977L101.044 20.2623L100.659 25.9323L102.655 26.0677ZM101.832 21.3078C102.221 21.3911 102.607 21.435 102.987 21.435V19.435C102.761 19.435 102.516 19.4089 102.252 19.3522L101.832 21.3078ZM102.987 21.435C104.252 21.435 105.303 20.9151 105.993 19.8637L104.321 18.7663C104.031 19.2082 103.635 19.435 102.987 19.435V21.435ZM106.001 19.8519C106.598 18.9131 106.966 17.6815 107.163 16.2294L105.181 15.9606C105.005 17.2618 104.696 18.1769 104.313 18.7781L106.001 19.8519ZM107.161 16.2458C107.379 14.8168 107.509 13.1631 107.557 11.2903L105.557 11.2397C105.511 13.0536 105.385 14.6199 105.183 15.9442L107.161 16.2458ZM107.556 11.3008L107.906 1.53582L105.908 1.46418L105.558 11.2292L107.556 11.3008ZM106.907 2.5H126.647V0.499998H106.907V2.5ZM125.647 1.5V26H127.647V1.5H125.647ZM126.647 25H119.822V27H126.647V25ZM120.822 26V5.455H118.822V26H120.822ZM119.107 6.15393L120.612 7.69393L122.042 6.29607L120.537 4.75607L119.107 6.15393ZM121.327 5.995H111.422V7.995H121.327V5.995ZM112.177 7.65118L113.577 6.04118L112.067 4.72882L110.667 6.33882L112.177 7.65118ZM111.822 5.35376L111.647 10.9538L113.647 11.0162L113.822 5.41623L111.822 5.35376ZM111.647 10.9556C111.578 13.3086 111.417 15.4199 111.166 17.292L113.148 17.558C113.41 15.6035 113.576 13.4214 113.647 11.0144L111.647 10.9556ZM111.166 17.2904C110.918 19.1194 110.527 20.6534 110.008 21.9076L111.856 22.6724C112.457 21.2199 112.883 19.5106 113.148 17.5596L111.166 17.2904ZM110.01 21.9019C109.51 23.0913 108.833 23.9597 108.002 24.5588L109.172 26.1812C110.347 25.3336 111.234 24.1487 111.854 22.6781L110.01 21.9019ZM108.006 24.5563C107.237 25.1052 106.197 25.42 104.807 25.42V27.42C106.497 27.42 107.977 27.0348 109.168 26.1837L108.006 24.5563ZM129.438 26L128.523 25.5962L127.903 27H129.438V26ZM140.253 1.5V0.499998H139.601L139.338 1.09616L140.253 1.5ZM147.078 1.5L147.992 1.09507L147.729 0.499998H147.078V1.5ZM157.928 26V27H159.464L158.842 25.5951L157.928 26ZM150.718 26L149.79 26.3725L150.042 27H150.718V26ZM142.248 4.895V3.895H140.769L141.32 5.26745L142.248 4.895ZM144.978 4.895L145.906 5.26745L146.457 3.895H144.978V4.895ZM136.508 26V27H137.184L137.436 26.3725L136.508 26ZM135.353 21.24L134.409 20.9102L133.944 22.24H135.353V21.24ZM137.138 16.13V15.13H136.428L136.194 15.8002L137.138 16.13ZM149.108 16.13L150.052 15.8002L149.818 15.13H149.108V16.13ZM150.893 21.24V22.24H152.301L151.837 20.9102L150.893 21.24ZM130.353 26.4038L141.168 1.90383L139.338 1.09616L128.523 25.5962L130.353 26.4038ZM140.253 2.5H147.078V0.499998H140.253V2.5ZM146.163 1.90492L157.013 26.4049L158.842 25.5951L147.992 1.09507L146.163 1.90492ZM157.928 25H150.718V27H157.928V25ZM151.646 25.6275L143.176 4.52255L141.32 5.26745L149.79 26.3725L151.646 25.6275ZM142.248 5.895H144.978V3.895H142.248V5.895ZM144.05 4.52255L135.58 25.6275L137.436 26.3725L145.906 5.26745L144.05 4.52255ZM136.508 25H129.438V27H136.508V25ZM136.297 21.5698L138.082 16.4598L136.194 15.8002L134.409 20.9102L136.297 21.5698ZM137.138 17.13H149.108V15.13H137.138V17.13ZM148.164 16.4598L149.949 21.5698L151.837 20.9102L150.052 15.8002L148.164 16.4598ZM150.893 20.24H135.353V22.24H150.893V20.24ZM177.145 22.99H176.145V23.99H177.145V22.99ZM177.145 6.995H178.145V5.995H177.145V6.995ZM170.11 6.995V5.995H169.148L169.11 6.95555L170.11 6.995ZM170.005 9.655L169.005 9.61555L169.005 9.62223L170.005 9.655ZM169.725 13.645L168.731 13.5325L168.73 13.5418L168.729 13.5511L169.725 13.645ZM169.2 17.04L168.224 16.8184L168.222 16.829L168.22 16.8396L169.2 17.04ZM168.325 19.7L167.43 19.2527L167.424 19.2644L168.325 19.7ZM167.03 21.38L166.912 22.3731L167.318 22.4211L167.641 22.1713L167.03 21.38ZM159.645 20.505L159.673 19.5054L159.527 21.4981L159.645 20.505ZM161.64 19.7L160.904 19.0229L160.902 19.0243L161.64 19.7ZM162.9 17.285L161.947 16.9818L161.944 16.9917L161.941 17.0017L162.9 17.285ZM163.6 13.645L162.606 13.5291L162.605 13.5373L162.605 13.5455L163.6 13.645ZM163.95 9.06L164.949 9.10221L164.949 9.09701L163.95 9.06ZM164.23 1.5V0.499998H163.266L163.23 1.46299L164.23 1.5ZM183.97 1.5H184.97V0.499998H183.97V1.5ZM183.97 22.99V23.99H184.97V22.99H183.97ZM158.91 30.935H157.91V31.935H158.91V30.935ZM158.91 20.505V19.505H157.91V20.505H158.91ZM187.295 20.505H188.295V19.505H187.295V20.505ZM187.295 30.935V31.935H188.295V30.935H187.295ZM180.96 30.935H179.96V31.935H180.96V30.935ZM180.96 26H181.96V25H180.96V26ZM165.28 26V25H164.28V26H165.28ZM165.28 30.935V31.935H166.28V30.935H165.28ZM178.145 22.99V6.995H176.145V22.99H178.145ZM177.145 5.995H170.11V7.995H177.145V5.995ZM169.11 6.95555L169.005 9.61556L171.004 9.69444L171.109 7.03444L169.11 6.95555ZM169.005 9.62223C168.959 11.0226 168.868 12.3258 168.731 13.5325L170.718 13.7575C170.862 12.4909 170.957 11.134 171.004 9.68777L169.005 9.62223ZM168.729 13.5511C168.616 14.7522 168.447 15.8405 168.224 16.8184L170.175 17.2616C170.419 16.1862 170.6 15.0111 170.72 13.7389L168.729 13.5511ZM168.22 16.8396C168.023 17.8014 167.756 18.6012 167.43 19.2528L169.219 20.1472C169.64 19.3054 169.956 18.332 170.179 17.2404L168.22 16.8396ZM167.424 19.2644C167.126 19.881 166.783 20.3066 166.418 20.5887L167.641 22.1713C168.303 21.6601 168.823 20.9656 169.225 20.1356L167.424 19.2644ZM167.147 20.3869L159.762 19.5119L159.527 21.4981L166.912 22.3731L167.147 20.3869ZM159.616 21.5046C160.698 21.5355 161.651 21.1673 162.377 20.3757L160.902 19.0243C160.601 19.3527 160.224 19.5212 159.673 19.5054L159.616 21.5046ZM162.376 20.3771C163.045 19.649 163.526 18.6927 163.859 17.5683L161.941 17.0017C161.666 17.9306 161.307 18.5844 160.904 19.0229L162.376 20.3771ZM163.853 17.5882C164.206 16.4787 164.45 15.194 164.595 13.7445L162.605 13.5455C162.47 14.896 162.247 16.0379 161.947 16.9818L163.853 17.5882ZM164.593 13.7609C164.76 12.3326 164.878 10.7793 164.949 9.10221L162.951 9.01778C162.881 10.654 162.766 12.1574 162.606 13.5291L164.593 13.7609ZM164.949 9.09701L165.229 1.53701L163.23 1.46299L162.95 9.02299L164.949 9.09701ZM164.23 2.5H183.97V0.499998H164.23V2.5ZM182.97 1.5V22.99H184.97V1.5H182.97ZM183.97 21.99H177.145V23.99H183.97V21.99ZM159.91 30.935V20.505H157.91V30.935H159.91ZM158.91 21.505H187.295V19.505H158.91V21.505ZM186.295 20.505V30.935H188.295V20.505H186.295ZM187.295 29.935H180.96V31.935H187.295V29.935ZM181.96 30.935V26H179.96V30.935H181.96ZM180.96 25H165.28V27H180.96V25ZM164.28 26V30.935H166.28V26H164.28ZM165.28 29.935H158.91V31.935H165.28V29.935Z" fill="#DDDCDC" fill-opacity="0.2"/>
</svg>
