<svg width="400" height="28" viewBox="0 0 400 28" fill="none" xmlns="http://www.w3.org/2000/svg">
<path d="M0.665 25.11L-0.25551 24.7193L-0.62264 25.5842L0.217786 26.0044L0.665 25.11ZM2.73 20.245L3.18511 19.3546L2.22902 18.8659L1.80949 19.8543L2.73 20.245ZM6.02 21.47L5.78213 22.4413L6.02 21.47ZM12.25 21.75L12.4613 22.7274L12.4709 22.7253L12.4805 22.7231L12.25 21.75ZM14.35 20.805L14.9832 21.579L14.9832 21.579L14.35 20.805ZM14.175 17.55L13.6753 18.4162L13.6947 18.4274L13.7147 18.4378L14.175 17.55ZM5.495 17.025H4.495V18.025H5.495V17.025ZM5.495 11.95V10.95H4.495V11.95H5.495ZM13.37 11.39L13.9582 12.1987L13.37 11.39ZM13.475 8.45L12.8309 9.21491L12.843 9.22509L12.8554 9.23488L13.475 8.45ZM11.69 7.68L11.4763 8.6569L11.491 8.6601L11.5057 8.66287L11.69 7.68ZM9.17 7.505L9.12006 6.50625H9.12006L9.17 7.505ZM6.265 8.03L6.5338 8.99319L6.54413 8.99031L6.55439 8.98721L6.265 8.03ZM3.36 9.185L2.42894 9.54987L2.83631 10.5894L3.82483 10.0704L3.36 9.185ZM1.33 4.005L0.887847 3.10806L0.0636686 3.51435L0.398943 4.36987L1.33 4.005ZM6.545 2.325L6.3806 1.3386L6.545 2.325ZM11.865 2.115L11.7708 3.11055L11.865 2.115ZM16.555 3.27L16.1574 4.18765L16.1704 4.19308L16.555 3.27ZM19.88 5.615L19.1117 6.25525L19.1207 6.26579L19.88 5.615ZM17.64 14.33L17.2085 13.4279L17.2085 13.4279L17.64 14.33ZM13.93 15.1L12.937 14.9818L12.8039 16.1H13.93V15.1ZM14.105 13.63V12.63H13.217L13.112 13.5118L14.105 13.63ZM18.305 14.47L17.8792 15.3748L17.8859 15.378L18.305 14.47ZM21.105 16.78L20.273 17.3347L20.2806 17.3462L20.2886 17.3575L21.105 16.78ZM21.175 23.29L20.3461 22.7305L20.343 22.7353L21.175 23.29ZM18.62 25.6L18.1219 24.7329L18.62 25.6ZM14.84 27L14.6316 26.022L14.6221 26.024L14.6128 26.0262L14.84 27ZM10.325 27.455L10.3395 26.4551L10.3322 26.455H10.325V27.455ZM5.425 26.86L5.189 27.8318L5.19215 27.8325L5.425 26.86ZM1.58551 25.5007L3.65051 20.6357L1.80949 19.8543L-0.25551 24.7193L1.58551 25.5007ZM2.27489 21.1354C3.3938 21.7073 4.56336 22.1428 5.78213 22.4413L6.25787 20.4987C5.18997 20.2372 4.1662 19.856 3.18511 19.3546L2.27489 21.1354ZM5.78213 22.4413C6.98321 22.7354 8.15677 22.9093 9.30156 22.9591L9.38844 20.9609C8.38656 20.9174 7.34346 20.7646 6.25787 20.4987L5.78213 22.4413ZM9.30156 22.9591C10.4427 23.0087 11.4986 22.9356 12.4613 22.7274L12.0387 20.7726C11.2747 20.9378 10.394 21.0047 9.38844 20.9609L9.30156 22.9591ZM12.4805 22.7231C13.4626 22.4905 14.3171 22.124 14.9832 21.579L13.7168 20.031C13.3562 20.326 12.8107 20.5895 12.0195 20.7769L12.4805 22.7231ZM14.9832 21.579C15.7341 20.9646 16.12 20.1296 16.12 19.16H14.12C14.12 19.5438 13.9926 19.8054 13.7168 20.031L14.9832 21.579ZM16.12 19.16C16.12 18.6444 16.0102 18.1412 15.7462 17.6913C15.4804 17.2385 15.0936 16.8999 14.6353 16.6622L13.7147 18.4378C13.8864 18.5268 13.9721 18.6198 14.0213 18.7037C14.0723 18.7905 14.12 18.929 14.12 19.16H16.12ZM14.6747 16.6838C13.8643 16.2163 12.8673 16.025 11.76 16.025V18.025C12.6594 18.025 13.2724 18.1837 13.6753 18.4162L14.6747 16.6838ZM11.76 16.025H5.495V18.025H11.76V16.025ZM6.495 17.025V11.95H4.495V17.025H6.495ZM5.495 12.95H11.2V10.95H5.495V12.95ZM11.2 12.95C12.2498 12.95 13.2105 12.7425 13.9582 12.1987L12.7818 10.5813C12.5028 10.7842 12.0169 10.95 11.2 10.95V12.95ZM13.9582 12.1987C14.7279 11.6389 15.14 10.8378 15.14 9.885H13.14C13.14 10.1922 13.0387 10.3944 12.7818 10.5813L13.9582 12.1987ZM15.14 9.885C15.14 8.99837 14.7979 8.22036 14.0946 7.66512L12.8554 9.23488C13.0387 9.37964 13.14 9.55829 13.14 9.885H15.14ZM14.1191 7.68509C13.5091 7.17137 12.7393 6.85932 11.8743 6.69713L11.5057 8.66287C12.134 8.78067 12.5542 8.98196 12.8309 9.21491L14.1191 7.68509ZM11.9037 6.7031C11.0538 6.51719 10.123 6.4561 9.12006 6.50625L9.21994 8.50375C10.0837 8.46056 10.8328 8.51614 11.4763 8.6569L11.9037 6.7031ZM9.12006 6.50625C8.09637 6.55743 7.04749 6.74873 5.97561 7.07279L6.55439 8.98721C7.48918 8.7046 8.37696 8.5459 9.21994 8.50375L9.12006 6.50625ZM5.9962 7.0668C4.92415 7.36598 3.89017 7.77723 2.89517 8.2996L3.82483 10.0704C4.6965 9.61277 5.59918 9.25402 6.5338 8.99319L5.9962 7.0668ZM4.29106 8.82013L2.26106 3.64013L0.398943 4.36987L2.42894 9.54987L4.29106 8.82013ZM1.77215 4.90194C3.3412 4.12846 4.98596 3.59863 6.7094 3.31139L6.3806 1.3386C4.46404 1.65803 2.63213 2.2482 0.887847 3.10806L1.77215 4.90194ZM6.7094 3.31139C8.4494 3.02139 10.1357 2.95588 11.7708 3.11055L11.9592 1.11944C10.141 0.94745 8.2806 1.02194 6.3806 1.3386L6.7094 3.31139ZM11.7708 3.11055C13.407 3.26532 14.866 3.62794 16.1574 4.18755L16.9526 2.35244C15.444 1.69872 13.7764 1.29134 11.9592 1.11944L11.7708 3.11055ZM16.1704 4.19308C17.4496 4.72607 18.4161 5.42039 19.1118 6.25518L20.6482 4.97482C19.7106 3.84961 18.4604 2.98059 16.9396 2.34692L16.1704 4.19308ZM19.1207 6.26579C19.8003 7.05861 20.14 7.98077 20.14 9.08H22.14C22.14 7.51923 21.6397 6.13139 20.6393 4.96421L19.1207 6.26579ZM20.14 9.08C20.14 10.0549 19.8806 10.8923 19.3728 11.6258L21.0172 12.7642C21.7694 11.6776 22.14 10.4384 22.14 9.08H20.14ZM19.3728 11.6258C18.8493 12.382 18.137 12.9838 17.2085 13.4279L18.0715 15.2321C19.2896 14.6495 20.2807 13.828 21.0172 12.7642L19.3728 11.6258ZM17.2085 13.4279C16.2917 13.8664 15.2069 14.1 13.93 14.1V16.1C15.4531 16.1 16.8416 15.8203 18.0715 15.2321L17.2085 13.4279ZM14.923 15.2182L15.098 13.7482L13.112 13.5118L12.937 14.9818L14.923 15.2182ZM14.105 14.63C15.6001 14.63 16.8488 14.8899 17.8792 15.3748L18.7308 13.5652C17.3812 12.9301 15.8299 12.63 14.105 12.63V14.63ZM17.8859 15.378C18.9547 15.8712 19.7353 16.5282 20.273 17.3347L21.9371 16.2253C21.1681 15.0718 20.0819 14.1887 18.7241 13.562L17.8859 15.378ZM20.2886 17.3575C20.8367 18.1323 21.12 19.0354 21.12 20.105H23.12C23.12 18.6546 22.7267 17.341 21.9214 16.2025L20.2886 17.3575ZM21.12 20.105C21.12 21.1076 20.8581 21.9721 20.3462 22.7305L22.0038 23.8495C22.7519 22.7413 23.12 21.4824 23.12 20.105H21.12ZM20.343 22.7353C19.8344 23.4981 19.1056 24.1678 18.1219 24.7329L19.1181 26.4671C20.3278 25.7722 21.3022 24.9019 22.0071 23.8447L20.343 22.7353ZM18.1219 24.7329C17.1278 25.3039 15.9682 25.7371 14.6316 26.022L15.0484 27.978C16.5585 27.6562 17.9188 27.1561 19.1181 26.4671L18.1219 24.7329ZM14.6128 26.0262C13.3008 26.3323 11.8777 26.4774 10.3395 26.4551L10.3105 28.4549C11.9923 28.4793 13.5792 28.321 15.0672 27.9738L14.6128 26.0262ZM10.325 26.455C8.79784 26.455 7.24266 26.2669 5.65786 25.8875L5.19215 27.8325C6.92067 28.2464 8.63216 28.455 10.325 28.455V26.455ZM5.661 25.8882C4.10252 25.5098 2.58659 24.9528 1.11221 24.2156L0.217786 26.0044C1.82341 26.8072 3.48081 27.4169 5.189 27.8318L5.661 25.8882ZM25.8672 27H24.8672V28H25.8672V27ZM25.8672 2.5V1.5H24.8672V2.5H25.8672ZM44.5922 4.18L44.0211 5.00091L44.0279 5.00562L44.0348 5.01022L44.5922 4.18ZM44.7672 13.56L45.3613 14.3645L45.3692 14.3585L44.7672 13.56ZM38.6772 15.24L37.757 14.8484L37.1649 16.24H38.6772V15.24ZM39.3772 13.595V12.595H38.7159L38.457 13.2034L39.3772 13.595ZM45.8172 15.24L45.2371 16.0546L45.2441 16.0595L45.2512 16.0644L45.8172 15.24ZM45.6422 25.11L45.0422 24.31L45.0368 24.3141L45.6422 25.11ZM32.6922 22.03H31.6922V23.03H32.6922V22.03ZM40.3922 21.4L41.043 22.1593L41.0458 22.1568L40.3922 21.4ZM40.3922 17.62L39.7414 18.3793L39.7607 18.3958L39.7807 18.4113L40.3922 17.62ZM32.6922 16.99V15.99H31.6922V16.99H32.6922ZM32.6922 12.3H31.6922V13.3H32.6922V12.3ZM39.3072 11.705L39.9364 12.4822L39.9473 12.4734L39.958 12.4643L39.3072 11.705ZM39.3072 8.1L38.6564 8.85926L38.6671 8.8684L38.678 8.87724L39.3072 8.1ZM32.6922 7.47V6.47H31.6922V7.47H32.6922ZM26.8672 27V2.5H24.8672V27H26.8672ZM25.8672 3.5H37.7672V1.5H25.8672V3.5ZM37.7672 3.5C40.5991 3.5 42.6433 4.0424 44.0211 5.00091L45.1633 3.35909C43.3211 2.07759 40.8153 1.5 37.7672 1.5V3.5ZM44.0348 5.01022C45.3811 5.91418 46.0422 7.16047 46.0422 8.87H48.0422C48.0422 6.51953 47.07 4.63916 45.1496 3.34978L44.0348 5.01022ZM46.0422 8.87C46.0422 10.5557 45.4186 11.8167 44.1652 12.7615L45.3692 14.3585C47.1492 13.0167 48.0422 11.151 48.0422 8.87H46.0422ZM44.1731 12.7556C42.8796 13.7108 41.0804 14.24 38.6772 14.24V16.24C41.3607 16.24 43.6215 15.6492 45.3612 14.3644L44.1731 12.7556ZM39.5973 15.6316L40.2973 13.9866L38.457 13.2034L37.757 14.8484L39.5973 15.6316ZM39.3772 14.595C42.0133 14.595 43.9278 15.1222 45.2371 16.0546L46.3973 14.4254C44.6266 13.1645 42.2478 12.595 39.3772 12.595V14.595ZM45.2512 16.0644C46.5104 16.9289 47.1622 18.1881 47.1622 20H49.1622C49.1622 17.6119 48.2507 15.6977 46.3832 14.4156L45.2512 16.0644ZM47.1622 20C47.1622 21.8401 46.4639 23.2437 45.0422 24.31L46.2422 25.91C48.1805 24.4563 49.1622 22.4532 49.1622 20H47.1622ZM45.0368 24.3141C43.6233 25.3891 41.47 26 38.4322 26V28C41.6943 28 44.3478 27.3509 46.2476 25.9059L45.0368 24.3141ZM38.4322 26H25.8672V28H38.4322V26ZM32.6922 23.03H38.1522V21.03H32.6922V23.03ZM38.1522 23.03C39.2681 23.03 40.2947 22.8006 41.043 22.1593L39.7414 20.6407C39.5097 20.8393 39.043 21.03 38.1522 21.03V23.03ZM41.0458 22.1568C41.8303 21.4793 42.1622 20.5304 42.1622 19.475H40.1622C40.1622 20.0996 39.9808 20.434 39.7386 20.6432L41.0458 22.1568ZM42.1622 19.475C42.1622 18.4248 41.8313 17.4683 41.0036 16.8287L39.7807 18.4113C39.9798 18.5651 40.1622 18.8452 40.1622 19.475H42.1622ZM41.043 16.8607C40.2947 16.2193 39.2681 15.99 38.1522 15.99V17.99C39.043 17.99 39.5097 18.1807 39.7414 18.3793L41.043 16.8607ZM38.1522 15.99H32.6922V17.99H38.1522V15.99ZM31.6922 16.99V22.03H33.6922V16.99H31.6922ZM32.6922 13.3H37.1022V11.3H32.6922V13.3ZM37.1022 13.3C38.1911 13.3 39.1932 13.0838 39.9364 12.4822L38.678 10.9278C38.4411 11.1195 37.9733 11.3 37.1022 11.3V13.3ZM39.958 12.4643C40.7196 11.8115 41.0422 10.8974 41.0422 9.885H39.0422C39.0422 10.4593 38.8748 10.7585 38.6564 10.9457L39.958 12.4643ZM41.0422 9.885C41.0422 8.87503 40.7199 7.95705 39.9364 7.32275L38.678 8.87724C38.8744 9.03628 39.0422 9.3083 39.0422 9.885H41.0422ZM39.958 7.34074C39.2132 6.70235 38.2018 6.47 37.1022 6.47V8.47C37.9625 8.47 38.4212 8.65764 38.6564 8.85926L39.958 7.34074ZM37.1022 6.47H32.6922V8.47H37.1022V6.47ZM31.6922 7.47V12.3H33.6922V7.47H31.6922ZM50.4479 13.77L49.487 13.4928L49.1186 14.77H50.4479V13.77ZM53.0729 4.67L54.043 4.42746L53.1418 0.822835L52.112 4.39284L53.0729 4.67ZM54.0179 8.45V9.45H55.2986L54.988 8.20746L54.0179 8.45ZM51.1479 7.435L50.4639 8.16454L50.4701 8.17031L50.4763 8.17599L51.1479 7.435ZM51.1479 1.8L51.8318 2.52954L51.8325 2.52885L51.1479 1.8ZM56.8529 1.8L56.1571 2.51824L56.1629 2.52394L56.1689 2.52954L56.8529 1.8ZM57.9029 5.65L58.8928 5.79143L58.8941 5.78216L57.9029 5.65ZM57.5879 6.84L56.644 6.50965L56.6389 6.52418L56.6343 6.53887L57.5879 6.84ZM56.8529 8.66L55.9424 8.24616L55.937 8.25852L56.8529 8.66ZM54.6129 13.77V14.77H55.2664L55.5287 14.1715L54.6129 13.77ZM51.4087 14.0472L54.0337 4.94716L52.112 4.39284L49.487 13.4928L51.4087 14.0472ZM52.1027 4.91254L53.0477 8.69253L54.988 8.20746L54.043 4.42746L52.1027 4.91254ZM54.0179 7.45C53.0576 7.45 52.3533 7.17792 51.8194 6.69401L50.4763 8.17599C51.4357 9.04541 52.6447 9.45 54.0179 9.45V7.45ZM51.8318 6.70546C51.3158 6.22173 51.0279 5.56774 51.0279 4.635H49.0279C49.0279 6.03559 49.4866 7.24827 50.4639 8.16454L51.8318 6.70546ZM51.0279 4.635C51.0279 3.67229 51.32 3.00933 51.8318 2.52954L50.4639 1.07046C49.4824 1.99066 49.0279 3.2177 49.0279 4.635H51.0279ZM51.8325 2.52885C52.4011 1.99475 53.1061 1.715 54.0179 1.715V-0.285002C52.643 -0.285002 51.4346 0.158579 50.4632 1.07115L51.8325 2.52885ZM54.0179 1.715C54.9298 1.715 55.6163 1.99442 56.1571 2.51824L57.5486 1.08176C56.596 0.158909 55.3926 -0.285002 54.0179 -0.285002V1.715ZM56.1689 2.52954C56.6807 3.00933 56.9729 3.67229 56.9729 4.635H58.9729C58.9729 3.2177 58.5183 1.99066 57.5368 1.07046L56.1689 2.52954ZM56.9729 4.635C56.9729 4.91408 56.9529 5.20816 56.9116 5.51784L58.8941 5.78216C58.9461 5.39184 58.9729 5.00925 58.9729 4.635H56.9729ZM56.9129 5.50858C56.8787 5.74766 56.7953 6.07722 56.644 6.50965L58.5317 7.17035C58.707 6.66945 58.8336 6.20568 58.8928 5.79142L56.9129 5.50858ZM56.6343 6.53887C56.5124 6.92469 56.2869 7.48839 55.9425 8.24619L57.7632 9.0738C58.1188 8.29161 58.3833 7.64198 58.5414 7.14113L56.6343 6.53887ZM55.937 8.25852L53.697 13.3685L55.5287 14.1715L57.7687 9.06148L55.937 8.25852ZM54.6129 12.77H50.4479V14.77H54.6129V12.77ZM75.3383 27H74.3383V28H75.3383V27ZM75.3383 19.405L75.9957 18.6514L74.3383 17.2056V19.405H75.3383ZM76.9833 20.84V21.84H79.6509L77.6407 20.0864L76.9833 20.84ZM65.1183 19.755L65.5331 18.8451L65.1183 19.755ZM61.4433 16.64L60.5936 17.1674L60.6003 17.1778L61.4433 16.64ZM61.5133 6.84L60.6749 6.29501L60.6726 6.29852L61.5133 6.84ZM65.3283 3.62L64.9174 2.7083L64.9126 2.71052L65.3283 3.62ZM82.1633 2.5H83.1633V1.5H82.1633V2.5ZM82.1633 27V28H83.1633V27H82.1633ZM60.2533 27L59.4309 26.4311L58.3457 28H60.2533V27ZM66.3783 18.145V17.145H65.8541L65.5559 17.5761L66.3783 18.145ZM73.3433 18.145L74.1794 18.6936L75.1955 17.145H73.3433V18.145ZM67.5333 27V28H68.0732L68.3694 27.5486L67.5333 27ZM75.3383 17.2H74.3383V19.6872L76.06 17.8922L75.3383 17.2ZM75.3383 6.245L76.06 5.55277L74.3383 3.75783V6.245H75.3383ZM76.9833 7.96V8.96H79.3282L77.705 7.26777L76.9833 7.96ZM68.1983 8.905L68.8659 9.64957L68.8673 9.64829L68.1983 8.905ZM68.1983 14.54L67.5037 15.2594L67.5163 15.2716L67.5294 15.2833L68.1983 14.54ZM76.9833 15.485L77.705 16.1772L79.3282 14.485H76.9833V15.485ZM76.3383 27V19.405H74.3383V27H76.3383ZM74.681 20.1586L76.326 21.5936L77.6407 20.0864L75.9957 18.6514L74.681 20.1586ZM76.9833 19.84H70.7883V21.84H76.9833V19.84ZM70.7883 19.84C68.7024 19.84 66.9605 19.4958 65.5331 18.8451L64.7035 20.6649C66.4494 21.4608 68.4876 21.84 70.7883 21.84V19.84ZM65.5331 18.8451C64.1063 18.1946 63.0369 17.2787 62.2864 16.1022L60.6003 17.1778C61.5764 18.708 62.957 19.8687 64.7035 20.6649L65.5331 18.8451ZM62.293 16.1126C61.5671 14.9432 61.1833 13.5228 61.1833 11.81H59.1833C59.1833 13.8305 59.6396 15.6302 60.5937 17.1674L62.293 16.1126ZM61.1833 11.81C61.1833 10.0297 61.5891 8.56913 62.354 7.38148L60.6726 6.29852C59.6642 7.8642 59.1833 9.71693 59.1833 11.81H61.1833ZM62.3518 7.38499C63.1505 6.15623 64.2698 5.20344 65.7441 4.52947L64.9126 2.71052C63.1202 3.52989 61.6962 4.72377 60.6749 6.29501L62.3518 7.38499ZM65.7392 4.53168C67.2416 3.85456 69.0329 3.5 71.1383 3.5V1.5C68.8104 1.5 66.7284 1.8921 64.9174 2.70832L65.7392 4.53168ZM71.1383 3.5H82.1633V1.5H71.1383V3.5ZM81.1633 2.5V27H83.1633V2.5H81.1633ZM82.1633 26H75.3383V28H82.1633V26ZM61.0757 27.5689L67.2007 18.7139L65.5559 17.5761L59.4309 26.4311L61.0757 27.5689ZM66.3783 19.145H73.3433V17.145H66.3783V19.145ZM72.5072 17.5964L66.6972 26.4514L68.3694 27.5486L74.1794 18.6936L72.5072 17.5964ZM67.5333 26H60.2533V28H67.5333V26ZM76.3383 17.2V6.245H74.3383V17.2H76.3383ZM74.6166 6.93722L76.2616 8.65222L77.705 7.26777L76.06 5.55277L74.6166 6.93722ZM76.9833 6.96H71.2783V8.96H76.9833V6.96ZM71.2783 6.96C69.7848 6.96 68.4793 7.30673 67.5294 8.16171L68.8673 9.64829C69.3173 9.24327 70.0652 8.96 71.2783 8.96V6.96ZM67.5308 8.16043C66.5705 9.02139 66.1833 10.2747 66.1833 11.705H68.1833C68.1833 10.6153 68.4728 10.0019 68.8659 9.64957L67.5308 8.16043ZM66.1833 11.705C66.1833 13.1238 66.5759 14.3636 67.5037 15.2594L68.8929 13.8206C68.4674 13.4098 68.1833 12.7595 68.1833 11.705H66.1833ZM67.5294 15.2833C68.4736 16.1331 69.7506 16.485 71.2083 16.485V14.485C70.0527 14.485 69.323 14.2069 68.8673 13.7967L67.5294 15.2833ZM71.2083 16.485H76.9833V14.485H71.2083V16.485ZM76.2616 14.7928L74.6166 16.5078L76.06 17.8922L77.705 16.1772L76.2616 14.7928ZM85.4648 25.11L84.5443 24.7193L84.1772 25.5842L85.0176 26.0044L85.4648 25.11ZM87.5298 20.245L87.9849 19.3546L87.0288 18.8659L86.6093 19.8543L87.5298 20.245ZM90.8198 21.47L90.5819 22.4413L90.8198 21.47ZM97.0498 21.75L97.2611 22.7274L97.2707 22.7253L97.2803 22.7231L97.0498 21.75ZM99.1498 20.805L99.783 21.579V21.579L99.1498 20.805ZM98.9748 17.55L98.4751 18.4162L98.4945 18.4274L98.5145 18.4378L98.9748 17.55ZM90.2948 17.025H89.2948V18.025H90.2948V17.025ZM90.2948 11.95V10.95H89.2948V11.95H90.2948ZM98.1698 11.39L98.758 12.1987L98.1698 11.39ZM98.2748 8.45L97.6307 9.21491L97.6428 9.22509L97.6552 9.23488L98.2748 8.45ZM96.4898 7.68L96.2761 8.6569L96.2908 8.6601L96.3055 8.66287L96.4898 7.68ZM93.9698 7.505L93.9199 6.50625L93.9698 7.505ZM91.0648 8.03L91.3336 8.99319L91.3439 8.99031L91.3542 8.98721L91.0648 8.03ZM88.1598 9.185L87.2287 9.54987L87.6361 10.5894L88.6246 10.0704L88.1598 9.185ZM86.1298 4.005L85.6877 3.10806L84.8635 3.51435L85.1987 4.36987L86.1298 4.005ZM91.3448 2.325L91.1804 1.3386L91.3448 2.325ZM96.6648 2.115L96.5706 3.11055L96.6648 2.115ZM101.355 3.27L100.957 4.18765L100.97 4.19308L101.355 3.27ZM104.68 5.615L103.912 6.25525L103.921 6.26579L104.68 5.615ZM102.44 14.33L102.008 13.4279V13.4279L102.44 14.33ZM98.7298 15.1L97.7368 14.9818L97.6037 16.1H98.7298V15.1ZM98.9048 13.63V12.63H98.0168L97.9118 13.5118L98.9048 13.63ZM103.105 14.47L102.679 15.3748L102.686 15.378L103.105 14.47ZM105.905 16.78L105.073 17.3347L105.08 17.3462L105.088 17.3575L105.905 16.78ZM105.975 23.29L105.146 22.7305L105.143 22.7353L105.975 23.29ZM103.42 25.6L102.922 24.7329H102.922L103.42 25.6ZM99.6398 27L99.4314 26.022L99.422 26.024L99.4126 26.0262L99.6398 27ZM95.1248 27.455L95.1393 26.4551L95.132 26.455H95.1248V27.455ZM90.2248 26.86L89.9888 27.8318L89.992 27.8325L90.2248 26.86ZM86.3853 25.5007L88.4503 20.6357L86.6093 19.8543L84.5443 24.7193L86.3853 25.5007ZM87.0747 21.1354C88.1936 21.7073 89.3632 22.1428 90.5819 22.4413L91.0577 20.4987C89.9898 20.2372 88.966 19.856 87.9849 19.3546L87.0747 21.1354ZM90.5819 22.4413C91.783 22.7354 92.9566 22.9093 94.1014 22.9591L94.1882 20.9609C93.1864 20.9174 92.1433 20.7646 91.0577 20.4987L90.5819 22.4413ZM94.1014 22.9591C95.2425 23.0087 96.2984 22.9356 97.2611 22.7274L96.8385 20.7726C96.0745 20.9378 95.1938 21.0047 94.1882 20.9609L94.1014 22.9591ZM97.2803 22.7231C98.2625 22.4905 99.1169 22.124 99.783 21.579L98.5166 20.031C98.156 20.326 97.6105 20.5895 96.8193 20.7769L97.2803 22.7231ZM99.783 21.579C100.534 20.9646 100.92 20.1296 100.92 19.16H98.9198C98.9198 19.5438 98.7924 19.8054 98.5166 20.031L99.783 21.579ZM100.92 19.16C100.92 18.6444 100.81 18.1412 100.546 17.6913C100.28 17.2385 99.8934 16.8999 99.4351 16.6622L98.5145 18.4378C98.6862 18.5268 98.7719 18.6198 98.8211 18.7037C98.8721 18.7905 98.9198 18.929 98.9198 19.16H100.92ZM99.4745 16.6838C98.6641 16.2163 97.6671 16.025 96.5598 16.025V18.025C97.4592 18.025 98.0722 18.1837 98.4751 18.4162L99.4745 16.6838ZM96.5598 16.025H90.2948V18.025H96.5598V16.025ZM91.2948 17.025V11.95H89.2948V17.025H91.2948ZM90.2948 12.95H95.9998V10.95H90.2948V12.95ZM95.9998 12.95C97.0496 12.95 98.0103 12.7425 98.758 12.1987L97.5816 10.5813C97.3026 10.7842 96.8167 10.95 95.9998 10.95V12.95ZM98.758 12.1987C99.5277 11.6389 99.9398 10.8378 99.9398 9.885H97.9398C97.9398 10.1922 97.8385 10.3944 97.5816 10.5813L98.758 12.1987ZM99.9398 9.885C99.9398 8.99837 99.5978 8.22036 98.8944 7.66512L97.6552 9.23488C97.8385 9.37964 97.9398 9.55829 97.9398 9.885H99.9398ZM98.9189 7.68509C98.3089 7.17137 97.5391 6.85932 96.6741 6.69713L96.3055 8.66287C96.9338 8.78067 97.354 8.98196 97.6307 9.21491L98.9189 7.68509ZM96.7035 6.7031C95.8536 6.51719 94.9228 6.4561 93.9199 6.50625L94.0197 8.50375C94.8835 8.46056 95.6327 8.51614 96.2761 8.6569L96.7035 6.7031ZM93.9199 6.50625C92.8962 6.55743 91.8473 6.74873 90.7754 7.07279L91.3542 8.98721C92.289 8.7046 93.1768 8.5459 94.0197 8.50375L93.9199 6.50625ZM90.796 7.0668C89.724 7.36598 88.69 7.77723 87.695 8.2996L88.6246 10.0704C89.4963 9.61277 90.399 9.25402 91.3336 8.99319L90.796 7.0668ZM89.0909 8.82013L87.0609 3.64013L85.1987 4.36987L87.2287 9.54987L89.0909 8.82013ZM86.572 4.90194C88.141 4.12846 89.7858 3.59863 91.5092 3.31139L91.1804 1.3386C89.2638 1.65803 87.4319 2.2482 85.6877 3.10806L86.572 4.90194ZM91.5092 3.31139C93.2492 3.02139 94.9355 2.95588 96.5706 3.11055L96.759 1.11944C94.9408 0.94745 93.0804 1.02194 91.1804 1.3386L91.5092 3.31139ZM96.5706 3.11055C98.2068 3.26532 99.6658 3.62794 100.957 4.18755L101.752 2.35244C100.244 1.69872 98.5762 1.29134 96.759 1.11944L96.5706 3.11055ZM100.97 4.19308C102.249 4.72607 103.216 5.42039 103.912 6.25518L105.448 4.97482C104.51 3.84961 103.26 2.98059 101.739 2.34692L100.97 4.19308ZM103.921 6.26579C104.6 7.05861 104.94 7.98077 104.94 9.08H106.94C106.94 7.51923 106.439 6.13139 105.439 4.96421L103.921 6.26579ZM104.94 9.08C104.94 10.0549 104.68 10.8923 104.173 11.6258L105.817 12.7642C106.569 11.6776 106.94 10.4384 106.94 9.08H104.94ZM104.173 11.6258C103.649 12.382 102.937 12.9838 102.008 13.4279L102.871 15.2321C104.089 14.6495 105.081 13.828 105.817 12.7642L104.173 11.6258ZM102.008 13.4279C101.092 13.8664 100.007 14.1 98.7298 14.1V16.1C100.253 16.1 101.641 15.8203 102.871 15.2321L102.008 13.4279ZM99.7228 15.2182L99.8978 13.7482L97.9118 13.5118L97.7368 14.9818L99.7228 15.2182ZM98.9048 14.63C100.4 14.63 101.649 14.8899 102.679 15.3748L103.531 13.5652C102.181 12.9301 100.63 12.63 98.9048 12.63V14.63ZM102.686 15.378C103.755 15.8712 104.535 16.5282 105.073 17.3347L106.737 16.2253C105.968 15.0718 104.882 14.1887 103.524 13.562L102.686 15.378ZM105.088 17.3575C105.636 18.1323 105.92 19.0354 105.92 20.105H107.92C107.92 18.6546 107.526 17.341 106.721 16.2025L105.088 17.3575ZM105.92 20.105C105.92 21.1076 105.658 21.9721 105.146 22.7305L106.804 23.8495C107.552 22.7413 107.92 21.4824 107.92 20.105H105.92ZM105.143 22.7353C104.634 23.4981 103.905 24.1678 102.922 24.7329L103.918 26.4671C105.128 25.7722 106.102 24.9019 106.807 23.8447L105.143 22.7353ZM102.922 24.7329C101.928 25.3039 100.768 25.7371 99.4314 26.022L99.8482 27.978C101.358 27.6562 102.719 27.1561 103.918 26.4671L102.922 24.7329ZM99.4126 26.0262C98.1006 26.3323 96.6775 26.4774 95.1393 26.4551L95.1103 28.4549C96.7921 28.4793 98.379 28.321 99.867 27.9738L99.4126 26.0262ZM95.1248 26.455C93.5976 26.455 92.0425 26.2669 90.4577 25.8875L89.992 27.8325C91.7205 28.2464 93.432 28.455 95.1248 28.455V26.455ZM90.4608 25.8882C88.9023 25.5098 87.3864 24.9528 85.912 24.2156L85.0176 26.0044C86.6232 26.8072 88.2806 27.4169 89.9888 27.8318L90.4608 25.8882ZM108.217 27L107.302 26.5962L106.682 28H108.217V27ZM119.032 2.5V1.5H118.38L118.117 2.09616L119.032 2.5ZM125.857 2.5L126.771 2.09507L126.508 1.5H125.857V2.5ZM136.707 27V28H138.244L137.621 26.5951L136.707 27ZM129.497 27L128.569 27.3725L128.821 28H129.497V27ZM121.027 5.895V4.895H119.548L120.099 6.26745L121.027 5.895ZM123.757 5.895L124.685 6.26745L125.236 4.895H123.757V5.895ZM115.287 27V28H115.963L116.215 27.3725L115.287 27ZM114.132 22.24L113.188 21.9102L112.723 23.24H114.132V22.24ZM115.917 17.13V16.13H115.207L114.973 16.8002L115.917 17.13ZM127.887 17.13L128.831 16.8002L128.597 16.13H127.887V17.13ZM129.672 22.24V23.24H131.081L130.616 21.9102L129.672 22.24ZM109.132 27.4038L119.947 2.90383L118.117 2.09616L107.302 26.5962L109.132 27.4038ZM119.032 3.5H125.857V1.5H119.032V3.5ZM124.943 2.90492L135.793 27.4049L137.621 26.5951L126.771 2.09507L124.943 2.90492ZM136.707 26H129.497V28H136.707V26ZM130.425 26.6275L121.955 5.52255L120.099 6.26745L128.569 27.3725L130.425 26.6275ZM121.027 6.895H123.757V4.895H121.027V6.895ZM122.829 5.52255L114.359 26.6275L116.215 27.3725L124.685 6.26745L122.829 5.52255ZM115.287 26H108.217V28H115.287V26ZM115.076 22.5698L116.861 17.4598L114.973 16.8002L113.188 21.9102L115.076 22.5698ZM115.917 18.13H127.887V16.13H115.917V18.13ZM126.943 17.4598L128.728 22.5698L130.616 21.9102L128.831 16.8002L126.943 17.4598ZM129.672 21.24H114.132V23.24H129.672V21.24ZM143.709 27H142.709V28H143.709V27ZM143.709 6.455L144.416 5.74789L142.709 4.04079V6.455H143.709ZM145.249 7.995V8.995H147.663L145.956 7.28789L145.249 7.995ZM136.184 7.995H135.184V8.995H136.184V7.995ZM136.184 2.5V1.5H135.184V2.5H136.184ZM158.024 2.5H159.024V1.5H158.024V2.5ZM158.024 7.995V8.995H159.024V7.995H158.024ZM148.994 7.995L148.287 7.28789L146.58 8.995H148.994V7.995ZM150.534 6.455H151.534V4.04079L149.827 5.74789L150.534 6.455ZM150.534 27V28H151.534V27H150.534ZM144.709 27V6.455H142.709V27H144.709ZM143.002 7.16211L144.542 8.70211L145.956 7.28789L144.416 5.74789L143.002 7.16211ZM145.249 6.995H136.184V8.995H145.249V6.995ZM137.184 7.995V2.5H135.184V7.995H137.184ZM136.184 3.5H158.024V1.5H136.184V3.5ZM157.024 2.5V7.995H159.024V2.5H157.024ZM158.024 6.995H148.994V8.995H158.024V6.995ZM149.701 8.70211L151.241 7.16211L149.827 5.74789L148.287 7.28789L149.701 8.70211ZM149.534 6.455V27H151.534V6.455H149.534ZM150.534 26H143.709V28H150.534V26ZM161.219 27H160.219V28H161.219V27ZM161.219 2.5V1.5H160.219V2.5H161.219ZM168.044 2.5H169.044V1.5H168.044V2.5ZM168.044 16.885H167.044V20.0457L168.862 17.4602L168.044 16.885ZM178.159 2.5V1.5H177.639L177.341 1.9248L178.159 2.5ZM184.669 2.5H185.669V1.5H184.669V2.5ZM184.669 27V28H185.669V27H184.669ZM177.844 27H176.844V28H177.844V27ZM177.844 12.65H178.844V9.48666L177.025 12.0752L177.844 12.65ZM167.764 27V28H168.283L168.582 27.5748L167.764 27ZM162.219 27V2.5H160.219V27H162.219ZM161.219 3.5H168.044V1.5H161.219V3.5ZM167.044 2.5V16.885H169.044V2.5H167.044ZM168.862 17.4602L178.977 3.0752L177.341 1.9248L167.226 16.3098L168.862 17.4602ZM178.159 3.5H184.669V1.5H178.159V3.5ZM183.669 2.5V27H185.669V2.5H183.669ZM184.669 26H177.844V28H184.669V26ZM178.844 27V12.65H176.844V27H178.844ZM177.025 12.0752L166.945 26.4252L168.582 27.5748L178.662 13.2248L177.025 12.0752ZM167.764 26H161.219V28H167.764V26ZM196.475 26.58L196.115 27.513L196.123 27.5161L196.131 27.519L196.475 26.58ZM192.205 23.92L191.512 24.6411L191.519 24.6478L192.205 23.92ZM189.405 19.895L188.487 20.2922L188.489 20.2973L189.405 19.895ZM189.405 9.64L190.32 10.0423L190.322 10.0372L189.405 9.64ZM192.205 5.58L191.519 4.85217L191.512 4.85889L192.205 5.58ZM196.475 2.955L196.823 3.89245L196.83 3.8897L196.475 2.955ZM207.92 3.2L207.511 4.11283L207.516 4.11479L207.92 3.2ZM212.4 6.63L213.071 7.37154L213.767 6.74136L213.182 6.0068L212.4 6.63ZM207.99 10.62L207.228 11.2676L207.896 12.0535L208.661 11.3615L207.99 10.62ZM205.365 8.485L204.9 9.37044L204.909 9.37504L205.365 8.485ZM199.45 8.24L199.087 7.30799L199.45 8.24ZM197.28 9.675L196.559 8.98136L196.559 8.98189L197.28 9.675ZM195.88 11.88L194.953 11.5043L194.949 11.5152L194.944 11.5261L195.88 11.88ZM195.88 17.62L194.944 17.9739L194.949 17.9848L194.953 17.9957L195.88 17.62ZM197.28 19.86L196.546 20.5394L196.559 20.5535L196.573 20.5671L197.28 19.86ZM199.45 21.26L199.087 22.192L199.45 21.26ZM205.365 21.015L204.909 20.1249L204.9 20.1296L205.365 21.015ZM207.99 18.88L208.661 18.1385L207.896 17.4465L207.228 18.2324L207.99 18.88ZM212.4 22.87L213.177 23.4992L213.772 22.7635L213.071 22.1285L212.4 22.87ZM207.92 26.3L208.328 27.2128L208.333 27.2104L207.92 26.3ZM201.865 26.49C200.034 26.49 198.355 26.2036 196.819 25.641L196.131 27.519C197.908 28.1698 199.822 28.49 201.865 28.49V26.49ZM196.835 25.647C195.316 25.0613 194.005 24.2423 192.89 23.1922L191.519 24.6478C192.831 25.8844 194.367 26.8387 196.115 27.513L196.835 25.647ZM192.898 23.1989C191.804 22.148 190.945 20.9153 190.32 19.4927L188.489 20.2973C189.217 21.9547 190.226 23.4053 191.512 24.6411L192.898 23.1989ZM190.322 19.4978C189.705 18.0714 189.39 16.4932 189.39 14.75H187.39C187.39 16.7401 187.751 18.5919 188.487 20.2922L190.322 19.4978ZM189.39 14.75C189.39 13.0066 189.705 11.4422 190.32 10.0423L188.489 9.23773C187.751 10.9178 187.39 12.7601 187.39 14.75H189.39ZM190.322 10.0372C190.948 8.59169 191.806 7.34949 192.898 6.3011L191.512 4.85889C190.223 6.09718 189.215 7.56164 188.487 9.24278L190.322 10.0372ZM192.89 6.30779C194.002 5.26034 195.309 4.45465 196.823 3.89242L196.126 2.01757C194.374 2.66869 192.834 3.61299 191.519 4.85221L192.89 6.30779ZM196.83 3.8897C198.363 3.3067 200.038 3.01 201.865 3.01V1.01C199.818 1.01 197.9 1.34329 196.119 2.0203L196.83 3.8897ZM201.865 3.01C204.01 3.01 205.886 3.38567 207.511 4.11282L208.328 2.28718C206.407 1.42766 204.246 1.01 201.865 1.01V3.01ZM207.516 4.11479C209.169 4.84482 210.531 5.88986 211.618 7.2532L213.182 6.0068C211.888 4.38347 210.264 3.14185 208.324 2.28521L207.516 4.11479ZM211.729 5.88846L207.319 9.87846L208.661 11.3615L213.071 7.37154L211.729 5.88846ZM208.752 9.97235C207.885 8.95279 206.909 8.15265 205.821 7.59496L204.909 9.37504C205.733 9.79735 206.508 10.4205 207.228 11.2676L208.752 9.97235ZM205.83 7.5996C204.738 7.02656 203.526 6.75 202.215 6.75V8.75C203.237 8.75 204.125 8.96344 204.9 9.3704L205.83 7.5996ZM202.215 6.75C201.101 6.75 200.055 6.93158 199.087 7.30799L199.812 9.172C200.524 8.89509 201.321 8.75 202.215 8.75V6.75ZM199.087 7.30799C198.116 7.68558 197.27 8.24367 196.559 8.98136L198 10.3686C198.503 9.84633 199.103 9.44776 199.812 9.172L199.087 7.30799ZM196.559 8.98189C195.878 9.68962 195.346 10.5356 194.953 11.5043L196.806 12.2557C197.114 11.4977 197.514 10.8737 198.001 10.3681L196.559 8.98189ZM194.944 11.5261C194.569 12.517 194.39 13.5956 194.39 14.75H196.39C196.39 13.8044 196.537 12.9697 196.815 12.2339L194.944 11.5261ZM194.39 14.75C194.39 15.9044 194.569 16.983 194.944 17.9739L196.815 17.2661C196.537 16.5303 196.39 15.6956 196.39 14.75H194.39ZM194.953 17.9957C195.345 18.9615 195.874 19.8134 196.546 20.5394L198.013 19.1806C197.519 18.6466 197.115 18.0051 196.806 17.2443L194.953 17.9957ZM196.573 20.5671C197.282 21.2768 198.125 21.8177 199.087 22.192L199.812 20.328C199.095 20.049 198.49 19.6566 197.987 19.1529L196.573 20.5671ZM199.087 22.192C200.055 22.5684 201.101 22.75 202.215 22.75V20.75C201.321 20.75 200.524 20.6049 199.812 20.328L199.087 22.192ZM202.215 22.75C203.526 22.75 204.738 22.4734 205.83 21.9004L204.9 20.1296C204.125 20.5366 203.237 20.75 202.215 20.75V22.75ZM205.821 21.905C206.909 21.3474 207.885 20.5472 208.752 19.5276L207.228 18.2324C206.508 19.0795 205.733 19.7026 204.909 20.125L205.821 21.905ZM207.319 19.6215L211.729 23.6115L213.071 22.1285L208.661 18.1385L207.319 19.6215ZM211.622 22.2408C210.534 23.5848 209.168 24.6343 207.506 25.3896L208.333 27.2104C210.265 26.3323 211.885 25.0952 213.177 23.4992L211.622 22.2408ZM207.511 25.3872C205.886 26.1143 204.01 26.49 201.865 26.49V28.49C204.246 28.49 206.407 28.0723 208.328 27.2128L207.511 25.3872ZM234.955 12.3L234.324 13.0755L234.329 13.0798L234.955 12.3ZM215.53 27H214.53V28H215.53V27ZM215.53 2.5V1.5H214.53V2.5H215.53ZM222.355 2.5H223.355V1.5H222.355V2.5ZM222.355 10.305H221.355V11.305H222.355V10.305ZM229.425 21.085L228.756 20.3417L228.75 20.3474L228.744 20.3531L229.425 21.085ZM229.425 15.975L228.839 16.7849L228.854 16.7963L228.871 16.807L229.425 15.975ZM222.355 15.24V14.24H221.355V15.24H222.355ZM222.355 22.03H221.355V23.03H222.355V22.03ZM228.025 11.305C230.876 11.305 232.93 11.9408 234.324 13.0754L235.587 11.5246C233.713 9.99922 231.148 9.305 228.025 9.305V11.305ZM234.329 13.0798C235.691 14.1731 236.44 15.8445 236.44 18.285H238.44C238.44 15.4055 237.533 13.0868 235.581 11.5202L234.329 13.0798ZM236.44 18.285C236.44 20.9239 235.605 22.7743 234.052 24.0132L235.299 25.5768C237.432 23.8757 238.44 21.3861 238.44 18.285H236.44ZM234.052 24.0132C232.439 25.2989 230.166 26 227.115 26V28C230.458 28 233.224 27.2311 235.299 25.5768L234.052 24.0132ZM227.115 26H215.53V28H227.115V26ZM216.53 27V2.5H214.53V27H216.53ZM215.53 3.5H222.355V1.5H215.53V3.5ZM221.355 2.5V10.305H223.355V2.5H221.355ZM222.355 11.305H228.025V9.305H222.355V11.305ZM226.66 23.03C228.011 23.03 229.2 22.6611 230.107 21.8169L228.744 20.3531C228.297 20.7689 227.643 21.03 226.66 21.03V23.03ZM230.094 21.8283C231.049 20.9687 231.475 19.786 231.475 18.425H229.475C229.475 19.3507 229.201 19.9413 228.756 20.3417L230.094 21.8283ZM231.475 18.425C231.475 17.0652 231.058 15.8617 229.98 15.1429L228.871 16.807C229.192 17.0216 229.475 17.4515 229.475 18.425H231.475ZM230.012 15.1651C229.109 14.5111 227.956 14.24 226.66 14.24V16.24C227.698 16.24 228.388 16.4589 228.839 16.7849L230.012 15.1651ZM226.66 14.24H222.355V16.24H226.66V14.24ZM221.355 15.24V22.03H223.355V15.24H221.355ZM222.355 23.03H226.66V21.03H222.355V23.03ZM249.151 25.11L248.231 24.7193L247.864 25.5842L248.704 26.0044L249.151 25.11ZM251.216 20.245L251.671 19.3546L250.715 18.8659L250.296 19.8543L251.216 20.245ZM254.506 21.47L254.268 22.4413L254.506 21.47ZM260.736 21.75L260.948 22.7274L260.957 22.7253L260.967 22.7231L260.736 21.75ZM262.836 20.805L263.47 21.579V21.579L262.836 20.805ZM262.661 17.55L262.162 18.4162L262.181 18.4274L262.201 18.4378L262.661 17.55ZM253.981 17.025H252.981V18.025H253.981V17.025ZM253.981 11.95V10.95H252.981V11.95H253.981ZM261.856 11.39L262.444 12.1987L261.856 11.39ZM261.961 8.45L261.317 9.21491L261.329 9.22509L261.342 9.23488L261.961 8.45ZM260.176 7.68L259.963 8.6569L259.977 8.6601L259.992 8.66287L260.176 7.68ZM257.656 7.505L257.606 6.50625L257.656 7.505ZM254.751 8.03L255.02 8.99319L255.03 8.99031L255.041 8.98721L254.751 8.03ZM251.846 9.185L250.915 9.54987L251.323 10.5894L252.311 10.0704L251.846 9.185ZM249.816 4.005L249.374 3.10806L248.55 3.51435L248.885 4.36987L249.816 4.005ZM255.031 2.325L254.867 1.3386L255.031 2.325ZM260.351 2.115L260.257 3.11055L260.351 2.115ZM265.041 3.27L264.644 4.18765L264.657 4.19308L265.041 3.27ZM268.366 5.615L267.598 6.25525L267.607 6.26579L268.366 5.615ZM266.126 14.33L265.695 13.4279V13.4279L266.126 14.33ZM262.416 15.1L261.423 14.9818L261.29 16.1H262.416V15.1ZM262.591 13.63V12.63H261.703L261.598 13.5118L262.591 13.63ZM266.791 14.47L266.366 15.3748L266.372 15.378L266.791 14.47ZM269.591 16.78L268.759 17.3347L268.767 17.3462L268.775 17.3575L269.591 16.78ZM269.661 23.29L268.832 22.7305L268.829 22.7353L269.661 23.29ZM267.106 25.6L266.608 24.7329L267.106 25.6ZM263.326 27L263.118 26.022L263.108 26.024L263.099 26.0262L263.326 27ZM258.811 27.455L258.826 26.4551L258.819 26.455H258.811V27.455ZM253.911 26.86L253.675 27.8318L253.678 27.8325L253.911 26.86ZM250.072 25.5007L252.137 20.6357L250.296 19.8543L248.231 24.7193L250.072 25.5007ZM250.761 21.1354C251.88 21.7073 253.05 22.1428 254.268 22.4413L254.744 20.4987C253.676 20.2372 252.653 19.856 251.671 19.3546L250.761 21.1354ZM254.268 22.4413C255.47 22.7354 256.643 22.9093 257.788 22.9591L257.875 20.9609C256.873 20.9174 255.83 20.7646 254.744 20.4987L254.268 22.4413ZM257.788 22.9591C258.929 23.0087 259.985 22.9356 260.948 22.7274L260.525 20.7726C259.761 20.9378 258.88 21.0047 257.875 20.9609L257.788 22.9591ZM260.967 22.7231C261.949 22.4905 262.803 22.124 263.47 21.579L262.203 20.031C261.843 20.326 261.297 20.5895 260.506 20.7769L260.967 22.7231ZM263.47 21.579C264.22 20.9646 264.606 20.1296 264.606 19.16H262.606C262.606 19.5438 262.479 19.8054 262.203 20.031L263.47 21.579ZM264.606 19.16C264.606 18.6444 264.497 18.1412 264.232 17.6913C263.967 17.2385 263.58 16.8999 263.122 16.6622L262.201 18.4378C262.373 18.5268 262.458 18.6198 262.508 18.7037C262.559 18.7905 262.606 18.929 262.606 19.16H264.606ZM263.161 16.6838C262.351 16.2163 261.354 16.025 260.246 16.025V18.025C261.146 18.025 261.759 18.1837 262.162 18.4162L263.161 16.6838ZM260.246 16.025H253.981V18.025H260.246V16.025ZM254.981 17.025V11.95H252.981V17.025H254.981ZM253.981 12.95H259.686V10.95H253.981V12.95ZM259.686 12.95C260.736 12.95 261.697 12.7425 262.444 12.1987L261.268 10.5813C260.989 10.7842 260.503 10.95 259.686 10.95V12.95ZM262.444 12.1987C263.214 11.6389 263.626 10.8378 263.626 9.885H261.626C261.626 10.1922 261.525 10.3944 261.268 10.5813L262.444 12.1987ZM263.626 9.885C263.626 8.99837 263.284 8.22036 262.581 7.66512L261.342 9.23488C261.525 9.37964 261.626 9.55829 261.626 9.885H263.626ZM262.605 7.68509C261.995 7.17137 261.226 6.85932 260.361 6.69713L259.992 8.66287C260.62 8.78067 261.041 8.98196 261.317 9.21491L262.605 7.68509ZM260.39 6.7031C259.54 6.51719 258.609 6.4561 257.606 6.50625L257.706 8.50375C258.57 8.46056 259.319 8.51614 259.963 8.6569L260.39 6.7031ZM257.606 6.50625C256.583 6.55743 255.534 6.74873 254.462 7.07279L255.041 8.98721C255.976 8.7046 256.863 8.5459 257.706 8.50375L257.606 6.50625ZM254.483 7.0668C253.41 7.36598 252.376 7.77723 251.382 8.2996L252.311 10.0704C253.183 9.61277 254.086 9.25402 255.02 8.99319L254.483 7.0668ZM252.777 8.82013L250.747 3.64013L248.885 4.36987L250.915 9.54987L252.777 8.82013ZM250.258 4.90194C251.828 4.12846 253.472 3.59863 255.196 3.31139L254.867 1.3386C252.95 1.65803 251.118 2.2482 249.374 3.10806L250.258 4.90194ZM255.196 3.31139C256.936 3.02139 258.622 2.95588 260.257 3.11055L260.445 1.11944C258.627 0.94745 256.767 1.02194 254.867 1.3386L255.196 3.31139ZM260.257 3.11055C261.893 3.26532 263.352 3.62794 264.644 4.18755L265.439 2.35244C263.93 1.69872 262.263 1.29134 260.445 1.11944L260.257 3.11055ZM264.657 4.19308C265.936 4.72607 266.902 5.42039 267.598 6.25518L269.135 4.97482C268.197 3.84961 266.947 2.98059 265.426 2.34692L264.657 4.19308ZM267.607 6.26579C268.287 7.05861 268.626 7.98077 268.626 9.08H270.626C270.626 7.51923 270.126 6.13139 269.126 4.96421L267.607 6.26579ZM268.626 9.08C268.626 10.0549 268.367 10.8923 267.859 11.6258L269.504 12.7642C270.256 11.6776 270.626 10.4384 270.626 9.08H268.626ZM267.859 11.6258C267.336 12.382 266.623 12.9838 265.695 13.4279L266.558 15.2321C267.776 14.6495 268.767 13.828 269.504 12.7642L267.859 11.6258ZM265.695 13.4279C264.778 13.8664 263.693 14.1 262.416 14.1V16.1C263.939 16.1 265.328 15.8203 266.558 15.2321L265.695 13.4279ZM263.409 15.2182L263.584 13.7482L261.598 13.5118L261.423 14.9818L263.409 15.2182ZM262.591 14.63C264.086 14.63 265.335 14.8899 266.366 15.3748L267.217 13.5652C265.867 12.9301 264.316 12.63 262.591 12.63V14.63ZM266.372 15.378C267.441 15.8712 268.222 16.5282 268.759 17.3347L270.423 16.2253C269.654 15.0718 268.568 14.1887 267.21 13.562L266.372 15.378ZM268.775 17.3575C269.323 18.1323 269.606 19.0354 269.606 20.105H271.606C271.606 18.6546 271.213 17.341 270.408 16.2025L268.775 17.3575ZM269.606 20.105C269.606 21.1076 269.344 21.9721 268.832 22.7305L270.49 23.8495C271.238 22.7413 271.606 21.4824 271.606 20.105H269.606ZM268.829 22.7353C268.321 23.4981 267.592 24.1678 266.608 24.7329L267.604 26.4671C268.814 25.7722 269.789 24.9019 270.493 23.8447L268.829 22.7353ZM266.608 24.7329C265.614 25.3039 264.454 25.7371 263.118 26.022L263.535 27.978C265.045 27.6562 266.405 27.1561 267.604 26.4671L266.608 24.7329ZM263.099 26.0262C261.787 26.3323 260.364 26.4774 258.826 26.4551L258.797 28.4549C260.479 28.4793 262.066 28.321 263.554 27.9738L263.099 26.0262ZM258.811 26.455C257.284 26.455 255.729 26.2669 254.144 25.8875L253.678 27.8325C255.407 28.2464 257.118 28.455 258.811 28.455V26.455ZM254.147 25.8882C252.589 25.5098 251.073 24.9528 249.599 24.2156L248.704 26.0044C250.31 26.8072 251.967 27.4169 253.675 27.8318L254.147 25.8882ZM300.919 2.5V1.5H299.919V2.5H300.919ZM307.849 2.5H308.849V1.5H307.849V2.5ZM307.849 27V28H308.849V27H307.849ZM300.919 27H299.919V28H300.919V27ZM291.469 27V28H292.469V27H291.469ZM284.539 27H283.539V28H284.539V27ZM284.539 2.5V1.5H283.539V2.5H284.539ZM291.469 2.5H292.469V1.5H291.469V2.5ZM301.409 17.445V18.445H302.409V17.445H301.409ZM290.979 17.445H289.979V18.445H290.979V17.445ZM290.979 11.705V10.705H289.979V11.705H290.979ZM301.409 11.705H302.409V10.705H301.409V11.705ZM300.919 3.5H307.849V1.5H300.919V3.5ZM306.849 2.5V27H308.849V2.5H306.849ZM307.849 26H300.919V28H307.849V26ZM301.919 27V2.5H299.919V27H301.919ZM291.469 26H284.539V28H291.469V26ZM285.539 27V2.5H283.539V27H285.539ZM284.539 3.5H291.469V1.5H284.539V3.5ZM290.469 2.5V27H292.469V2.5H290.469ZM301.409 16.445H290.979V18.445H301.409V16.445ZM291.979 17.445V11.705H289.979V17.445H291.979ZM290.979 12.705H301.409V10.705H290.979V12.705ZM300.409 11.705V17.445H302.409V11.705H300.409ZM310.663 27L309.748 26.5962L309.129 28H310.663V27ZM321.478 2.5V1.5H320.827L320.563 2.09616L321.478 2.5ZM328.303 2.5L329.218 2.09507L328.954 1.5H328.303V2.5ZM339.153 27V28H340.69L340.068 26.5951L339.153 27ZM331.943 27L331.015 27.3725L331.267 28H331.943V27ZM323.473 5.895V4.895H321.994L322.545 6.26745L323.473 5.895ZM326.203 5.895L327.131 6.26745L327.682 4.895H326.203V5.895ZM317.733 27V28H318.409L318.661 27.3725L317.733 27ZM316.578 22.24L315.634 21.9102L315.17 23.24H316.578V22.24ZM318.363 17.13V16.13H317.653L317.419 16.8002L318.363 17.13ZM330.333 17.13L331.277 16.8002L331.043 16.13H330.333V17.13ZM332.118 22.24V23.24H333.527L333.062 21.9102L332.118 22.24ZM311.578 27.4038L322.393 2.90383L320.563 2.09616L309.748 26.5962L311.578 27.4038ZM321.478 3.5H328.303V1.5H321.478V3.5ZM327.389 2.90492L338.239 27.4049L340.068 26.5951L329.218 2.09507L327.389 2.90492ZM339.153 26H331.943V28H339.153V26ZM332.871 26.6275L324.401 5.52255L322.545 6.26745L331.015 27.3725L332.871 26.6275ZM323.473 6.895H326.203V4.895H323.473V6.895ZM325.275 5.52255L316.805 26.6275L318.661 27.3725L327.131 6.26745L325.275 5.52255ZM317.733 26H310.663V28H317.733V26ZM317.522 22.5698L319.307 17.4598L317.419 16.8002L315.634 21.9102L317.522 22.5698ZM318.363 18.13H330.333V16.13H318.363V18.13ZM329.389 17.4598L331.174 22.5698L333.062 21.9102L331.277 16.8002L329.389 17.4598ZM332.118 21.24H316.578V23.24H332.118V21.24ZM341.961 27H340.961V28H341.961V27ZM341.961 2.5V1.5H340.961V2.5H341.961ZM347.666 2.5L348.521 1.98102L348.229 1.5H347.666V2.5ZM357.781 19.16V20.16H359.558L358.636 18.641L357.781 19.16ZM354.771 19.16L353.911 18.649L353.013 20.16H354.771V19.16ZM364.676 2.5V1.5H364.107L363.816 1.98896L364.676 2.5ZM370.381 2.5L371.381 2.49714L371.378 1.5H370.381V2.5ZM370.451 27V28H371.454L371.451 26.9971L370.451 27ZM364.046 27L363.046 27.0024L363.048 28H364.046V27ZM364.011 12.195V11.195H363.009L363.011 12.1974L364.011 12.195ZM365.096 12.195L365.955 12.707L366.856 11.195H365.096V12.195ZM357.711 24.585V25.585H358.279L358.57 25.097L357.711 24.585ZM354.631 24.585L353.778 25.1076L354.071 25.585H354.631V24.585ZM347.036 12.195V11.195H345.25L346.183 12.7176L347.036 12.195ZM348.331 12.195H349.331V11.195H348.331V12.195ZM348.331 27V28H349.331V27H348.331ZM342.961 27V2.5H340.961V27H342.961ZM341.961 3.5H347.666V1.5H341.961V3.5ZM346.811 3.01898L356.926 19.679L358.636 18.641L348.521 1.98102L346.811 3.01898ZM357.781 18.16H354.771V20.16H357.781V18.16ZM355.63 19.671L365.535 3.01104L363.816 1.98896L353.911 18.649L355.63 19.671ZM364.676 3.5H370.381V1.5H364.676V3.5ZM369.381 2.50286L369.451 27.0029L371.451 26.9971L371.381 2.49714L369.381 2.50286ZM370.451 26H364.046V28H370.451V26ZM365.046 26.9976L365.011 12.1926L363.011 12.1974L363.046 27.0024L365.046 26.9976ZM364.011 13.195H365.096V11.195H364.011V13.195ZM364.237 11.683L356.852 24.073L358.57 25.097L365.955 12.707L364.237 11.683ZM357.711 23.585H354.631V25.585H357.711V23.585ZM355.483 24.0624L347.889 11.6724L346.183 12.7176L353.778 25.1076L355.483 24.0624ZM347.036 13.195H348.331V11.195H347.036V13.195ZM347.331 12.195V27H349.331V12.195H347.331ZM348.331 26H341.961V28H348.331V26ZM375.662 27H374.662V28H375.662V27ZM375.662 2.5V1.5H374.662V2.5H375.662ZM382.487 2.5H383.487V1.5H382.487V2.5ZM382.487 16.885H381.487V20.0457L383.305 17.4602L382.487 16.885ZM392.602 2.5V1.5H392.083L391.784 1.9248L392.602 2.5ZM399.112 2.5H400.112V1.5H399.112V2.5ZM399.112 27V28H400.112V27H399.112ZM392.287 27H391.287V28H392.287V27ZM392.287 12.65H393.287V9.48666L391.469 12.0752L392.287 12.65ZM382.207 27V28H382.727L383.025 27.5748L382.207 27ZM376.662 27V2.5H374.662V27H376.662ZM375.662 3.5H382.487V1.5H375.662V3.5ZM381.487 2.5V16.885H383.487V2.5H381.487ZM383.305 17.4602L393.42 3.0752L391.784 1.9248L381.669 16.3098L383.305 17.4602ZM392.602 3.5H399.112V1.5H392.602V3.5ZM398.112 2.5V27H400.112V2.5H398.112ZM399.112 26H392.287V28H399.112V26ZM393.287 27V12.65H391.287V27H393.287ZM391.469 12.0752L381.389 26.4252L383.025 27.5748L393.105 13.2248L391.469 12.0752ZM382.207 26H375.662V28H382.207V26Z" fill="#DDDCDC" fill-opacity="0.2"/>
</svg>
