<svg width="181" height="76" viewBox="0 0 181 76" fill="none" xmlns="http://www.w3.org/2000/svg">
<path d="M58.0625 43.2188C58.7812 42.9375 59.5938 42.7188 60.5 42.5625C61.4375 42.375 62.6875 42.2812 64.25 42.2812C65.8125 42.2812 67.4375 42.7031 69.125 43.5469C76.2188 40.0781 81.0625 35.0312 83.6562 28.4062C84.5938 26.0625 85.0625 23.6875 85.0625 21.2812C85.0625 18.875 84.4062 16.8281 83.0938 15.1406C82.375 15.5469 81.6562 16 80.9375 16.5L78.6875 18.0938C74.625 21.1562 71.1875 24.1875 68.375 27.1875C63.625 32.2188 58.5781 38.3281 53.2344 45.5156C47.9219 52.6719 42.5 58.6094 36.9688 63.3281C31.4688 68.0469 26.2188 71.4375 21.2188 73.5C18.5 74.5625 15.0625 75.0938 10.9062 75.0938C8.1875 75.0938 5.84375 74.4375 3.875 73.125C1.9375 71.8125 0.96875 70.2188 0.96875 68.3438C0.96875 66.375 1.9375 65.125 3.875 64.5938C4.375 64.4688 4.875 64.4062 5.375 64.4062C5.875 64.4062 6.39062 64.5781 6.92188 64.9219C7.42188 65.2344 7.67188 65.75 7.67188 66.4688C7.67188 67.1562 7.42188 67.7344 6.92188 68.2031C6.39062 68.6406 5.6875 68.8594 4.8125 68.8594C3.90625 68.8594 3.23438 68.7031 2.79688 68.3906V68.6719C2.79688 70.2031 3.5625 71.4531 5.09375 72.4219C6.59375 73.3906 8.32812 73.875 10.2969 73.875C12.2656 73.875 13.8594 73.7344 15.0781 73.4531C16.3281 73.1406 17.6875 72.5625 19.1562 71.7188C20.625 70.875 22.2656 69.6875 24.0781 68.1562C25.9219 66.625 28.0938 64.625 30.5938 62.1562L39.2656 53.0625L50.8438 40.4062C61.8125 27.9688 72.2188 19.1406 82.0625 13.9219C78.4688 10.3281 72.5312 8.53125 64.25 8.53125C54.5938 8.53125 45.0625 12.0781 35.6562 19.1719C31.125 22.6094 27.375 26.25 24.4062 30.0938C21.4062 34.0625 19.9062 37.5 19.9062 40.4062C19.9062 43.0625 21.2188 44.7656 23.8438 45.5156C24.5938 45.7344 25.6406 45.8438 26.9844 45.8438C28.3281 45.8438 30.0312 45.4844 32.0938 44.7656C34.1875 44.0469 36.2812 43.0312 38.375 41.7188C40.5 40.4062 42.5625 38.8438 44.5625 37.0312C46.5625 35.1875 48.375 33.1562 50 30.9375C53.5938 26.1562 55.75 21.1562 56.4688 15.9375C56.6562 14.9375 56.8906 14.4375 57.1719 14.4375C57.4844 14.4375 57.6406 14.7812 57.6406 15.4688C57.6406 21.2188 55.9844 26.625 52.6719 31.6875C49.6719 36.25 45.6562 39.9375 40.625 42.75C35.7188 45.5 30.7969 46.875 25.8594 46.875C22.6094 46.875 20.375 45.6562 19.1562 43.2188C18.7188 42.4062 18.5 41.0781 18.5 39.2344C18.5 37.3906 19.1094 35.1719 20.3281 32.5781C21.5469 29.9531 23.2188 27.4375 25.3438 25.0312C27.5 22.5938 30.0469 20.3125 32.9844 18.1875C35.9219 16.0625 39.0938 14.2031 42.5 12.6094C49.8438 9.20312 57.5 7.5 65.4688 7.5C73.4375 7.5 79.7188 9.25 84.3125 12.75C89 10.5 92.9062 9.375 96.0312 9.375C97.0625 9.375 97.5781 9.53125 97.5781 9.84375C97.5781 10 97.2969 10.125 96.7344 10.2188C96.1719 10.2812 95.3594 10.4375 94.2969 10.6875C91.2031 11.3438 88.2812 12.3906 85.5312 13.8281C88.4688 16.6406 89.9375 20.1094 89.9375 24.2344C89.9375 28.2344 88.0625 32.25 84.3125 36.2812C80.8438 40 76.5312 42.9062 71.375 45C73.875 47.2188 75.125 50.3594 75.125 54.4219C75.125 57.8906 73.8281 61.25 71.2344 64.5C67.3594 69.375 62.0312 72.6406 55.25 74.2969C53.0625 74.8281 51.0312 75.0938 49.1562 75.0938C47.2812 75.0938 45.8438 74.9375 44.8438 74.625C43.8438 74.2812 43.0469 73.8594 42.4531 73.3594C41.3594 72.4531 40.8125 71.3906 40.8125 70.1719C40.8125 68.9219 41.1406 67.6719 41.7969 66.4219C42.4531 65.1406 43.3438 63.875 44.4688 62.625C45.625 61.375 46.9844 60.1719 48.5469 59.0156C50.1094 57.8594 51.7812 56.8438 53.5625 55.9688C57.5312 54 61.375 53.0156 65.0938 53.0156C65.75 53.0156 66.0781 53.2188 66.0781 53.625C66.0781 54.0312 65.4219 54.2344 64.1094 54.2344C62.8281 54.2344 61.3125 54.4688 59.5625 54.9375C57.8438 55.4062 56.1562 56.0469 54.5 56.8594C52.8438 57.6719 51.2812 58.6094 49.8125 59.6719C48.3438 60.7344 47.0625 61.8438 45.9688 63C43.5625 65.5 42.3594 67.8125 42.3594 69.9375C42.3594 72.5 44.5 73.7812 48.7812 73.7812C51.7812 73.7812 54.9375 72.6562 58.25 70.4062C63.5625 66.8438 67.1875 61.875 69.125 55.5C69.75 53.375 70.0625 51.4219 70.0625 49.6406C70.0625 47.8281 69.8281 46.5469 69.3594 45.7969C66.1406 46.8906 63.4219 47.4375 61.2031 47.4375C59.0156 47.4375 57.5469 47.2031 56.7969 46.7344C56.0781 46.2656 55.7188 45.8125 55.7188 45.375C55.7188 44.9375 55.9219 44.5469 56.3281 44.2031C56.7656 43.8281 57.3438 43.5 58.0625 43.2188ZM67.6719 44.2031C66.7031 43.6406 65.5625 43.3594 64.25 43.3594C62.9688 43.3594 62 43.4062 61.3438 43.5C60.7188 43.5938 60.1562 43.7188 59.6562 43.875C58.625 44.1562 58.1094 44.4688 58.1094 44.8125C58.1094 45.5625 59.0156 45.9375 60.8281 45.9375C62.6406 45.9375 64.9219 45.3594 67.6719 44.2031ZM79.9531 72.2344C79.9531 73.2656 80.7031 73.7812 82.2031 73.7812C83.7031 73.7812 85.2969 73.3906 86.9844 72.6094C88.7031 71.7969 90.3906 70.7812 92.0469 69.5625C93.7344 68.3438 95.3594 67.0156 96.9219 65.5781C98.4844 64.1094 99.9062 62.7188 101.188 61.4062L104.422 57.9375C105.297 56.9375 105.891 56.2812 106.203 55.9688L107.141 56.7656C106.797 57.1094 106.156 57.7969 105.219 58.8281C104.312 59.8594 103.188 61.0469 101.844 62.3906C100.531 63.7344 99.0469 65.1562 97.3906 66.6562C95.7656 68.1562 94.0625 69.5312 92.2812 70.7812C88.125 73.6562 84.4844 75.0938 81.3594 75.0938C80.0469 75.0938 78.9688 74.7344 78.125 74.0156C77.25 73.2969 76.8125 72.5312 76.8125 71.7188C76.8125 70.875 76.8594 70.2031 76.9531 69.7031C77.0156 69.2031 77.1719 68.6406 77.4219 68.0156C77.6719 67.3594 78.0312 66.6094 78.5 65.7656C78.9688 64.8906 79.5938 63.8438 80.375 62.625L87.5469 52.0312L123.781 0.234375C126.031 0.546875 128.203 0.546875 130.297 0.234375C100.484 41.6719 85.0469 63.1875 83.9844 64.7812C82.9219 66.3438 82.1406 67.5312 81.6406 68.3438C81.1406 69.125 80.7656 69.7656 80.5156 70.2656C80.1406 71.0156 79.9531 71.6719 79.9531 72.2344ZM102.078 72.2344C102.078 73.3594 102.828 73.9219 104.328 73.9219C106.422 73.9219 108.672 73.125 111.078 71.5312C116.266 68.0625 121.672 62.875 127.297 55.9688C127.297 55.9688 130.844 51.7031 137.938 43.1719C139.438 43.3594 140.797 43.4531 142.016 43.4531C143.234 43.4531 144.25 43.4062 145.062 43.3125L140.469 48.6094L123.875 68.8125C122.781 70.1562 122.234 71.25 122.234 72.0938C122.234 73.2188 122.984 73.7812 124.484 73.7812C125.984 73.7812 127.531 73.3906 129.125 72.6094C130.75 71.7969 132.359 70.7812 133.953 69.5625C135.578 68.3438 137.156 67.0156 138.688 65.5781C140.219 64.1094 141.609 62.7188 142.859 61.4062L147.781 55.9688L148.719 56.7656L146.891 58.8281C145.984 59.8594 144.875 61.0469 143.562 62.3906L139.203 66.6562C133.234 72.2812 128.281 75.0938 124.344 75.0938C123.062 75.0938 122 74.75 121.156 74.0625C120.344 73.3438 119.906 72.3906 119.844 71.2031C119.781 68.9219 120.578 66.3438 122.234 63.4688C115.047 71.2188 108.953 75.0938 103.953 75.0938C101.141 75.0938 99.3438 74.0938 98.5625 72.0938C98.3438 71.5312 98.2188 70.8125 98.1875 69.9375C98.1562 69.0625 98.375 68.0156 98.8438 66.7969C99.2812 65.5781 99.9531 64.2656 100.859 62.8594C101.766 61.4219 102.875 59.875 104.188 58.2188L112.625 48C113.938 46.375 115.328 44.7656 116.797 43.1719C118.016 43.3594 119 43.4531 119.75 43.4531H121.344C122.688 43.4531 123.547 43.4062 123.922 43.3125C120.266 47.3125 117.703 50.2031 116.234 51.9844L106.906 63.1875C103.625 67 102.016 70.0156 102.078 72.2344ZM165.594 70.9688C163.625 72.2188 161.484 73.25 159.172 74.0625C156.891 74.875 154.719 75.2812 152.656 75.2812C150.594 75.2812 149.016 75.0781 147.922 74.6719C146.859 74.2344 145.984 73.6406 145.297 72.8906C142.359 69.7031 142.375 65 145.344 58.7812C146.625 56.0312 148.562 53.5312 151.156 51.2812C153.75 49 156.031 47.2969 158 46.1719C161.812 43.9844 165.391 42.8906 168.734 42.8906C172.047 42.8906 173.781 43.9219 173.938 45.9844C174.156 49.3281 170.094 52.9688 161.75 56.9062C158.688 58.3438 154.828 59.8281 150.172 61.3594C148.328 64.3594 147.406 66.8125 147.406 68.7188C147.406 70.5938 147.891 71.9375 148.859 72.75C149.859 73.5312 151.297 73.9219 153.172 73.9219C155.078 73.9219 157.125 73.5156 159.312 72.7031C161.531 71.8906 163.594 70.8594 165.5 69.6094C167.438 68.3594 169.188 67 170.75 65.5312C172.312 64.0625 173.688 62.6562 174.875 61.3125C176.094 59.9688 177.078 58.8125 177.828 57.8438C178.609 56.8438 179.141 56.2188 179.422 55.9688L180.406 56.7656C180 57.1094 179.375 57.8125 178.531 58.875C177.719 59.9375 176.672 61.1562 175.391 62.5312C174.141 63.875 172.688 65.2969 171.031 66.7969C169.406 68.2969 167.594 69.6875 165.594 70.9688ZM151.25 59.7188C160.688 56.4062 166.766 53.1094 169.484 49.8281C170.391 48.7344 170.844 47.6719 170.844 46.6406C170.844 44.8906 170.031 44.0156 168.406 44.0156C165.531 44.0156 161.938 46.5312 157.625 51.5625C154.625 55.0625 152.5 57.7812 151.25 59.7188Z" fill="#5DC9D8" fill-opacity="0.1"/>
</svg>
