<svg width="47" height="44" viewBox="0 0 47 44" fill="none" xmlns="http://www.w3.org/2000/svg">
<path d="M37.2021 0.125H24.2812L32.5029 11.0879L37.2021 0.125ZM9.79785 0.125L14.4971 11.0879L22.7188 0.125H9.79785ZM23.5 4.29199L17.25 12.625H29.75L23.5 4.29199ZM39.8037 1.98633L35.2441 12.625H46.1562L39.8037 1.98633ZM7.19629 1.98633L0.746094 12.625H11.7559L7.19629 1.98633ZM12.8242 15.75H0.84375L22.6016 43.875H22.6533L12.8242 15.75ZM34.1758 15.75L24.3467 43.875H24.3984L46.1562 15.75H34.1758ZM30.667 15.75H16.333L23.5 36.0625L30.667 15.75Z" fill="white"/>
</svg>
