<svg width="176" height="25" viewBox="0 0 176 25" fill="none" xmlns="http://www.w3.org/2000/svg">
<path d="M8.05 25H7.05V26H8.05V25ZM8.05 4.455L8.75711 3.74789L7.05 2.04079V4.455H8.05ZM9.59 5.995V6.995H12.0042L10.2971 5.28789L9.59 5.995ZM0.525 5.995H-0.475V6.995H0.525V5.995ZM0.525 0.499998V-0.500002H-0.475V0.499998H0.525ZM22.365 0.499998H23.365V-0.500002H22.365V0.499998ZM22.365 5.995V6.995H23.365V5.995H22.365ZM13.335 5.995L12.6279 5.28789L10.9208 6.995H13.335V5.995ZM14.875 4.455H15.875V2.04079L14.1679 3.74789L14.875 4.455ZM14.875 25V26H15.875V25H14.875ZM9.05 25V4.455H7.05V25H9.05ZM7.34289 5.16211L8.88289 6.70211L10.2971 5.28789L8.75711 3.74789L7.34289 5.16211ZM9.59 4.995H0.525V6.995H9.59V4.995ZM1.525 5.995V0.499998H-0.475V5.995H1.525ZM0.525 1.5H22.365V-0.500002H0.525V1.5ZM21.365 0.499998V5.995H23.365V0.499998H21.365ZM22.365 4.995H13.335V6.995H22.365V4.995ZM14.0421 6.70211L15.5821 5.16211L14.1679 3.74789L12.6279 5.28789L14.0421 6.70211ZM13.875 4.455V25H15.875V4.455H13.875ZM14.875 24H8.05V26H14.875V24ZM25.5596 25H24.5596V26H25.5596V25ZM25.5596 0.499998V-0.500002H24.5596V0.499998H25.5596ZM42.5346 1.585L42.1247 2.49718L42.1296 2.49935L42.5346 1.585ZM46.3146 4.735L45.4738 5.27649L45.4781 5.28302L46.3146 4.735ZM46.3146 14.36L45.4781 13.812L46.3146 14.36ZM42.5346 17.51L42.9444 18.4222L42.9503 18.4195L42.5346 17.51ZM29.4096 18.595L28.7106 17.8798L26.9556 19.595H29.4096V18.595ZM32.4896 15.585H33.4896V13.2095L31.7906 14.8698L32.4896 15.585ZM32.4896 25V26H33.4896V25H32.4896ZM32.4896 16.32L31.7707 17.0152L33.4896 18.7926V16.32H32.4896ZM29.4096 13.135V12.135H27.0514L28.6907 13.8302L29.4096 13.135ZM39.5596 12.19L38.9028 11.4359L38.8967 11.4413L38.8906 11.4467L39.5596 12.19ZM39.5596 6.905L38.8906 7.64829L38.8967 7.65374L38.9028 7.65908L39.5596 6.905ZM29.4096 5.96L28.6907 5.26484L27.0514 6.96H29.4096V5.96ZM32.4896 2.775H33.4896V0.302385L31.7707 2.07984L32.4896 2.775ZM26.5596 25V0.499998H24.5596V25H26.5596ZM25.5596 1.5H36.7596V-0.500002H25.5596V1.5ZM36.7596 1.5C38.895 1.5 40.6734 1.84509 42.1248 2.49717L42.9444 0.672831C41.1758 -0.121758 39.1041 -0.500002 36.7596 -0.500002V1.5ZM42.1296 2.49935C43.6013 3.1511 44.7025 4.07888 45.4739 5.27648L47.1553 4.19352C46.1533 2.63779 44.7345 1.46556 42.9395 0.67065L42.1296 2.49935ZM45.4781 5.28302C46.2424 6.4496 46.6446 7.86234 46.6446 9.565H48.6446C48.6446 7.53432 48.1601 5.72707 47.151 4.18697L45.4781 5.28302ZM46.6446 9.565C46.6446 11.2415 46.2437 12.6434 45.4781 13.812L47.151 14.908C48.1587 13.37 48.6446 11.5751 48.6446 9.565H46.6446ZM45.4781 13.812C44.7059 14.9906 43.6001 15.9234 42.1188 16.6005L42.9503 18.4195C44.7357 17.6033 46.1499 16.4361 47.151 14.908L45.4781 13.812ZM42.1248 16.5978C40.6734 17.2499 38.895 17.595 36.7596 17.595V19.595C39.1041 19.595 41.1758 19.2168 42.9444 18.4222L42.1248 16.5978ZM36.7596 17.595H29.4096V19.595H36.7596V17.595ZM30.1085 19.3102L33.1885 16.3002L31.7906 14.8698L28.7106 17.8798L30.1085 19.3102ZM31.4896 15.585V25H33.4896V15.585H31.4896ZM32.4896 24H25.5596V26H32.4896V24ZM33.2084 15.6248L30.1284 12.4398L28.6907 13.8302L31.7707 17.0152L33.2084 15.6248ZM29.4096 14.135H36.3396V12.135H29.4096V14.135ZM36.3396 14.135C37.9056 14.135 39.2681 13.7977 40.2285 12.9333L38.8906 11.4467C38.451 11.8423 37.6669 12.135 36.3396 12.135V14.135ZM40.2164 12.9441C41.1951 12.0916 41.6446 10.9206 41.6446 9.565H39.6446C39.6446 10.4494 39.3707 11.0284 38.9028 11.4359L40.2164 12.9441ZM41.6446 9.565C41.6446 8.1934 41.1998 7.00747 40.2164 6.15092L38.9028 7.65908C39.366 8.06253 39.6446 8.64993 39.6446 9.565H41.6446ZM40.2285 6.16171C39.2681 5.29735 37.9056 4.96 36.3396 4.96V6.96C37.6669 6.96 38.451 7.25265 38.8906 7.64829L40.2285 6.16171ZM36.3396 4.96H29.4096V6.96H36.3396V4.96ZM30.1284 6.65516L33.2084 3.47016L31.7707 2.07984L28.6907 5.26484L30.1284 6.65516ZM31.4896 2.775V16.32H33.4896V2.775H31.4896ZM57.1542 9.985V8.985H56.1542V9.985H57.1542ZM68.5292 9.985H69.5292V8.985H68.5292V9.985ZM68.5292 15.165V16.165H69.5292V15.165H68.5292ZM57.1542 15.165H56.1542V16.165H57.1542V15.165ZM57.6442 19.645H56.6442V20.645H57.6442V19.645ZM70.4542 19.645H71.4542V18.645H70.4542V19.645ZM70.4542 25V26H71.4542V25H70.4542ZM50.7842 25H49.7842V26H50.7842V25ZM50.7842 0.499998V-0.500002H49.7842V0.499998H50.7842ZM69.9992 0.499998H70.9992V-0.500002H69.9992V0.499998ZM69.9992 5.855V6.855H70.9992V5.855H69.9992ZM57.6442 5.855V4.855H56.6442V5.855H57.6442ZM57.1542 10.985H68.5292V8.985H57.1542V10.985ZM67.5292 9.985V15.165H69.5292V9.985H67.5292ZM68.5292 14.165H57.1542V16.165H68.5292V14.165ZM58.1542 15.165V9.985H56.1542V15.165H58.1542ZM57.6442 20.645H70.4542V18.645H57.6442V20.645ZM69.4542 19.645V25H71.4542V19.645H69.4542ZM70.4542 24H50.7842V26H70.4542V24ZM51.7842 25V0.499998H49.7842V25H51.7842ZM50.7842 1.5H69.9992V-0.500002H50.7842V1.5ZM68.9992 0.499998V5.855H70.9992V0.499998H68.9992ZM69.9992 4.855H57.6442V6.855H69.9992V4.855ZM56.6442 5.855V19.645H58.6442V5.855H56.6442ZM90.7823 0.499998V-0.500002H89.7823V0.499998H90.7823ZM97.7123 0.499998H98.7123V-0.500002H97.7123V0.499998ZM97.7123 25V26H98.7123V25H97.7123ZM90.7823 25H89.7823V26H90.7823V25ZM81.3323 25V26H82.3323V25H81.3323ZM74.4023 25H73.4023V26H74.4023V25ZM74.4023 0.499998V-0.500002H73.4023V0.499998H74.4023ZM81.3323 0.499998H82.3323V-0.500002H81.3323V0.499998ZM91.2723 15.445V16.445H92.2723V15.445H91.2723ZM80.8423 15.445H79.8423V16.445H80.8423V15.445ZM80.8423 9.705V8.705H79.8423V9.705H80.8423ZM91.2723 9.705H92.2723V8.705H91.2723V9.705ZM90.7823 1.5H97.7123V-0.500002H90.7823V1.5ZM96.7123 0.499998V25H98.7123V0.499998H96.7123ZM97.7123 24H90.7823V26H97.7123V24ZM91.7823 25V0.499998H89.7823V25H91.7823ZM81.3323 24H74.4023V26H81.3323V24ZM75.4023 25V0.499998H73.4023V25H75.4023ZM74.4023 1.5H81.3323V-0.500002H74.4023V1.5ZM80.3323 0.499998V25H82.3323V0.499998H80.3323ZM91.2723 14.445H80.8423V16.445H91.2723V14.445ZM81.8423 15.445V9.705H79.8423V15.445H81.8423ZM80.8423 10.705H91.2723V8.705H80.8423V10.705ZM90.2723 9.705V15.445H92.2723V9.705H90.2723ZM109.347 9.985V8.985H108.347V9.985H109.347ZM120.722 9.985H121.722V8.985H120.722V9.985ZM120.722 15.165V16.165H121.722V15.165H120.722ZM109.347 15.165H108.347V16.165H109.347V15.165ZM109.837 19.645H108.837V20.645H109.837V19.645ZM122.647 19.645H123.647V18.645H122.647V19.645ZM122.647 25V26H123.647V25H122.647ZM102.977 25H101.977V26H102.977V25ZM102.977 0.499998V-0.500002H101.977V0.499998H102.977ZM122.192 0.499998H123.192V-0.500002H122.192V0.499998ZM122.192 5.855V6.855H123.192V5.855H122.192ZM109.837 5.855V4.855H108.837V5.855H109.837ZM109.347 10.985H120.722V8.985H109.347V10.985ZM119.722 9.985V15.165H121.722V9.985H119.722ZM120.722 14.165H109.347V16.165H120.722V14.165ZM110.347 15.165V9.985H108.347V15.165H110.347ZM109.837 20.645H122.647V18.645H109.837V20.645ZM121.647 19.645V25H123.647V19.645H121.647ZM122.647 24H102.977V26H122.647V24ZM103.977 25V0.499998H101.977V25H103.977ZM102.977 1.5H122.192V-0.500002H102.977V1.5ZM121.192 0.499998V5.855H123.192V0.499998H121.192ZM122.192 4.855H109.837V6.855H122.192V4.855ZM108.837 5.855V19.645H110.837V5.855H108.837ZM126.595 25H125.595V26H126.595V25ZM126.595 0.499998V-0.500002H125.595V0.499998H126.595ZM143.57 1.585L143.16 2.49718L143.165 2.49935L143.57 1.585ZM147.35 4.735L146.509 5.27649L146.513 5.28302L147.35 4.735ZM147.35 14.36L146.513 13.812L147.35 14.36ZM143.57 17.51L143.98 18.4222L143.985 18.4195L143.57 17.51ZM130.445 18.595L129.746 17.8798L127.991 19.595H130.445V18.595ZM133.525 15.585H134.525V13.2095L132.826 14.8698L133.525 15.585ZM133.525 25V26H134.525V25H133.525ZM133.525 16.32L132.806 17.0152L134.525 18.7926V16.32H133.525ZM130.445 13.135V12.135H128.087L129.726 13.8302L130.445 13.135ZM140.595 12.19L139.938 11.4359L139.932 11.4413L139.926 11.4467L140.595 12.19ZM140.595 6.905L139.926 7.64829L139.932 7.65374L139.938 7.65908L140.595 6.905ZM130.445 5.96L129.726 5.26484L128.087 6.96H130.445V5.96ZM133.525 2.775H134.525V0.302385L132.806 2.07984L133.525 2.775ZM127.595 25V0.499998H125.595V25H127.595ZM126.595 1.5H137.795V-0.500002H126.595V1.5ZM137.795 1.5C139.93 1.5 141.709 1.84509 143.16 2.49717L143.98 0.672831C142.211 -0.121758 140.139 -0.500002 137.795 -0.500002V1.5ZM143.165 2.49935C144.637 3.1511 145.738 4.07888 146.509 5.27648L148.19 4.19352C147.188 2.63779 145.77 1.46556 143.975 0.67065L143.165 2.49935ZM146.513 5.28302C147.278 6.4496 147.68 7.86234 147.68 9.565H149.68C149.68 7.53432 149.195 5.72707 148.186 4.18697L146.513 5.28302ZM147.68 9.565C147.68 11.2415 147.279 12.6434 146.513 13.812L148.186 14.908C149.194 13.37 149.68 11.5751 149.68 9.565H147.68ZM146.513 13.812C145.741 14.9906 144.635 15.9234 143.154 16.6005L143.985 18.4195C145.771 17.6033 147.185 16.4361 148.186 14.908L146.513 13.812ZM143.16 16.5978C141.709 17.2499 139.93 17.595 137.795 17.595V19.595C140.139 19.595 142.211 19.2168 143.98 18.4222L143.16 16.5978ZM137.795 17.595H130.445V19.595H137.795V17.595ZM131.144 19.3102L134.224 16.3002L132.826 14.8698L129.746 17.8798L131.144 19.3102ZM132.525 15.585V25H134.525V15.585H132.525ZM133.525 24H126.595V26H133.525V24ZM134.244 15.6248L131.164 12.4398L129.726 13.8302L132.806 17.0152L134.244 15.6248ZM130.445 14.135H137.375V12.135H130.445V14.135ZM137.375 14.135C138.941 14.135 140.303 13.7977 141.264 12.9333L139.926 11.4467C139.486 11.8423 138.702 12.135 137.375 12.135V14.135ZM141.252 12.9441C142.23 12.0916 142.68 10.9206 142.68 9.565H140.68C140.68 10.4494 140.406 11.0284 139.938 11.4359L141.252 12.9441ZM142.68 9.565C142.68 8.1934 142.235 7.00747 141.252 6.15092L139.938 7.65908C140.401 8.06253 140.68 8.64993 140.68 9.565H142.68ZM141.264 6.16171C140.303 5.29735 138.941 4.96 137.375 4.96V6.96C138.702 6.96 139.486 7.25265 139.926 7.64829L141.264 6.16171ZM137.375 4.96H130.445V6.96H137.375V4.96ZM131.164 6.65516L134.244 3.47016L132.806 2.07984L129.726 5.26484L131.164 6.65516ZM132.525 2.775V16.32H134.525V2.775H132.525ZM151.819 25H150.819V26H151.819V25ZM151.819 0.499998V-0.500002H150.819V0.499998H151.819ZM158.644 0.499998H159.644V-0.500002H158.644V0.499998ZM158.644 14.885H157.644V18.0457L159.462 15.4602L158.644 14.885ZM168.759 0.499998V-0.500002H168.24L167.941 -0.0751991L168.759 0.499998ZM175.269 0.499998H176.269V-0.500002H175.269V0.499998ZM175.269 25V26H176.269V25H175.269ZM168.444 25H167.444V26H168.444V25ZM168.444 10.65H169.444V7.48666L167.626 10.0752L168.444 10.65ZM158.364 25V26H158.884L159.183 25.5748L158.364 25ZM152.819 25V0.499998H150.819V25H152.819ZM151.819 1.5H158.644V-0.500002H151.819V1.5ZM157.644 0.499998V14.885H159.644V0.499998H157.644ZM159.462 15.4602L169.577 1.0752L167.941 -0.0751991L157.826 14.3098L159.462 15.4602ZM168.759 1.5H175.269V-0.500002H168.759V1.5ZM174.269 0.499998V25H176.269V0.499998H174.269ZM175.269 24H168.444V26H175.269V24ZM169.444 25V10.65H167.444V25H169.444ZM167.626 10.0752L157.546 24.4252L159.183 25.5748L169.263 11.2248L167.626 10.0752ZM158.364 24H151.819V26H158.364V24Z" fill="#DDDCDC" fill-opacity="0.2"/>
</svg>
