<svg width="194" height="25" viewBox="0 0 194 25" fill="none" xmlns="http://www.w3.org/2000/svg">
<path d="M17.005 0.499998V-0.500002H16.005V0.499998H17.005ZM23.935 0.499998H24.935V-0.500002H23.935V0.499998ZM23.935 25V26H24.935V25H23.935ZM17.005 25H16.005V26H17.005V25ZM7.555 25V26H8.555V25H7.555ZM0.625 25H-0.375V26H0.625V25ZM0.625 0.499998V-0.500002H-0.375V0.499998H0.625ZM7.555 0.499998H8.555V-0.500002H7.555V0.499998ZM17.495 15.445V16.445H18.495V15.445H17.495ZM7.065 15.445H6.065V16.445H7.065V15.445ZM7.065 9.705V8.705H6.065V9.705H7.065ZM17.495 9.705H18.495V8.705H17.495V9.705ZM17.005 1.5H23.935V-0.500002H17.005V1.5ZM22.935 0.499998V25H24.935V0.499998H22.935ZM23.935 24H17.005V26H23.935V24ZM18.005 25V0.499998H16.005V25H18.005ZM7.555 24H0.625V26H7.555V24ZM1.625 25V0.499998H-0.375V25H1.625ZM0.625 1.5H7.555V-0.500002H0.625V1.5ZM6.555 0.499998V25H8.555V0.499998H6.555ZM17.495 14.445H7.065V16.445H17.495V14.445ZM8.065 15.445V9.705H6.065V15.445H8.065ZM7.065 10.705H17.495V8.705H7.065V10.705ZM16.495 9.705V15.445H18.495V9.705H16.495ZM26.7492 25L25.8344 24.5962L25.2147 26H26.7492V25ZM37.5642 0.499998V-0.500002H36.9126L36.6494 0.0961647L37.5642 0.499998ZM44.3892 0.499998L45.3036 0.0950718L45.04 -0.500002H44.3892V0.499998ZM55.2392 25V26H56.7758L56.1536 24.5951L55.2392 25ZM48.0292 25L47.1012 25.3725L47.353 26H48.0292V25ZM39.5592 3.895V2.895H38.0804L38.6312 4.26745L39.5592 3.895ZM42.2892 3.895L43.2173 4.26745L43.7681 2.895H42.2892V3.895ZM33.8192 25V26H34.4954L34.7473 25.3725L33.8192 25ZM32.6642 20.24L31.7202 19.9102L31.2556 21.24H32.6642V20.24ZM34.4492 15.13V14.13H33.7393L33.5052 14.8002L34.4492 15.13ZM46.4192 15.13L47.3633 14.8002L47.1292 14.13H46.4192V15.13ZM48.2042 20.24V21.24H49.6128L49.1483 19.9102L48.2042 20.24ZM27.6641 25.4038L38.4791 0.903831L36.6494 0.0961647L25.8344 24.5962L27.6641 25.4038ZM37.5642 1.5H44.3892V-0.500002H37.5642V1.5ZM43.4749 0.904924L54.3249 25.4049L56.1536 24.5951L45.3036 0.0950718L43.4749 0.904924ZM55.2392 24H48.0292V26H55.2392V24ZM48.9573 24.6275L40.4873 3.52255L38.6312 4.26745L47.1012 25.3725L48.9573 24.6275ZM39.5592 4.895H42.2892V2.895H39.5592V4.895ZM41.3612 3.52255L32.8912 24.6275L34.7473 25.3725L43.2173 4.26745L41.3612 3.52255ZM33.8192 24H26.7492V26H33.8192V24ZM33.6083 20.5698L35.3933 15.4598L33.5052 14.8002L31.7202 19.9102L33.6083 20.5698ZM34.4492 16.13H46.4192V14.13H34.4492V16.13ZM45.4752 15.4598L47.2602 20.5698L49.1483 19.9102L47.3633 14.8002L45.4752 15.4598ZM48.2042 19.24H32.6642V21.24H48.2042V19.24ZM58.0469 25H57.0469V26H58.0469V25ZM58.0469 0.499998V-0.500002H57.0469V0.499998H58.0469ZM81.0419 0.499998H82.0419V-0.500002H81.0419V0.499998ZM81.0419 25V26H82.0419V25H81.0419ZM74.1819 25H73.1819V26H74.1819V25ZM74.1819 4.455L74.889 3.74789L73.1819 2.04079V4.455H74.1819ZM75.7219 5.995V6.995H78.1361L76.429 5.28789L75.7219 5.995ZM63.3669 5.995L62.6517 5.29607L60.9914 6.995H63.3669V5.995ZM64.8719 4.455H65.8719V2.00099L64.1567 3.75607L64.8719 4.455ZM64.8719 25V26H65.8719V25H64.8719ZM59.0469 25V0.499998H57.0469V25H59.0469ZM58.0469 1.5H81.0419V-0.500002H58.0469V1.5ZM80.0419 0.499998V25H82.0419V0.499998H80.0419ZM81.0419 24H74.1819V26H81.0419V24ZM75.1819 25V4.455H73.1819V25H75.1819ZM73.4748 5.16211L75.0148 6.70211L76.429 5.28789L74.889 3.74789L73.4748 5.16211ZM75.7219 4.995H63.3669V6.995H75.7219V4.995ZM64.0821 6.69393L65.5871 5.15393L64.1567 3.75607L62.6517 5.29607L64.0821 6.69393ZM63.8719 4.455V25H65.8719V4.455H63.8719ZM64.8719 24H58.0469V26H64.8719V24ZM86.2793 25H85.2793V26H86.2793V25ZM86.2793 0.499998V-0.500002H85.2793V0.499998H86.2793ZM103.254 1.585L102.844 2.49718L102.849 2.49935L103.254 1.585ZM107.034 4.735L106.194 5.27649L106.198 5.28302L107.034 4.735ZM107.034 14.36L106.198 13.812L107.034 14.36ZM103.254 17.51L103.664 18.4222L103.67 18.4195L103.254 17.51ZM90.1293 18.595L89.4304 17.8798L87.6753 19.595H90.1293V18.595ZM93.2093 15.585H94.2093V13.2095L92.5104 14.8698L93.2093 15.585ZM93.2093 25V26H94.2093V25H93.2093ZM93.2093 16.32L92.4904 17.0152L94.2093 18.7926V16.32H93.2093ZM90.1293 13.135V12.135H87.7712L89.4104 13.8302L90.1293 13.135ZM100.279 12.19L99.6225 11.4359L99.6164 11.4413L99.6103 11.4467L100.279 12.19ZM100.279 6.905L99.6103 7.64829L99.6164 7.65374L99.6225 7.65908L100.279 6.905ZM90.1293 5.96L89.4104 5.26484L87.7712 6.96H90.1293V5.96ZM93.2093 2.775H94.2093V0.302385L92.4904 2.07984L93.2093 2.775ZM87.2793 25V0.499998H85.2793V25H87.2793ZM86.2793 1.5H97.4793V-0.500002H86.2793V1.5ZM97.4793 1.5C99.6147 1.5 101.393 1.84509 102.844 2.49717L103.664 0.672831C101.896 -0.121758 99.8239 -0.500002 97.4793 -0.500002V1.5ZM102.849 2.49935C104.321 3.1511 105.422 4.07888 106.194 5.27648L107.875 4.19352C106.873 2.63779 105.454 1.46556 103.659 0.67065L102.849 2.49935ZM106.198 5.28302C106.962 6.4496 107.364 7.86234 107.364 9.565H109.364C109.364 7.53432 108.88 5.72707 107.871 4.18697L106.198 5.28302ZM107.364 9.565C107.364 11.2415 106.963 12.6434 106.198 13.812L107.871 14.908C108.878 13.37 109.364 11.5751 109.364 9.565H107.364ZM106.198 13.812C105.426 14.9906 104.32 15.9234 102.839 16.6005L103.67 18.4195C105.455 17.6033 106.87 16.4361 107.871 14.908L106.198 13.812ZM102.844 16.5978C101.393 17.2499 99.6147 17.595 97.4793 17.595V19.595C99.8239 19.595 101.896 19.2168 103.664 18.4222L102.844 16.5978ZM97.4793 17.595H90.1293V19.595H97.4793V17.595ZM90.8282 19.3102L93.9082 16.3002L92.5104 14.8698L89.4304 17.8798L90.8282 19.3102ZM92.2093 15.585V25H94.2093V15.585H92.2093ZM93.2093 24H86.2793V26H93.2093V24ZM93.9282 15.6248L90.8482 12.4398L89.4104 13.8302L92.4904 17.0152L93.9282 15.6248ZM90.1293 14.135H97.0593V12.135H90.1293V14.135ZM97.0593 14.135C98.6253 14.135 99.9879 13.7977 100.948 12.9333L99.6103 11.4467C99.1707 11.8423 98.3866 12.135 97.0593 12.135V14.135ZM100.936 12.9441C101.915 12.0916 102.364 10.9206 102.364 9.565H100.364C100.364 10.4494 100.09 11.0284 99.6225 11.4359L100.936 12.9441ZM102.364 9.565C102.364 8.1934 101.92 7.00747 100.936 6.15092L99.6225 7.65908C100.086 8.06253 100.364 8.64993 100.364 9.565H102.364ZM100.948 6.16171C99.9879 5.29735 98.6253 4.96 97.0593 4.96V6.96C98.3866 6.96 99.1707 7.25265 99.6103 7.64829L100.948 6.16171ZM97.0593 4.96H90.1293V6.96H97.0593V4.96ZM90.8482 6.65516L93.9282 3.47016L92.4904 2.07984L89.4104 5.26484L90.8482 6.65516ZM92.2093 2.775V16.32H94.2093V2.775H92.2093ZM124.642 25H123.642V26H124.642V25ZM124.642 17.405L125.299 16.6514L123.642 15.2056V17.405H124.642ZM126.287 18.84V19.84H128.955L126.944 18.0864L126.287 18.84ZM114.422 17.755L114.837 16.8451L114.422 17.755ZM110.747 14.64L109.897 15.1674L109.904 15.1778L110.747 14.64ZM110.817 4.84L109.979 4.29501L109.976 4.29852L110.817 4.84ZM114.632 1.62L114.221 0.708304L114.216 0.710524L114.632 1.62ZM131.467 0.499998H132.467V-0.500002H131.467V0.499998ZM131.467 25V26H132.467V25H131.467ZM109.557 25L108.735 24.4311L107.649 26H109.557V25ZM115.682 16.145V15.145H115.158L114.86 15.5761L115.682 16.145ZM122.647 16.145L123.483 16.6936L124.499 15.145H122.647V16.145ZM116.837 25V26H117.377L117.673 25.5486L116.837 25ZM124.642 15.2H123.642V17.6872L125.364 15.8922L124.642 15.2ZM124.642 4.245L125.364 3.55277L123.642 1.75783V4.245H124.642ZM126.287 5.96V6.96H128.632L127.009 5.26777L126.287 5.96ZM117.502 6.905L118.17 7.64957L118.171 7.64829L117.502 6.905ZM117.502 12.54L116.807 13.2594L116.82 13.2716L116.833 13.2833L117.502 12.54ZM126.287 13.485L127.009 14.1772L128.632 12.485H126.287V13.485ZM125.642 25V17.405H123.642V25H125.642ZM123.985 18.1586L125.63 19.5936L126.944 18.0864L125.299 16.6514L123.985 18.1586ZM126.287 17.84H120.092V19.84H126.287V17.84ZM120.092 17.84C118.006 17.84 116.264 17.4958 114.837 16.8451L114.007 18.6649C115.753 19.4608 117.791 19.84 120.092 19.84V17.84ZM114.837 16.8451C113.41 16.1946 112.341 15.2787 111.59 14.1022L109.904 15.1778C110.88 16.708 112.261 17.8687 114.007 18.6649L114.837 16.8451ZM111.597 14.1126C110.871 12.9432 110.487 11.5228 110.487 9.81H108.487C108.487 11.8305 108.943 13.6302 109.897 15.1674L111.597 14.1126ZM110.487 9.81C110.487 8.02973 110.893 6.56913 111.658 5.38148L109.976 4.29852C108.968 5.8642 108.487 7.71693 108.487 9.81H110.487ZM111.655 5.38499C112.454 4.15623 113.573 3.20344 115.048 2.52947L114.216 0.710524C112.424 1.52989 111 2.72377 109.979 4.29501L111.655 5.38499ZM115.043 2.53168C116.545 1.85456 118.337 1.5 120.442 1.5V-0.500002C118.114 -0.500002 116.032 -0.1079 114.221 0.708318L115.043 2.53168ZM120.442 1.5H131.467V-0.500002H120.442V1.5ZM130.467 0.499998V25H132.467V0.499998H130.467ZM131.467 24H124.642V26H131.467V24ZM110.379 25.5689L116.504 16.7139L114.86 15.5761L108.735 24.4311L110.379 25.5689ZM115.682 17.145H122.647V15.145H115.682V17.145ZM121.811 15.5964L116.001 24.4514L117.673 25.5486L123.483 16.6936L121.811 15.5964ZM116.837 24H109.557V26H116.837V24ZM125.642 15.2V4.245H123.642V15.2H125.642ZM123.92 4.93722L125.565 6.65222L127.009 5.26777L125.364 3.55277L123.92 4.93722ZM126.287 4.96H120.582V6.96H126.287V4.96ZM120.582 4.96C119.088 4.96 117.783 5.30673 116.833 6.16171L118.171 7.64829C118.621 7.24327 119.369 6.96 120.582 6.96V4.96ZM116.834 6.16043C115.874 7.02139 115.487 8.27467 115.487 9.705H117.487C117.487 8.61533 117.777 8.00194 118.17 7.64957L116.834 6.16043ZM115.487 9.705C115.487 11.1238 115.88 12.3636 116.807 13.2594L118.197 11.8206C117.771 11.4098 117.487 10.7595 117.487 9.705H115.487ZM116.833 13.2833C117.777 14.1331 119.054 14.485 120.512 14.485V12.485C119.356 12.485 118.627 12.2069 118.171 11.7967L116.833 13.2833ZM120.512 14.485H126.287V12.485H120.512V14.485ZM125.565 12.7928L123.92 14.5078L125.364 15.8922L127.009 14.1772L125.565 12.7928ZM136.729 25H135.729V26H136.729V25ZM136.729 0.499998V-0.500002H135.729V0.499998H136.729ZM142.434 0.499998L143.288 -0.01898L142.996 -0.500002H142.434V0.499998ZM152.549 17.16V18.16H154.326L153.403 16.641L152.549 17.16ZM149.539 17.16L148.679 16.649L147.781 18.16H149.539V17.16ZM159.444 0.499998V-0.500002H158.875L158.584 -0.0110407L159.444 0.499998ZM165.149 0.499998L166.149 0.497141L166.146 -0.500002H165.149V0.499998ZM165.219 25V26H166.221L166.219 24.9971L165.219 25ZM158.814 25L157.814 25.0024L157.816 26H158.814V25ZM158.779 10.195V9.195H157.776L157.779 10.1974L158.779 10.195ZM159.864 10.195L160.723 10.707L161.624 9.195H159.864V10.195ZM152.479 22.585V23.585H153.047L153.338 23.097L152.479 22.585ZM149.399 22.585L148.546 23.1076L148.839 23.585H149.399V22.585ZM141.804 10.195V9.195H140.018L140.951 10.7176L141.804 10.195ZM143.099 10.195H144.099V9.195H143.099V10.195ZM143.099 25V26H144.099V25H143.099ZM137.729 25V0.499998H135.729V25H137.729ZM136.729 1.5H142.434V-0.500002H136.729V1.5ZM141.579 1.01898L151.694 17.679L153.403 16.641L143.288 -0.01898L141.579 1.01898ZM152.549 16.16H149.539V18.16H152.549V16.16ZM150.398 17.671L160.303 1.01104L158.584 -0.0110407L148.679 16.649L150.398 17.671ZM159.444 1.5H165.149V-0.500002H159.444V1.5ZM164.149 0.502855L164.219 25.0029L166.219 24.9971L166.149 0.497141L164.149 0.502855ZM165.219 24H158.814V26H165.219V24ZM159.814 24.9976L159.779 10.1926L157.779 10.1974L157.814 25.0024L159.814 24.9976ZM158.779 11.195H159.864V9.195H158.779V11.195ZM159.005 9.683L151.62 22.073L153.338 23.097L160.723 10.707L159.005 9.683ZM152.479 21.585H149.399V23.585H152.479V21.585ZM150.251 22.0624L142.656 9.67238L140.951 10.7176L148.546 23.1076L150.251 22.0624ZM141.804 11.195H143.099V9.195H141.804V11.195ZM142.099 10.195V25H144.099V10.195H142.099ZM143.099 24H136.729V26H143.099V24ZM170.43 25H169.43V26H170.43V25ZM170.43 0.499998V-0.500002H169.43V0.499998H170.43ZM177.255 0.499998H178.255V-0.500002H177.255V0.499998ZM177.255 14.885H176.255V18.0457L178.073 15.4602L177.255 14.885ZM187.37 0.499998V-0.500002H186.85L186.552 -0.0751991L187.37 0.499998ZM193.88 0.499998H194.88V-0.500002H193.88V0.499998ZM193.88 25V26H194.88V25H193.88ZM187.055 25H186.055V26H187.055V25ZM187.055 10.65H188.055V7.48666L186.236 10.0752L187.055 10.65ZM176.975 25V26H177.494L177.793 25.5748L176.975 25ZM171.43 25V0.499998H169.43V25H171.43ZM170.43 1.5H177.255V-0.500002H170.43V1.5ZM176.255 0.499998V14.885H178.255V0.499998H176.255ZM178.073 15.4602L188.188 1.0752L186.552 -0.0751991L176.437 14.3098L178.073 15.4602ZM187.37 1.5H193.88V-0.500002H187.37V1.5ZM192.88 0.499998V25H194.88V0.499998H192.88ZM193.88 24H187.055V26H193.88V24ZM188.055 25V10.65H186.055V25H188.055ZM186.236 10.0752L176.156 24.4252L177.793 25.5748L187.873 11.2248L186.236 10.0752ZM176.975 24H170.43V26H176.975V24Z" fill="#DDDCDC" fill-opacity="0.2"/>
</svg>
