<svg width="174" height="26" viewBox="0 0 174 26" fill="none" xmlns="http://www.w3.org/2000/svg">
<path d="M0.625 25H-0.375V26H0.625V25ZM0.625 0.499998V-0.500002H-0.375V0.499998H0.625ZM23.62 0.499998H24.62V-0.500002H23.62V0.499998ZM23.62 25V26H24.62V25H23.62ZM16.76 25H15.76V26H16.76V25ZM16.76 4.455L17.4671 3.74789L15.76 2.04079V4.455H16.76ZM18.3 5.995V6.995H20.7142L19.0071 5.28789L18.3 5.995ZM5.945 5.995L5.22981 5.29607L3.56949 6.995H5.945V5.995ZM7.45 4.455H8.45V2.00099L6.73481 3.75607L7.45 4.455ZM7.45 25V26H8.45V25H7.45ZM1.625 25V0.499998H-0.375V25H1.625ZM0.625 1.5H23.62V-0.500002H0.625V1.5ZM22.62 0.499998V25H24.62V0.499998H22.62ZM23.62 24H16.76V26H23.62V24ZM17.76 25V4.455H15.76V25H17.76ZM16.0529 5.16211L17.5929 6.70211L19.0071 5.28789L17.4671 3.74789L16.0529 5.16211ZM18.3 4.995H5.945V6.995H18.3V4.995ZM6.66019 6.69393L8.16519 5.15393L6.73481 3.75607L5.22981 5.29607L6.66019 6.69393ZM6.45 4.455V25H8.45V4.455H6.45ZM7.45 24H0.625V26H7.45V24ZM28.8574 25H27.8574V26H28.8574V25ZM28.8574 0.499998V-0.500002H27.8574V0.499998H28.8574ZM45.8324 1.585L45.4226 2.49718L45.4275 2.49935L45.8324 1.585ZM49.6124 4.735L48.7717 5.27649L48.776 5.28302L49.6124 4.735ZM49.6124 14.36L48.776 13.812L49.6124 14.36ZM45.8324 17.51L46.2422 18.4222L46.2482 18.4195L45.8324 17.51ZM32.7074 18.595L32.0085 17.8798L30.2534 19.595H32.7074V18.595ZM35.7874 15.585H36.7874V13.2095L35.0885 14.8698L35.7874 15.585ZM35.7874 25V26H36.7874V25H35.7874ZM35.7874 16.32L35.0686 17.0152L36.7874 18.7926V16.32H35.7874ZM32.7074 13.135V12.135H30.3493L31.9886 13.8302L32.7074 13.135ZM42.8574 12.19L42.2006 11.4359L42.1945 11.4413L42.1885 11.4467L42.8574 12.19ZM42.8574 6.905L42.1885 7.64829L42.1945 7.65374L42.2006 7.65908L42.8574 6.905ZM32.7074 5.96L31.9886 5.26484L30.3493 6.96H32.7074V5.96ZM35.7874 2.775H36.7874V0.302385L35.0686 2.07984L35.7874 2.775ZM29.8574 25V0.499998H27.8574V25H29.8574ZM28.8574 1.5H40.0574V-0.500002H28.8574V1.5ZM40.0574 1.5C42.1928 1.5 43.9712 1.84509 45.4226 2.49717L46.2422 0.672831C44.4736 -0.121758 42.402 -0.500002 40.0574 -0.500002V1.5ZM45.4275 2.49935C46.8992 3.1511 48.0004 4.07888 48.7717 5.27648L50.4531 4.19352C49.4511 2.63779 48.0323 1.46556 46.2373 0.67065L45.4275 2.49935ZM48.776 5.28302C49.5403 6.4496 49.9424 7.86234 49.9424 9.565H51.9424C51.9424 7.53432 51.4579 5.72707 50.4489 4.18697L48.776 5.28302ZM49.9424 9.565C49.9424 11.2415 49.5416 12.6434 48.776 13.812L50.4489 14.908C51.4566 13.37 51.9424 11.5751 51.9424 9.565H49.9424ZM48.776 13.812C48.0038 14.9906 46.898 15.9234 45.4167 16.6005L46.2482 18.4195C48.0335 17.6033 49.4477 16.4361 50.4489 14.908L48.776 13.812ZM45.4226 16.5978C43.9712 17.2499 42.1928 17.595 40.0574 17.595V19.595C42.402 19.595 44.4736 19.2168 46.2422 18.4222L45.4226 16.5978ZM40.0574 17.595H32.7074V19.595H40.0574V17.595ZM33.4064 19.3102L36.4864 16.3002L35.0885 14.8698L32.0085 17.8798L33.4064 19.3102ZM34.7874 15.585V25H36.7874V15.585H34.7874ZM35.7874 24H28.8574V26H35.7874V24ZM36.5063 15.6248L33.4263 12.4398L31.9886 13.8302L35.0686 17.0152L36.5063 15.6248ZM32.7074 14.135H39.6374V12.135H32.7074V14.135ZM39.6374 14.135C41.2035 14.135 42.566 13.7977 43.5264 12.9333L42.1885 11.4467C41.7489 11.8423 40.9647 12.135 39.6374 12.135V14.135ZM43.5142 12.9441C44.4929 12.0916 44.9424 10.9206 44.9424 9.565H42.9424C42.9424 10.4494 42.6686 11.0284 42.2006 11.4359L43.5142 12.9441ZM44.9424 9.565C44.9424 8.1934 44.4977 7.00747 43.5142 6.15092L42.2006 7.65908C42.6639 8.06253 42.9424 8.64993 42.9424 9.565H44.9424ZM43.5264 6.16171C42.566 5.29735 41.2035 4.96 39.6374 4.96V6.96C40.9647 6.96 41.7489 7.25265 42.1885 7.64829L43.5264 6.16171ZM39.6374 4.96H32.7074V6.96H39.6374V4.96ZM33.4263 6.65516L36.5063 3.47016L35.0686 2.07984L31.9886 5.26484L33.4263 6.65516ZM34.7874 2.775V16.32H36.7874V2.775H34.7874ZM61.0388 24.545L60.6834 25.4797L61.0388 24.545ZM56.6988 21.885L56.0057 22.6058L56.0128 22.6126L56.02 22.6193L56.6988 21.885ZM53.8638 17.825L52.9483 18.2273L53.8638 17.825ZM53.8638 7.675L52.9483 7.27273L53.8638 7.675ZM56.6988 3.65L57.3846 4.37779L57.385 4.37739L56.6988 3.65ZM61.0388 0.954999L60.6834 0.0203028L61.0388 0.954999ZM71.8888 0.954999L71.529 1.88801L71.5334 1.8897L71.8888 0.954999ZM76.1938 3.65L75.5007 4.37087L75.508 4.37779L76.1938 3.65ZM79.0288 7.675L78.1132 8.0773L78.1185 8.0888L79.0288 7.675ZM79.0288 17.86L78.1161 17.4513L78.1133 17.4577L79.0288 17.86ZM76.1938 21.885L76.8796 22.6128L76.1938 21.885ZM71.8888 24.545L71.5334 23.6103L71.529 23.612L71.8888 24.545ZM69.0538 19.26L68.6824 18.3315L68.6731 18.3353L69.0538 19.26ZM71.1538 17.86L70.4335 17.1664L70.433 17.1669L71.1538 17.86ZM72.5538 15.62L71.6271 15.2443L71.6227 15.2552L71.6185 15.2661L72.5538 15.62ZM72.5538 9.88L71.6185 10.2339L71.6244 10.2494L71.6308 10.2646L72.5538 9.88ZM71.1538 7.675L70.4201 8.35441L70.4331 8.36851L70.4467 8.3821L71.1538 7.675ZM69.0538 6.24L68.6731 7.16472L68.6824 7.16848L69.0538 6.24ZM63.8388 6.24L63.4674 5.31148L63.4581 5.31532L63.8388 6.24ZM61.7388 7.675L61.0185 6.98136L61.018 6.98189L61.7388 7.675ZM60.3388 9.88L59.4121 9.5043L59.4094 9.5109L59.4068 9.51755L60.3388 9.88ZM60.3388 15.62L59.4035 15.9739L59.4077 15.9848L59.4121 15.9957L60.3388 15.62ZM61.7388 17.86L61.0051 18.5394L61.0181 18.5535L61.0317 18.5671L61.7388 17.86ZM63.8388 19.26L63.4581 20.1847L63.4674 20.1885L63.8388 19.26ZM66.4638 24.49C64.6125 24.49 62.926 24.1928 61.3943 23.6103L60.6834 25.4797C62.465 26.1572 64.3952 26.49 66.4638 26.49V24.49ZM61.3943 23.6103C59.8509 23.0234 58.5155 22.2027 57.3777 21.1507L56.02 22.6193C57.3555 23.854 58.9134 24.8066 60.6834 25.4797L61.3943 23.6103ZM57.3919 21.1642C56.2728 20.0881 55.4034 18.8429 54.7793 17.4227L52.9483 18.2273C53.6776 19.8871 54.6982 21.3486 56.0057 22.6058L57.3919 21.1642ZM54.7793 17.4227C54.1635 16.0212 53.8488 14.4682 53.8488 12.75H51.8488C51.8488 14.7184 52.2108 16.5488 52.9483 18.2273L54.7793 17.4227ZM53.8488 12.75C53.8488 11.0318 54.1635 9.47877 54.7793 8.07727L52.9483 7.27273C52.2108 8.95123 51.8488 10.7816 51.8488 12.75H53.8488ZM54.7793 8.07727C55.4025 6.65895 56.2698 5.42828 57.3846 4.37779L56.013 2.92221C54.7012 4.15839 53.6784 5.61104 52.9483 7.27273L54.7793 8.07727ZM57.385 4.37739C58.5221 3.30471 59.8551 2.47502 61.3943 1.8897L60.6834 0.0203028C58.9092 0.694981 57.3489 1.66196 56.0126 2.92261L57.385 4.37739ZM61.3943 1.8897C62.926 1.30721 64.6125 1.01 66.4638 1.01V-0.990002C64.3952 -0.990002 62.465 -0.657209 60.6834 0.0203028L61.3943 1.8897ZM66.4638 1.01C68.3403 1.01 70.0247 1.30777 71.529 1.888L72.2487 0.0219975C70.4863 -0.657774 68.554 -0.990002 66.4638 -0.990002V1.01ZM71.5334 1.8897C73.071 2.47443 74.3895 3.30235 75.5007 4.37083L76.8869 2.92917C75.5715 1.66432 74.02 0.695563 72.2443 0.0203028L71.5334 1.8897ZM75.508 4.37779C76.6228 5.42828 77.4901 6.65895 78.1133 8.07727L79.9444 7.27272C79.2142 5.61104 78.1915 4.15839 76.8796 2.92221L75.508 4.37779ZM78.1185 8.0888C78.7543 9.48755 79.0788 11.0365 79.0788 12.75H81.0788C81.0788 10.7769 80.7034 8.94245 79.9392 7.2612L78.1185 8.0888ZM79.0788 12.75C79.0788 14.4634 78.7543 16.0261 78.1161 17.4513L79.9415 18.2687C80.7034 16.5672 81.0788 14.7233 81.0788 12.75H79.0788ZM78.1133 17.4577C77.4901 18.876 76.6228 20.1067 75.508 21.1572L76.8796 22.6128C78.1915 21.3766 79.2142 19.924 79.9444 18.2623L78.1133 17.4577ZM75.508 21.1572C74.3961 22.205 73.0753 23.024 71.5334 23.6103L72.2443 25.4797C74.0157 24.806 75.5649 23.8517 76.8796 22.6128L75.508 21.1572ZM71.529 23.612C70.0247 24.1922 68.3403 24.49 66.4638 24.49V26.49C68.554 26.49 70.4863 26.1578 72.2487 25.478L71.529 23.612ZM66.4638 20.75C67.5162 20.75 68.5102 20.5653 69.4346 20.1847L68.6731 18.3353C68.0108 18.608 67.2781 18.75 66.4638 18.75V20.75ZM69.4252 20.1885C70.3677 19.8115 71.1884 19.2668 71.8747 18.5531L70.433 17.1669C69.9526 17.6666 69.3733 18.0552 68.6824 18.3315L69.4252 20.1885ZM71.8741 18.5536C72.5799 17.8208 73.1172 16.9567 73.4891 15.9739L71.6185 15.2661C71.3371 16.0099 70.9411 16.6392 70.4335 17.1664L71.8741 18.5536ZM73.4806 15.9957C73.8847 14.9988 74.0788 13.9125 74.0788 12.75H72.0788C72.0788 13.6875 71.9229 14.5145 71.6271 15.2443L73.4806 15.9957ZM74.0788 12.75C74.0788 11.568 73.8859 10.4771 73.4769 9.49538L71.6308 10.2646C71.9217 10.9629 72.0788 11.7854 72.0788 12.75H74.0788ZM73.4891 9.52611C73.1161 8.54041 72.5753 7.68224 71.8609 6.96789L70.4467 8.3821C70.9457 8.88109 71.3382 9.49293 71.6185 10.2339L73.4891 9.52611ZM71.8876 6.99559C71.2009 6.254 70.3762 5.69191 69.4252 5.31152L68.6824 7.16848C69.3648 7.44142 69.9401 7.836 70.4201 8.35441L71.8876 6.99559ZM69.4346 5.31532C68.5102 4.9347 67.5162 4.75 66.4638 4.75V6.75C67.2781 6.75 68.0108 6.89196 68.6731 7.16468L69.4346 5.31532ZM66.4638 4.75C65.4111 4.75 64.4093 4.93477 63.4674 5.31152L64.2102 7.16848C64.9017 6.89189 65.6498 6.75 66.4638 6.75V4.75ZM63.4581 5.31532C62.5343 5.69572 61.7192 6.25367 61.0185 6.98136L62.4592 8.36864C62.9717 7.83633 63.5567 7.43761 64.2196 7.16468L63.4581 5.31532ZM61.018 6.98189C60.3375 7.68962 59.8048 8.53563 59.4121 9.5043L61.2656 10.2557C61.5729 9.4977 61.9735 8.87372 62.4597 8.36811L61.018 6.98189ZM59.4068 9.51755C59.0275 10.4929 58.8488 11.5758 58.8488 12.75H60.8488C60.8488 11.7775 60.9968 10.9471 61.2708 10.2424L59.4068 9.51755ZM58.8488 12.75C58.8488 13.9044 59.0286 14.983 59.4035 15.9739L61.2741 15.2661C60.9957 14.5303 60.8488 13.6956 60.8488 12.75H58.8488ZM59.4121 15.9957C59.8036 16.9615 60.3328 17.8134 61.0051 18.5394L62.4726 17.1806C61.9781 16.6466 61.574 16.0051 61.2656 15.2443L59.4121 15.9957ZM61.0317 18.5671C61.7317 19.2671 62.5427 19.8077 63.4581 20.1847L64.2196 18.3353C63.5483 18.0589 62.9592 17.6662 62.4459 17.1529L61.0317 18.5671ZM63.4674 20.1885C64.4093 20.5652 65.4111 20.75 66.4638 20.75V18.75C65.6498 18.75 64.9017 18.6081 64.2102 18.3315L63.4674 20.1885ZM110.35 0.499998V-0.500002H109.35V0.499998H110.35ZM117.28 0.499998H118.28V-0.500002H117.28V0.499998ZM117.28 25V26H118.28V25H117.28ZM110.35 25H109.35V26H110.35V25ZM100.9 25V26H101.9V25H100.9ZM93.9697 25H92.9697V26H93.9697V25ZM93.9697 0.499998V-0.500002H92.9697V0.499998H93.9697ZM100.9 0.499998H101.9V-0.500002H100.9V0.499998ZM110.84 15.445V16.445H111.84V15.445H110.84ZM100.41 15.445H99.4097V16.445H100.41V15.445ZM100.41 9.705V8.705H99.4097V9.705H100.41ZM110.84 9.705H111.84V8.705H110.84V9.705ZM110.35 1.5H117.28V-0.500002H110.35V1.5ZM116.28 0.499998V25H118.28V0.499998H116.28ZM117.28 24H110.35V26H117.28V24ZM111.35 25V0.499998H109.35V25H111.35ZM100.9 24H93.9697V26H100.9V24ZM94.9697 25V0.499998H92.9697V25H94.9697ZM93.9697 1.5H100.9V-0.500002H93.9697V1.5ZM99.8997 0.499998V25H101.9V0.499998H99.8997ZM110.84 14.445H100.41V16.445H110.84V14.445ZM101.41 15.445V9.705H99.4097V15.445H101.41ZM100.41 10.705H110.84V8.705H100.41V10.705ZM109.84 9.705V15.445H111.84V9.705H109.84ZM120.094 25L119.179 24.5962L118.559 26H120.094V25ZM130.909 0.499998V-0.500002H130.257L129.994 0.0961647L130.909 0.499998ZM137.734 0.499998L138.648 0.0950718L138.385 -0.500002H137.734V0.499998ZM148.584 25V26H150.12L149.498 24.5951L148.584 25ZM141.374 25L140.446 25.3725L140.698 26H141.374V25ZM132.904 3.895V2.895H131.425L131.976 4.26745L132.904 3.895ZM135.634 3.895L136.562 4.26745L137.113 2.895H135.634V3.895ZM127.164 25V26H127.84L128.092 25.3725L127.164 25ZM126.009 20.24L125.065 19.9102L124.6 21.24H126.009V20.24ZM127.794 15.13V14.13H127.084L126.85 14.8002L127.794 15.13ZM139.764 15.13L140.708 14.8002L140.474 14.13H139.764V15.13ZM141.549 20.24V21.24H142.958L142.493 19.9102L141.549 20.24ZM121.009 25.4038L131.824 0.903831L129.994 0.0961647L119.179 24.5962L121.009 25.4038ZM130.909 1.5H137.734V-0.500002H130.909V1.5ZM136.82 0.904924L147.67 25.4049L149.498 24.5951L138.648 0.0950718L136.82 0.904924ZM148.584 24H141.374V26H148.584V24ZM142.302 24.6275L133.832 3.52255L131.976 4.26745L140.446 25.3725L142.302 24.6275ZM132.904 4.895H135.634V2.895H132.904V4.895ZM134.706 3.52255L126.236 24.6275L128.092 25.3725L136.562 4.26745L134.706 3.52255ZM127.164 24H120.094V26H127.164V24ZM126.953 20.5698L128.738 15.4598L126.85 14.8002L125.065 19.9102L126.953 20.5698ZM127.794 16.13H139.764V14.13H127.794V16.13ZM138.82 15.4598L140.605 20.5698L142.493 19.9102L140.708 14.8002L138.82 15.4598ZM141.549 19.24H126.009V21.24H141.549V19.24ZM157.595 24.58L157.235 25.513L157.243 25.5161L157.251 25.519L157.595 24.58ZM153.325 21.92L152.632 22.6411L152.639 22.6478L153.325 21.92ZM150.525 17.895L149.607 18.2922L149.609 18.2973L150.525 17.895ZM150.525 7.64L151.44 8.04228L151.443 8.03722L150.525 7.64ZM153.325 3.58L152.639 2.85217L152.632 2.85889L153.325 3.58ZM157.595 0.954999L157.943 1.89245L157.95 1.8897L157.595 0.954999ZM169.04 1.2L168.631 2.11283L168.636 2.11479L169.04 1.2ZM173.52 4.63L174.191 5.37154L174.887 4.74136L174.302 4.0068L173.52 4.63ZM169.11 8.62L168.348 9.26765L169.016 10.0535L169.781 9.36153L169.11 8.62ZM166.485 6.485L166.02 7.37044L166.029 7.37504L166.485 6.485ZM160.57 6.24L160.207 5.30799L160.57 6.24ZM158.4 7.675L157.679 6.98136L157.679 6.98189L158.4 7.675ZM157 9.88L156.073 9.50429L156.069 9.51515L156.065 9.52611L157 9.88ZM157 15.62L156.065 15.9739L156.069 15.9848L156.073 15.9957L157 15.62ZM158.4 17.86L157.666 18.5394L157.679 18.5535L157.693 18.5671L158.4 17.86ZM160.57 19.26L160.207 20.192L160.57 19.26ZM166.485 19.015L166.029 18.1249L166.02 18.1296L166.485 19.015ZM169.11 16.88L169.781 16.1385L169.016 15.4465L168.348 16.2324L169.11 16.88ZM173.52 20.87L174.297 21.4992L174.893 20.7635L174.191 20.1285L173.52 20.87ZM169.04 24.3L169.448 25.2128L169.454 25.2104L169.04 24.3ZM162.985 24.49C161.154 24.49 159.475 24.2036 157.939 23.641L157.251 25.519C159.028 26.1698 160.942 26.49 162.985 26.49V24.49ZM157.955 23.647C156.436 23.0613 155.125 22.2423 154.011 21.1922L152.639 22.6478C153.951 23.8844 155.487 24.8387 157.235 25.513L157.955 23.647ZM154.018 21.1989C152.924 20.148 152.065 18.9153 151.44 17.4927L149.609 18.2973C150.338 19.9547 151.346 21.4053 152.632 22.6411L154.018 21.1989ZM151.443 17.4978C150.825 16.0714 150.51 14.4932 150.51 12.75H148.51C148.51 14.7401 148.871 16.5919 149.607 18.2922L151.443 17.4978ZM150.51 12.75C150.51 11.0066 150.825 9.44221 151.44 8.04227L149.609 7.23773C148.871 8.91779 148.51 10.7601 148.51 12.75H150.51ZM151.443 8.03722C152.068 6.59169 152.926 5.34949 154.018 4.3011L152.632 2.85889C151.343 4.09718 150.335 5.56164 149.607 7.24278L151.443 8.03722ZM154.011 4.30779C155.122 3.26034 156.429 2.45465 157.943 1.89242L157.247 0.0175734C155.494 0.668687 153.954 1.61299 152.639 2.85221L154.011 4.30779ZM157.95 1.8897C159.483 1.3067 161.158 1.01 162.985 1.01V-0.990002C160.938 -0.990002 159.02 -0.656706 157.239 0.0203028L157.95 1.8897ZM162.985 1.01C165.13 1.01 167.006 1.38567 168.631 2.11282L169.448 0.287182C167.527 -0.572341 165.366 -0.990002 162.985 -0.990002V1.01ZM168.636 2.11479C170.289 2.84482 171.651 3.88986 172.738 5.2532L174.302 4.0068C173.008 2.38347 171.384 1.14185 169.444 0.285211L168.636 2.11479ZM172.849 3.88846L168.439 7.87846L169.781 9.36153L174.191 5.37154L172.849 3.88846ZM169.872 7.97235C169.005 6.95279 168.03 6.15265 166.941 5.59496L166.029 7.37504C166.853 7.79735 167.628 8.42054 168.348 9.26765L169.872 7.97235ZM166.95 5.5996C165.858 5.02656 164.646 4.75 163.335 4.75V6.75C164.357 6.75 165.245 6.96344 166.02 7.3704L166.95 5.5996ZM163.335 4.75C162.221 4.75 161.175 4.93158 160.207 5.30799L160.932 7.172C161.644 6.89509 162.441 6.75 163.335 6.75V4.75ZM160.207 5.30799C159.236 5.68558 158.39 6.24367 157.679 6.98136L159.12 8.36864C159.623 7.84633 160.223 7.44776 160.932 7.172L160.207 5.30799ZM157.679 6.98189C156.998 7.68962 156.466 8.53563 156.073 9.50429L157.927 10.2557C158.234 9.4977 158.634 8.87372 159.121 8.36811L157.679 6.98189ZM156.065 9.52611C155.69 10.517 155.51 11.5956 155.51 12.75H157.51C157.51 11.8044 157.657 10.9697 157.935 10.2339L156.065 9.52611ZM155.51 12.75C155.51 13.9044 155.69 14.983 156.065 15.9739L157.935 15.2661C157.657 14.5303 157.51 13.6956 157.51 12.75H155.51ZM156.073 15.9957C156.465 16.9615 156.994 17.8134 157.666 18.5394L159.134 17.1806C158.639 16.6466 158.235 16.0051 157.927 15.2443L156.073 15.9957ZM157.693 18.5671C158.402 19.2768 159.245 19.8177 160.207 20.192L160.932 18.328C160.215 18.049 159.611 17.6566 159.107 17.1529L157.693 18.5671ZM160.207 20.192C161.175 20.5684 162.221 20.75 163.335 20.75V18.75C162.441 18.75 161.644 18.6049 160.932 18.328L160.207 20.192ZM163.335 20.75C164.646 20.75 165.858 20.4734 166.95 19.9004L166.02 18.1296C165.245 18.5366 164.357 18.75 163.335 18.75V20.75ZM166.941 19.905C168.03 19.3474 169.005 18.5472 169.872 17.5276L168.348 16.2324C167.628 17.0795 166.853 17.7026 166.029 18.125L166.941 19.905ZM168.439 17.6215L172.849 21.6115L174.191 20.1285L169.781 16.1385L168.439 17.6215ZM172.743 20.2408C171.655 21.5848 170.288 22.6343 168.626 23.3896L169.454 25.2104C171.385 24.3323 173.005 23.0952 174.297 21.4992L172.743 20.2408ZM168.631 23.3872C167.006 24.1143 165.13 24.49 162.985 24.49V26.49C165.366 26.49 167.527 26.0723 169.448 25.2128L168.631 23.3872Z" fill="#DDDCDC" fill-opacity="0.2"/>
</svg>
