<svg width="126" height="30" viewBox="0 0 126 30" fill="none" xmlns="http://www.w3.org/2000/svg">
<path d="M0.125 25H-0.875V26H0.125V25ZM0.125 0.499998V-0.500002H-0.875V0.499998H0.125ZM5.83 0.499998L6.68479 -0.01898L6.39274 -0.500002H5.83V0.499998ZM15.945 17.16V18.16H17.722L16.7998 16.641L15.945 17.16ZM12.935 17.16L12.0754 16.649L11.1771 18.16H12.935V17.16ZM22.84 0.499998V-0.500002H22.2711L21.9804 -0.0110407L22.84 0.499998ZM28.545 0.499998L29.545 0.497141L29.5421 -0.500002H28.545V0.499998ZM28.615 25V26H29.6179L29.615 24.9971L28.615 25ZM22.21 25L21.21 25.0024L21.2124 26H22.21V25ZM22.175 10.195V9.195H21.1726L21.175 10.1974L22.175 10.195ZM23.26 10.195L24.119 10.707L25.0202 9.195H23.26V10.195ZM15.875 22.585V23.585H16.4431L16.734 23.097L15.875 22.585ZM12.795 22.585L11.9424 23.1076L12.2351 23.585H12.795V22.585ZM5.2 10.195V9.195H3.41408L4.34743 10.7176L5.2 10.195ZM6.495 10.195H7.495V9.195H6.495V10.195ZM6.495 25V26H7.495V25H6.495ZM1.125 25V0.499998H-0.875V25H1.125ZM0.125 1.5H5.83V-0.500002H0.125V1.5ZM4.97521 1.01898L15.0902 17.679L16.7998 16.641L6.68479 -0.01898L4.97521 1.01898ZM15.945 16.16H12.935V18.16H15.945V16.16ZM13.7946 17.671L23.6996 1.01104L21.9804 -0.0110407L12.0754 16.649L13.7946 17.671ZM22.84 1.5H28.545V-0.500002H22.84V1.5ZM27.545 0.502855L27.615 25.0029L29.615 24.9971L29.545 0.497141L27.545 0.502855ZM28.615 24H22.21V26H28.615V24ZM23.21 24.9976L23.175 10.1926L21.175 10.1974L21.21 25.0024L23.21 24.9976ZM22.175 11.195H23.26V9.195H22.175V11.195ZM22.401 9.683L15.016 22.073L16.734 23.097L24.119 10.707L22.401 9.683ZM15.875 21.585H12.795V23.585H15.875V21.585ZM13.6476 22.0624L6.05257 9.67238L4.34743 10.7176L11.9424 23.1076L13.6476 22.0624ZM5.2 11.195H6.495V9.195H5.2V11.195ZM5.495 10.195V25H7.495V10.195H5.495ZM6.495 24H0.125V26H6.495V24ZM40.1962 9.985V8.985H39.1962V9.985H40.1962ZM51.5712 9.985H52.5712V8.985H51.5712V9.985ZM51.5712 15.165V16.165H52.5712V15.165H51.5712ZM40.1962 15.165H39.1962V16.165H40.1962V15.165ZM40.6862 19.645H39.6862V20.645H40.6862V19.645ZM53.4962 19.645H54.4962V18.645H53.4962V19.645ZM53.4962 25V26H54.4962V25H53.4962ZM33.8262 25H32.8262V26H33.8262V25ZM33.8262 0.499998V-0.500002H32.8262V0.499998H33.8262ZM53.0412 0.499998H54.0412V-0.500002H53.0412V0.499998ZM53.0412 5.855V6.855H54.0412V5.855H53.0412ZM40.6862 5.855V4.855H39.6862V5.855H40.6862ZM40.1962 10.985H51.5712V8.985H40.1962V10.985ZM50.5712 9.985V15.165H52.5712V9.985H50.5712ZM51.5712 14.165H40.1962V16.165H51.5712V14.165ZM41.1962 15.165V9.985H39.1962V15.165H41.1962ZM40.6862 20.645H53.4962V18.645H40.6862V20.645ZM52.4962 19.645V25H54.4962V19.645H52.4962ZM53.4962 24H33.8262V26H53.4962V24ZM34.8262 25V0.499998H32.8262V25H34.8262ZM33.8262 1.5H53.0412V-0.500002H33.8262V1.5ZM52.0412 0.499998V5.855H54.0412V0.499998H52.0412ZM53.0412 4.855H40.6862V6.855H53.0412V4.855ZM39.6862 5.855V19.645H41.6862V5.855H39.6862ZM73.6143 21.99H72.6143V22.99H73.6143V21.99ZM73.6143 5.995H74.6143V4.995H73.6143V5.995ZM66.5793 5.995V4.995H65.618L65.5801 5.95555L66.5793 5.995ZM66.4743 8.655L65.4751 8.61555L65.4749 8.62223L66.4743 8.655ZM66.1943 12.645L65.2007 12.5325L65.1996 12.5418L65.1988 12.5511L66.1943 12.645ZM65.6693 16.04L64.6942 15.8184L64.6918 15.829L64.6896 15.8396L65.6693 16.04ZM64.7943 18.7L63.8998 18.2527L63.8942 18.2644L64.7943 18.7ZM63.4993 20.38L63.3817 21.3731L63.7875 21.4211L64.1108 21.1713L63.4993 20.38ZM56.1143 19.505L56.1429 18.5054L55.9967 20.4981L56.1143 19.505ZM58.1093 18.7L57.3734 18.0229L57.3722 18.0243L58.1093 18.7ZM59.3693 16.285L58.4164 15.9818L58.4133 15.9917L58.4103 16.0017L59.3693 16.285ZM60.0693 12.645L59.0761 12.5291L59.0751 12.5373L59.0743 12.5455L60.0693 12.645ZM60.4193 8.06L61.4185 8.10221L61.4187 8.09701L60.4193 8.06ZM60.6993 0.499998V-0.500002H59.7357L59.7 0.462987L60.6993 0.499998ZM80.4393 0.499998H81.4393V-0.500002H80.4393V0.499998ZM80.4393 21.99V22.99H81.4393V21.99H80.4393ZM55.3793 29.935H54.3793V30.935H55.3793V29.935ZM55.3793 19.505V18.505H54.3793V19.505H55.3793ZM83.7643 19.505H84.7643V18.505H83.7643V19.505ZM83.7643 29.935V30.935H84.7643V29.935H83.7643ZM77.4293 29.935H76.4293V30.935H77.4293V29.935ZM77.4293 25H78.4293V24H77.4293V25ZM61.7493 25V24H60.7493V25H61.7493ZM61.7493 29.935V30.935H62.7493V29.935H61.7493ZM74.6143 21.99V5.995H72.6143V21.99H74.6143ZM73.6143 4.995H66.5793V6.995H73.6143V4.995ZM65.5801 5.95555L65.4751 8.61556L67.4736 8.69444L67.5786 6.03444L65.5801 5.95555ZM65.4749 8.62223C65.429 10.0226 65.3373 11.3258 65.2007 12.5325L67.188 12.7575C67.3314 11.4909 67.4264 10.134 67.4738 8.68777L65.4749 8.62223ZM65.1988 12.5511C65.0854 13.7522 64.9165 14.8405 64.6942 15.8184L66.6445 16.2616C66.8889 15.1862 67.0699 14.0111 67.1899 12.7389L65.1988 12.5511ZM64.6896 15.8396C64.4929 16.8014 64.2257 17.6012 63.8999 18.2528L65.6888 19.1472C66.1096 18.3054 66.4258 17.332 66.649 16.2404L64.6896 15.8396ZM63.8942 18.2644C63.5958 18.881 63.253 19.3066 62.8879 19.5887L64.1108 21.1713C64.7723 20.6601 65.2928 19.9656 65.6945 19.1356L63.8942 18.2644ZM63.617 19.3869L56.232 18.5119L55.9967 20.4981L63.3817 21.3731L63.617 19.3869ZM56.0858 20.5046C57.1678 20.5355 58.1209 20.1673 58.8465 19.3757L57.3722 18.0243C57.0711 18.3527 56.6942 18.5212 56.1429 18.5054L56.0858 20.5046ZM58.8453 19.3771C59.5151 18.649 59.9962 17.6927 60.3284 16.5683L58.4103 16.0017C58.1359 16.9306 57.7769 17.5844 57.3734 18.0229L58.8453 19.3771ZM60.3223 16.5882C60.6753 15.4787 60.9194 14.194 61.0644 12.7445L59.0743 12.5455C58.9392 13.896 58.7167 15.0379 58.4164 15.9818L60.3223 16.5882ZM61.0626 12.7609C61.2292 11.3326 61.3476 9.77934 61.4184 8.10221L59.4202 8.01778C59.3511 9.65399 59.2361 11.1574 59.0761 12.5291L61.0626 12.7609ZM61.4187 8.09701L61.6987 0.53701L59.7 0.462987L59.42 8.02299L61.4187 8.09701ZM60.6993 1.5H80.4393V-0.500002H60.6993V1.5ZM79.4393 0.499998V21.99H81.4393V0.499998H79.4393ZM80.4393 20.99H73.6143V22.99H80.4393V20.99ZM56.3793 29.935V19.505H54.3793V29.935H56.3793ZM55.3793 20.505H83.7643V18.505H55.3793V20.505ZM82.7643 19.505V29.935H84.7643V19.505H82.7643ZM83.7643 28.935H77.4293V30.935H83.7643V28.935ZM78.4293 29.935V25H76.4293V29.935H78.4293ZM77.4293 24H61.7493V26H77.4293V24ZM60.7493 25V29.935H62.7493V25H60.7493ZM61.7493 28.935H55.3793V30.935H61.7493V28.935ZM87.0781 25H86.0781V26H87.0781V25ZM87.0781 0.499998V-0.500002H86.0781V0.499998H87.0781ZM93.9031 0.499998H94.9031V-0.500002H93.9031V0.499998ZM93.9031 25V26H94.9031V25H93.9031ZM88.0781 25V0.499998H86.0781V25H88.0781ZM87.0781 1.5H93.9031V-0.500002H87.0781V1.5ZM92.9031 0.499998V25H94.9031V0.499998H92.9031ZM93.9031 24H87.0781V26H93.9031V24ZM96.6936 25L95.7787 24.5962L95.159 26H96.6936V25ZM107.509 0.499998V-0.500002H106.857L106.594 0.0961647L107.509 0.499998ZM114.334 0.499998L115.248 0.0950718L114.984 -0.500002H114.334V0.499998ZM125.184 25V26H126.72L126.098 24.5951L125.184 25ZM117.974 25L117.046 25.3725L117.297 26H117.974V25ZM109.504 3.895V2.895H108.025L108.576 4.26745L109.504 3.895ZM112.234 3.895L113.162 4.26745L113.712 2.895H112.234V3.895ZM103.764 25V26H104.44L104.692 25.3725L103.764 25ZM102.609 20.24L101.664 19.9102L101.2 21.24H102.609V20.24ZM104.394 15.13V14.13H103.684L103.449 14.8002L104.394 15.13ZM116.364 15.13L117.308 14.8002L117.073 14.13H116.364V15.13ZM118.149 20.24V21.24H119.557L119.093 19.9102L118.149 20.24ZM97.6084 25.4038L108.423 0.903831L106.594 0.0961647L95.7787 24.5962L97.6084 25.4038ZM107.509 1.5H114.334V-0.500002H107.509V1.5ZM113.419 0.904924L124.269 25.4049L126.098 24.5951L115.248 0.0950718L113.419 0.904924ZM125.184 24H117.974V26H125.184V24ZM118.902 24.6275L110.432 3.52255L108.576 4.26745L117.046 25.3725L118.902 24.6275ZM109.504 4.895H112.234V2.895H109.504V4.895ZM111.306 3.52255L102.836 24.6275L104.692 25.3725L113.162 4.26745L111.306 3.52255ZM103.764 24H96.6936V26H103.764V24ZM103.553 20.5698L105.338 15.4598L103.449 14.8002L101.664 19.9102L103.553 20.5698ZM104.394 16.13H116.364V14.13H104.394V16.13ZM115.419 15.4598L117.204 20.5698L119.093 19.9102L117.308 14.8002L115.419 15.4598ZM118.149 19.24H102.609V21.24H118.149V19.24Z" fill="#DDDCDC" fill-opacity="0.2"/>
</svg>
