<svg width="94" height="31" viewBox="0 0 94 31" fill="none" xmlns="http://www.w3.org/2000/svg">
<path d="M0.125 25H-0.875V26H0.125V25ZM0.125 0.499998V-0.500002H-0.875V0.499998H0.125ZM6.95 0.499998H7.95V-0.500002H6.95V0.499998ZM6.95 19.505H5.95V20.505H6.95V19.505ZM16.365 19.505V20.505H17.365V19.505H16.365ZM16.365 0.499998V-0.500002H15.365V0.499998H16.365ZM23.19 0.499998H24.19V-0.500002H23.19V0.499998ZM23.19 25V26H24.19V25H23.19ZM20.215 30.005H19.215V31.005H20.215V30.005ZM20.215 23.46L20.9466 22.7783L19.215 20.92V23.46H20.215ZM21.65 25V26H23.9487L22.3816 24.3183L21.65 25ZM16.365 25H15.365V26H16.365V25ZM16.365 19.505V18.505H15.365V19.505H16.365ZM26.55 19.505H27.55V18.505H26.55V19.505ZM26.55 30.005V31.005H27.55V30.005H26.55ZM1.125 25V0.499998H-0.875V25H1.125ZM0.125 1.5H6.95V-0.500002H0.125V1.5ZM5.95 0.499998V19.505H7.95V0.499998H5.95ZM6.95 20.505H16.365V18.505H6.95V20.505ZM17.365 19.505V0.499998H15.365V19.505H17.365ZM16.365 1.5H23.19V-0.500002H16.365V1.5ZM22.19 0.499998V25H24.19V0.499998H22.19ZM23.19 24H0.125V26H23.19V24ZM21.215 30.005V23.46H19.215V30.005H21.215ZM19.4834 24.1417L20.9184 25.6817L22.3816 24.3183L20.9466 22.7783L19.4834 24.1417ZM21.65 24H16.365V26H21.65V24ZM17.365 25V19.505H15.365V25H17.365ZM16.365 20.505H26.55V18.505H16.365V20.505ZM25.55 19.505V30.005H27.55V19.505H25.55ZM26.55 29.005H20.215V31.005H26.55V29.005ZM29.8271 25H28.8271V26H29.8271V25ZM29.8271 0.499998V-0.500002H28.8271V0.499998H29.8271ZM36.6521 0.499998H37.6521V-0.500002H36.6521V0.499998ZM36.6521 25V26H37.6521V25H36.6521ZM30.8271 25V0.499998H28.8271V25H30.8271ZM29.8271 1.5H36.6521V-0.500002H29.8271V1.5ZM35.6521 0.499998V25H37.6521V0.499998H35.6521ZM36.6521 24H29.8271V26H36.6521V24ZM58.2726 0.499998V-0.500002H57.2726V0.499998H58.2726ZM65.2026 0.499998H66.2026V-0.500002H65.2026V0.499998ZM65.2026 25V26H66.2026V25H65.2026ZM58.2726 25H57.2726V26H58.2726V25ZM48.8226 25V26H49.8226V25H48.8226ZM41.8926 25H40.8926V26H41.8926V25ZM41.8926 0.499998V-0.500002H40.8926V0.499998H41.8926ZM48.8226 0.499998H49.8226V-0.500002H48.8226V0.499998ZM58.7626 15.445V16.445H59.7626V15.445H58.7626ZM48.3326 15.445H47.3326V16.445H48.3326V15.445ZM48.3326 9.705V8.705H47.3326V9.705H48.3326ZM58.7626 9.705H59.7626V8.705H58.7626V9.705ZM58.2726 1.5H65.2026V-0.500002H58.2726V1.5ZM64.2026 0.499998V25H66.2026V0.499998H64.2026ZM65.2026 24H58.2726V26H65.2026V24ZM59.2726 25V0.499998H57.2726V25H59.2726ZM48.8226 24H41.8926V26H48.8226V24ZM42.8926 25V0.499998H40.8926V25H42.8926ZM41.8926 1.5H48.8226V-0.500002H41.8926V1.5ZM47.8226 0.499998V25H49.8226V0.499998H47.8226ZM58.7626 14.445H48.3326V16.445H58.7626V14.445ZM49.3326 15.445V9.705H47.3326V15.445H49.3326ZM48.3326 10.705H58.7626V8.705H48.3326V10.705ZM57.7626 9.705V15.445H59.7626V9.705H57.7626ZM70.4668 25H69.4668V26H70.4668V25ZM70.4668 0.499998V-0.500002H69.4668V0.499998H70.4668ZM77.2918 0.499998H78.2918V-0.500002H77.2918V0.499998ZM77.2918 14.885H76.2918V18.0457L78.1098 15.4602L77.2918 14.885ZM87.4068 0.499998V-0.500002H86.8875L86.5888 -0.0751991L87.4068 0.499998ZM93.9168 0.499998H94.9168V-0.500002H93.9168V0.499998ZM93.9168 25V26H94.9168V25H93.9168ZM87.0918 25H86.0918V26H87.0918V25ZM87.0918 10.65H88.0918V7.48666L86.2735 10.0752L87.0918 10.65ZM77.0118 25V26H77.5314L77.8301 25.5748L77.0118 25ZM71.4668 25V0.499998H69.4668V25H71.4668ZM70.4668 1.5H77.2918V-0.500002H70.4668V1.5ZM76.2918 0.499998V14.885H78.2918V0.499998H76.2918ZM78.1098 15.4602L88.2248 1.0752L86.5888 -0.0751991L76.4738 14.3098L78.1098 15.4602ZM87.4068 1.5H93.9168V-0.500002H87.4068V1.5ZM92.9168 0.499998V25H94.9168V0.499998H92.9168ZM93.9168 24H87.0918V26H93.9168V24ZM88.0918 25V10.65H86.0918V25H88.0918ZM86.2735 10.0752L76.1935 24.4252L77.8301 25.5748L87.9101 11.2248L86.2735 10.0752ZM77.0118 24H70.4668V26H77.0118V24Z" fill="#DDDCDC" fill-opacity="0.2"/>
</svg>
