<svg width="50" height="42" viewBox="0 0 50 42" fill="none" xmlns="http://www.w3.org/2000/svg">
<path fill-rule="evenodd" clip-rule="evenodd" d="M0 6.9375C0 6.5231 0.16462 6.12567 0.457646 5.83265C0.750671 5.53962 1.1481 5.375 1.5625 5.375H3.125C10.0062 5.375 15.0844 9.25 18.3563 12.9313C19.8875 14.6563 21.0594 16.375 21.875 17.7187C22.6875 16.375 23.8625 14.6563 25.3938 12.9313C28.6656 9.25 33.7438 5.375 40.625 5.375V8.5C35.0062 8.5 30.7094 11.6562 27.7312 15.0062C26.1209 16.8302 24.7379 18.8428 23.6125 21C24.7369 23.157 26.1189 25.1696 27.7281 26.9938C30.7125 30.3438 35.0125 33.5 40.625 33.5V36.625C33.7438 36.625 28.6656 32.75 25.3938 29.0687C24.0797 27.5816 22.9021 25.9793 21.875 24.2812C21.0625 25.625 19.8875 27.3438 18.3563 29.0687C15.0844 32.75 10.0062 36.625 3.125 36.625H1.5625C1.1481 36.625 0.750671 36.4604 0.457646 36.1674C0.16462 35.8743 0 35.4769 0 35.0625C0 34.6481 0.16462 34.2507 0.457646 33.9576C0.750671 33.6646 1.1481 33.5 1.5625 33.5H3.125C8.74375 33.5 13.0406 30.3438 16.0187 26.9938C17.6291 25.1698 19.0121 23.1572 20.1375 21C19.0131 18.843 17.6311 16.8304 16.0219 15.0062C13.0375 11.6562 8.7375 8.5 3.125 8.5H1.5625C1.1481 8.5 0.750671 8.33538 0.457646 8.04235C0.16462 7.74933 0 7.3519 0 6.9375Z" fill="#303030"/>
<path d="M40.625 13.0812V0.793653C40.6251 0.645204 40.6674 0.499844 40.7471 0.374594C40.8268 0.249343 40.9405 0.149388 41.0749 0.0864317C41.2094 0.0234755 41.359 0.00012474 41.5062 0.0191138C41.6534 0.0381029 41.7922 0.0986459 41.9062 0.193653L49.2813 6.3374C49.6563 6.6499 49.6563 7.2249 49.2813 7.5374L41.9062 13.6812C41.7922 13.7762 41.6534 13.8367 41.5062 13.8557C41.359 13.8747 41.2094 13.8513 41.0749 13.7884C40.9405 13.7254 40.8268 13.6255 40.7471 13.5002C40.6674 13.375 40.6251 13.2296 40.625 13.0812ZM40.625 41.2062V28.9187C40.6251 28.7702 40.6674 28.6248 40.7471 28.4996C40.8268 28.3743 40.9405 28.2744 41.0749 28.2114C41.2094 28.1485 41.359 28.1251 41.5062 28.1441C41.6534 28.1631 41.7922 28.2236 41.9062 28.3187L49.2813 34.4624C49.6563 34.7749 49.6563 35.3499 49.2813 35.6624L41.9062 41.8062C41.7922 41.9012 41.6534 41.9617 41.5062 41.9807C41.359 41.9997 41.2094 41.9763 41.0749 41.9134C40.9405 41.8504 40.8268 41.7505 40.7471 41.6252C40.6674 41.5 40.6251 41.3546 40.625 41.2062Z" fill="#303030"/>
</svg>
