<svg width="50" height="50" viewBox="0 0 50 50" fill="none" xmlns="http://www.w3.org/2000/svg">
<g clip-path="url(#clip0_1_111)">
<path d="M18.75 25C21.2364 25 23.621 24.0123 25.3791 22.2541C27.1373 20.496 28.125 18.1114 28.125 15.625C28.125 13.1386 27.1373 10.754 25.3791 8.99587C23.621 7.23772 21.2364 6.25 18.75 6.25C16.2636 6.25 13.879 7.23772 12.1209 8.99587C10.3627 10.754 9.375 13.1386 9.375 15.625C9.375 18.1114 10.3627 20.496 12.1209 22.2541C13.879 24.0123 16.2636 25 18.75 25ZM25 15.625C25 17.2826 24.3415 18.8723 23.1694 20.0444C21.9973 21.2165 20.4076 21.875 18.75 21.875C17.0924 21.875 15.5027 21.2165 14.3306 20.0444C13.1585 18.8723 12.5 17.2826 12.5 15.625C12.5 13.9674 13.1585 12.3777 14.3306 11.2056C15.5027 10.0335 17.0924 9.375 18.75 9.375C20.4076 9.375 21.9973 10.0335 23.1694 11.2056C24.3415 12.3777 25 13.9674 25 15.625ZM37.5 40.625C37.5 43.75 34.375 43.75 34.375 43.75H3.125C3.125 43.75 0 43.75 0 40.625C0 37.5 3.125 28.125 18.75 28.125C34.375 28.125 37.5 37.5 37.5 40.625ZM34.375 40.6125C34.3719 39.8438 33.8937 37.5312 31.775 35.4125C29.7375 33.375 25.9031 31.25 18.75 31.25C11.5938 31.25 7.7625 33.375 5.725 35.4125C3.60625 37.5312 3.13125 39.8438 3.125 40.6125H34.375Z" fill="#303030"/>
<path fill-rule="evenodd" clip-rule="evenodd" d="M49.5438 16.0814C49.6893 16.2265 49.8047 16.3989 49.8835 16.5888C49.9623 16.7786 50.0028 16.9821 50.0028 17.1876C50.0028 17.3931 49.9623 17.5966 49.8835 17.7865C49.8047 17.9763 49.6893 18.1487 49.5438 18.2939L40.1688 27.6689C40.0236 27.8144 39.8512 27.9298 39.6614 28.0086C39.4715 28.0874 39.268 28.1279 39.0625 28.1279C38.857 28.1279 38.6535 28.0874 38.4637 28.0086C38.2738 27.9298 38.1014 27.8144 37.9563 27.6689L33.2688 22.9814C32.9754 22.688 32.8105 22.29 32.8105 21.8751C32.8105 21.4602 32.9754 21.0623 33.2688 20.7689C33.5622 20.4755 33.9601 20.3106 34.375 20.3106C34.7899 20.3106 35.1879 20.4755 35.4813 20.7689L39.0625 24.3532L47.3313 16.0814C47.4764 15.9358 47.6488 15.8204 47.8387 15.7416C48.0285 15.6629 48.232 15.6223 48.4375 15.6223C48.643 15.6223 48.8465 15.6629 49.0364 15.7416C49.2262 15.8204 49.3986 15.9358 49.5438 16.0814Z" fill="#303030"/>
</g>
<defs>
<clipPath id="clip0_1_111">
<rect width="50" height="50" fill="white"/>
</clipPath>
</defs>
</svg>
