<svg width="289" height="23" viewBox="0 0 289 23" fill="none" xmlns="http://www.w3.org/2000/svg">
<path d="M16.144 0.599998V-0.400002H15.144V0.599998H16.144ZM21.328 0.599998H22.328V-0.400002H21.328V0.599998ZM21.328 23V24H22.328V23H21.328ZM16.144 23H15.144V24H16.144V23ZM5.968 23V24H6.968V23H5.968ZM0.784 23H-0.216V24H0.784V23ZM0.784 0.599998V-0.400002H-0.216V0.599998H0.784ZM5.968 0.599998H6.968V-0.400002H5.968V0.599998ZM16.528 13.816V14.816H17.528V13.816H16.528ZM5.584 13.816H4.584V14.816H5.584V13.816ZM5.584 9.432V8.432H4.584V9.432H5.584ZM16.528 9.432H17.528V8.432H16.528V9.432ZM16.144 1.6H21.328V-0.400002H16.144V1.6ZM20.328 0.599998V23H22.328V0.599998H20.328ZM21.328 22H16.144V24H21.328V22ZM17.144 23V0.599998H15.144V23H17.144ZM5.968 22H0.784V24H5.968V22ZM1.784 23V0.599998H-0.216V23H1.784ZM0.784 1.6H5.968V-0.400002H0.784V1.6ZM4.968 0.599998V23H6.968V0.599998H4.968ZM16.528 12.816H5.584V14.816H16.528V12.816ZM6.584 13.816V9.432H4.584V13.816H6.584ZM5.584 10.432H16.528V8.432H5.584V10.432ZM15.528 9.432V13.816H17.528V9.432H15.528ZM24.4123 23L23.4989 22.5929L22.8717 24H24.4123V23ZM34.3963 0.599998V-0.400002H33.7471L33.4829 0.192892L34.3963 0.599998ZM39.5163 0.599998L40.4291 0.191804L40.1645 -0.400002H39.5163V0.599998ZM49.5322 23V24H51.0748L50.4451 22.5918L49.5322 23ZM44.0923 23L43.1684 23.3827L43.4241 24H44.0923V23ZM35.9002 3.224V2.224H34.4036L34.9764 3.6067L35.9002 3.224ZM37.9482 3.224L38.8716 3.60798L39.4471 2.224H37.9482V3.224ZM29.7243 23V24H30.3914L30.6476 23.384L29.7243 23ZM29.4043 18.2L28.4603 17.87L27.9953 19.2H29.4043V18.2ZM30.7803 14.264V13.264H30.0705L29.8363 13.934L30.7803 14.264ZM42.3003 14.264L43.2418 13.9272L43.0046 13.264H42.3003V14.264ZM43.7083 18.2V19.2H45.128L44.6498 17.8632L43.7083 18.2ZM25.3256 23.4071L35.3096 1.0071L33.4829 0.192892L23.4989 22.5929L25.3256 23.4071ZM34.3963 1.6H39.5163V-0.400002H34.3963V1.6ZM38.6034 1.00819L48.6194 23.4082L50.4451 22.5918L40.4291 0.191804L38.6034 1.00819ZM49.5322 22H44.0923V24H49.5322V22ZM45.0161 22.6173L36.8241 2.8413L34.9764 3.6067L43.1684 23.3827L45.0161 22.6173ZM35.9002 4.224H37.9482V2.224H35.9002V4.224ZM37.0249 2.84002L28.8009 22.616L30.6476 23.384L38.8716 3.60798L37.0249 2.84002ZM29.7243 22H24.4123V24H29.7243V22ZM30.3482 18.53L31.7242 14.594L29.8363 13.934L28.4603 17.87L30.3482 18.53ZM30.7803 15.264H42.3003V13.264H30.7803V15.264ZM41.3587 14.6008L42.7667 18.5368L44.6498 17.8632L43.2418 13.9272L41.3587 14.6008ZM43.7083 17.2H29.4043V19.2H43.7083V17.2ZM65.8788 18.776L66.5955 19.4734L68.247 17.776H65.8788V18.776ZM64.7268 19.96H63.7268V22.4218L65.4435 20.6574L64.7268 19.96ZM64.7268 0.599998V-0.400002H63.7268V0.599998H64.7268ZM69.8788 0.599998H70.8788V-0.400002H69.8788V0.599998ZM69.8788 19.96L69.1811 20.6765L70.8788 22.3294V19.96H69.8788ZM68.6628 18.776V17.776H66.2023L67.9651 19.4925L68.6628 18.776ZM78.1348 18.776L78.8324 19.4925L80.5952 17.776H78.1348V18.776ZM76.9187 19.96H75.9187V22.3294L77.6164 20.6765L76.9187 19.96ZM76.9187 0.599998V-0.400002H75.9187V0.599998H76.9187ZM82.0708 0.599998H83.0708V-0.400002H82.0708V0.599998ZM82.0708 23V24H83.0708V23H82.0708ZM52.5028 23H51.5028V24H52.5028V23ZM52.5028 0.599998V-0.400002H51.5028V0.599998H52.5028ZM57.6548 0.599998H58.6548V-0.400002H57.6548V0.599998ZM57.6548 19.96L56.9476 20.6671L58.6548 22.3742V19.96H57.6548ZM56.4707 18.776V17.776H54.0565L55.7636 19.4831L56.4707 18.776ZM65.162 18.0786L64.01 19.2626L65.4435 20.6574L66.5955 19.4734L65.162 18.0786ZM65.7268 19.96V0.599998H63.7268V19.96H65.7268ZM64.7268 1.6H69.8788V-0.400002H64.7268V1.6ZM68.8788 0.599998V19.96H70.8788V0.599998H68.8788ZM70.5764 19.2435L69.3604 18.0595L67.9651 19.4925L69.1811 20.6765L70.5764 19.2435ZM68.6628 19.776H78.1348V17.776H68.6628V19.776ZM77.4371 18.0595L76.2211 19.2435L77.6164 20.6765L78.8324 19.4925L77.4371 18.0595ZM77.9187 19.96V0.599998H75.9187V19.96H77.9187ZM76.9187 1.6H82.0708V-0.400002H76.9187V1.6ZM81.0708 0.599998V23H83.0708V0.599998H81.0708ZM82.0708 22H52.5028V24H82.0708V22ZM53.5028 23V0.599998H51.5028V23H53.5028ZM52.5028 1.6H57.6548V-0.400002H52.5028V1.6ZM56.6548 0.599998V19.96H58.6548V0.599998H56.6548ZM58.3619 19.2529L57.1779 18.0689L55.7636 19.4831L56.9476 20.6671L58.3619 19.2529ZM56.4707 19.776H65.8788V17.776H56.4707V19.776ZM87.6277 23H86.6277V24H87.6277V23ZM87.6277 0.599998V-0.400002H86.6277V0.599998H87.6277ZM92.7797 0.599998H93.7797V-0.400002H92.7797V0.599998ZM92.7797 23V24H93.7797V23H92.7797ZM88.6277 23V0.599998H86.6277V23H88.6277ZM87.6277 1.6H92.7797V-0.400002H87.6277V1.6ZM91.7797 0.599998V23H93.7797V0.599998H91.7797ZM92.7797 22H87.6277V24H92.7797V22ZM107.409 23H106.409V24H107.409V23ZM107.409 0.599998V-0.400002H106.409V0.599998H107.409ZM127.825 0.599998H128.825V-0.400002H127.825V0.599998ZM127.825 23V24H128.825V23H127.825ZM122.673 23H121.673V24H122.673V23ZM122.673 3.64L123.38 2.93289L121.673 1.22579V3.64H122.673ZM123.857 4.824V5.824H126.271L124.564 4.11689L123.857 4.824ZM111.377 4.824L110.67 4.11689L108.963 5.824H111.377V4.824ZM112.561 3.64H113.561V1.22579L111.854 2.93289L112.561 3.64ZM112.561 23V24H113.561V23H112.561ZM108.409 23V0.599998H106.409V23H108.409ZM107.409 1.6H127.825V-0.400002H107.409V1.6ZM126.825 0.599998V23H128.825V0.599998H126.825ZM127.825 22H122.673V24H127.825V22ZM123.673 23V3.64H121.673V23H123.673ZM121.966 4.34711L123.15 5.53111L124.564 4.11689L123.38 2.93289L121.966 4.34711ZM123.857 3.824H111.377V5.824H123.857V3.824ZM112.084 5.53111L113.268 4.34711L111.854 2.93289L110.67 4.11689L112.084 5.53111ZM111.561 3.64V23H113.561V3.64H111.561ZM112.561 22H107.409V24H112.561V22ZM138.146 9.624V8.624H137.146V9.624H138.146ZM148.93 9.624H149.93V8.624H148.93V9.624ZM148.93 13.656V14.656H149.93V13.656H148.93ZM138.146 13.656H137.146V14.656H138.146V13.656ZM138.53 18.84H137.53V19.84H138.53V18.84ZM150.722 18.84H151.722V17.84H150.722V18.84ZM150.722 23V24H151.722V23H150.722ZM133.378 23H132.378V24H133.378V23ZM133.378 0.599998V-0.400002H132.378V0.599998H133.378ZM150.306 0.599998H151.306V-0.400002H150.306V0.599998ZM150.306 4.76V5.76H151.306V4.76H150.306ZM138.53 4.76V3.76H137.53V4.76H138.53ZM138.146 10.624H148.93V8.624H138.146V10.624ZM147.93 9.624V13.656H149.93V9.624H147.93ZM148.93 12.656H138.146V14.656H148.93V12.656ZM139.146 13.656V9.624H137.146V13.656H139.146ZM138.53 19.84H150.722V17.84H138.53V19.84ZM149.722 18.84V23H151.722V18.84H149.722ZM150.722 22H133.378V24H150.722V22ZM134.378 23V0.599998H132.378V23H134.378ZM133.378 1.6H150.306V-0.400002H133.378V1.6ZM149.306 0.599998V4.76H151.306V0.599998H149.306ZM150.306 3.76H138.53V5.76H150.306V3.76ZM137.53 4.76V18.84H139.53V4.76H137.53ZM154.909 23H153.909V24H154.909V23ZM154.909 0.599998V-0.400002H153.909V0.599998H154.909ZM169.789 1.592L169.374 2.50198L169.385 2.50692L169.789 1.592ZM173.149 4.376L172.31 4.92047L173.149 4.376ZM169.789 15.864L170.193 16.779L170.204 16.7739L169.789 15.864ZM157.789 16.824L157.077 16.1218L155.398 17.824H157.789V16.824ZM160.093 14.488H161.093V12.05L159.381 13.7858L160.093 14.488ZM160.093 23V24H161.093V23H160.093ZM160.093 15.064L159.363 15.747L161.093 17.5976V15.064H160.093ZM157.789 12.6V11.6H155.485L157.059 13.283L157.789 12.6ZM157.789 4.824L157.059 4.14101L155.485 5.824H157.789V4.824ZM160.093 2.36H161.093V-0.173588L159.363 1.677L160.093 2.36ZM155.909 23V0.599998H153.909V23H155.909ZM154.909 1.6H164.605V-0.400002H154.909V1.6ZM164.605 1.6C166.503 1.6 168.083 1.91317 169.374 2.50191L170.204 0.682092C168.594 -0.0518427 166.718 -0.400002 164.605 -0.400002V1.6ZM169.385 2.50692C170.675 3.07605 171.637 3.88287 172.31 4.92047L173.988 3.83153C173.083 2.43712 171.804 1.38795 170.193 0.677081L169.385 2.50692ZM172.31 4.92047C172.978 5.9494 173.333 7.20382 173.333 8.728H175.333C175.333 6.88151 174.899 5.2346 173.988 3.83153L172.31 4.92047ZM173.333 8.728C173.333 10.228 172.979 11.4726 172.31 12.5035L173.988 13.5925C174.897 12.1914 175.333 10.556 175.333 8.728H173.333ZM172.31 12.5035C171.635 13.5441 170.67 14.3636 169.374 14.9541L170.204 16.7739C171.81 16.0418 173.085 14.9839 173.988 13.5925L172.31 12.5035ZM169.385 14.9491C168.091 15.5202 166.507 15.824 164.605 15.824V17.824C166.714 17.824 168.586 17.4878 170.193 16.7789L169.385 14.9491ZM164.605 15.824H157.789V17.824H164.605V15.824ZM158.501 17.5262L160.805 15.1902L159.381 13.7858L157.077 16.1218L158.501 17.5262ZM159.093 14.488V23H161.093V14.488H159.093ZM160.093 22H154.909V24H160.093V22ZM160.823 14.381L158.519 11.917L157.059 13.283L159.363 15.747L160.823 14.381ZM157.789 13.6H164.317V11.6H157.789V13.6ZM164.317 13.6C166.034 13.6 167.509 13.2373 168.555 12.3324L167.247 10.8196C166.714 11.2801 165.8 11.6 164.317 11.6V13.6ZM168.555 12.3324C169.601 11.4276 170.085 10.1813 170.085 8.728H168.085C168.085 9.70669 167.779 10.3591 167.247 10.8196L168.555 12.3324ZM170.085 8.728C170.085 7.25961 169.605 5.99989 168.555 5.09164L167.247 6.60436C167.775 7.06144 168.085 7.72173 168.085 8.728H170.085ZM168.555 5.09164C167.509 4.18672 166.034 3.824 164.317 3.824V5.824C165.8 5.824 166.714 6.14394 167.247 6.60436L168.555 5.09164ZM164.317 3.824H157.789V5.824H164.317V3.824ZM158.519 5.50699L160.823 3.04299L159.363 1.677L157.059 4.14101L158.519 5.50699ZM159.093 2.36V15.064H161.093V2.36H159.093ZM182.521 9.624V8.624H181.521V9.624H182.521ZM193.305 9.624H194.305V8.624H193.305V9.624ZM193.305 13.656V14.656H194.305V13.656H193.305ZM182.521 13.656H181.521V14.656H182.521V13.656ZM182.905 18.84H181.905V19.84H182.905V18.84ZM195.097 18.84H196.097V17.84H195.097V18.84ZM195.097 23V24H196.097V23H195.097ZM177.753 23H176.753V24H177.753V23ZM177.753 0.599998V-0.400002H176.753V0.599998H177.753ZM194.681 0.599998H195.681V-0.400002H194.681V0.599998ZM194.681 4.76V5.76H195.681V4.76H194.681ZM182.905 4.76V3.76H181.905V4.76H182.905ZM182.521 10.624H193.305V8.624H182.521V10.624ZM192.305 9.624V13.656H194.305V9.624H192.305ZM193.305 12.656H182.521V14.656H193.305V12.656ZM183.521 13.656V9.624H181.521V13.656H183.521ZM182.905 19.84H195.097V17.84H182.905V19.84ZM194.097 18.84V23H196.097V18.84H194.097ZM195.097 22H177.753V24H195.097V22ZM178.753 23V0.599998H176.753V23H178.753ZM177.753 1.6H194.681V-0.400002H177.753V1.6ZM193.681 0.599998V4.76H195.681V0.599998H193.681ZM194.681 3.76H182.905V5.76H194.681V3.76ZM181.905 4.76V18.84H183.905V4.76H181.905ZM199.284 23H198.284V24H199.284V23ZM199.284 0.599998V-0.400002H198.284V0.599998H199.284ZM215.796 2.104L216.365 1.28137V1.28137L215.796 2.104ZM215.924 10.68L216.516 11.486L216.524 11.48L215.924 10.68ZM210.484 12.184L209.573 11.7718L208.934 13.184H210.484V12.184ZM211.092 10.84V9.84H210.447L210.181 10.4278L211.092 10.84ZM216.948 12.344L217.534 11.5336L216.948 12.344ZM216.788 21.336L217.39 22.1346L217.392 22.1333L216.788 21.336ZM204.436 19.16H203.436V20.16H204.436V19.16ZM212.852 18.456L213.456 19.2527L212.852 18.456ZM212.852 14.2L212.248 14.9967L212.256 15.0034L212.265 15.0099L212.852 14.2ZM204.436 13.496V12.496H203.436V13.496H204.436ZM204.436 9.88H203.436V10.88H204.436V9.88ZM211.828 9.208L212.442 9.99735L212.451 9.99039L212.46 9.98323L211.828 9.208ZM211.828 5.144L211.196 5.91923L211.205 5.92639L211.214 5.93335L211.828 5.144ZM204.436 4.44V3.44H203.436V4.44H204.436ZM200.284 23V0.599998H198.284V23H200.284ZM199.284 1.6H209.716V-0.400002H199.284V1.6ZM209.716 1.6C212.207 1.6 214.006 2.08243 215.227 2.92663L216.365 1.28137C214.685 0.120233 212.43 -0.400002 209.716 -0.400002V1.6ZM215.227 2.92663C216.392 3.73123 216.972 4.84397 216.972 6.392H218.972C218.972 4.22803 218.102 2.4821 216.365 1.28137L215.227 2.92663ZM216.972 6.392C216.972 7.93933 216.416 9.06072 215.324 9.88L216.524 11.48C218.162 10.2513 218.972 8.514 218.972 6.392H216.972ZM215.332 9.87399C214.188 10.7144 212.603 11.184 210.484 11.184V13.184C212.888 13.184 214.93 12.6509 216.516 11.486L215.332 9.87399ZM211.395 12.5962L212.003 11.2522L210.181 10.4278L209.573 11.7718L211.395 12.5962ZM211.092 11.84C213.493 11.84 215.209 12.3207 216.362 13.1544L217.534 11.5336C215.913 10.3619 213.725 9.84 211.092 9.84V11.84ZM216.362 13.1544C217.457 13.9463 218.028 15.0775 218.028 16.696H220.028C220.028 14.5172 219.212 12.747 217.534 11.5336L216.362 13.1544ZM218.028 16.696C218.028 18.363 217.414 19.6074 216.184 20.5387L217.392 22.1333C219.148 20.8032 220.028 18.9543 220.028 16.696H218.028ZM216.186 20.5374C214.959 21.4624 213.054 22 210.324 22V24C213.268 24 215.673 23.4283 217.39 22.1346L216.186 20.5374ZM210.324 22H199.284V24H210.324V22ZM204.436 20.16H210.132V18.16H204.436V20.16ZM210.132 20.16C211.434 20.16 212.593 19.908 213.456 19.2527L212.248 17.6593C211.874 17.9426 211.219 18.16 210.132 18.16V20.16ZM213.456 19.2527C214.389 18.5454 214.78 17.4832 214.78 16.28H212.78C212.78 17.0395 212.553 17.428 212.248 17.6593L213.456 19.2527ZM214.78 16.28C214.78 15.1031 214.377 14.0697 213.439 13.3901L212.265 15.0099C212.564 15.2263 212.78 15.5796 212.78 16.28H214.78ZM213.456 13.4033C212.593 12.748 211.434 12.496 210.132 12.496V14.496C211.219 14.496 211.874 14.7134 212.248 14.9967L213.456 13.4033ZM210.132 12.496H204.436V14.496H210.132V12.496ZM203.436 13.496V19.16H205.436V13.496H203.436ZM204.436 10.88H209.268V8.88H204.436V10.88ZM209.268 10.88C210.506 10.88 211.617 10.6388 212.442 9.99735L211.214 8.41865C210.887 8.67317 210.291 8.88 209.268 8.88V10.88ZM212.46 9.98323C213.317 9.28461 213.692 8.28818 213.692 7.16H211.692C211.692 7.82382 211.491 8.19273 211.196 8.43276L212.46 9.98323ZM213.692 7.16C213.692 6.03336 213.317 5.03531 212.442 4.35465L211.214 5.93335C211.491 6.14869 211.692 6.49464 211.692 7.16H213.692ZM212.46 4.36876C211.633 3.6952 210.514 3.44 209.268 3.44V5.44C210.283 5.44 210.871 5.65413 211.196 5.91923L212.46 4.36876ZM209.268 3.44H204.436V5.44H209.268V3.44ZM203.436 4.44V9.88H205.436V4.44H203.436ZM220.6 23L219.686 22.5929L219.059 24H220.6V23ZM230.584 0.599998V-0.400002H229.935L229.67 0.192892L230.584 0.599998ZM235.704 0.599998L236.617 0.191804L236.352 -0.400002H235.704V0.599998ZM245.72 23V24H247.262L246.633 22.5918L245.72 23ZM240.28 23L239.356 23.3827L239.612 24H240.28V23ZM232.088 3.224V2.224H230.591L231.164 3.6067L232.088 3.224ZM234.136 3.224L235.059 3.60798L235.635 2.224H234.136V3.224ZM225.912 23V24H226.579L226.835 23.384L225.912 23ZM225.592 18.2L224.648 17.87L224.183 19.2H225.592V18.2ZM226.968 14.264V13.264H226.258L226.024 13.934L226.968 14.264ZM238.488 14.264L239.429 13.9272L239.192 13.264H238.488V14.264ZM239.896 18.2V19.2H241.316L240.837 17.8632L239.896 18.2ZM221.513 23.4071L231.497 1.0071L229.67 0.192892L219.686 22.5929L221.513 23.4071ZM230.584 1.6H235.704V-0.400002H230.584V1.6ZM234.791 1.00819L244.807 23.4082L246.633 22.5918L236.617 0.191804L234.791 1.00819ZM245.72 22H240.28V24H245.72V22ZM241.204 22.6173L233.012 2.8413L231.164 3.6067L239.356 23.3827L241.204 22.6173ZM232.088 4.224H234.136V2.224H232.088V4.224ZM233.212 2.84002L224.988 22.616L226.835 23.384L235.059 3.60798L233.212 2.84002ZM225.912 22H220.6V24H225.912V22ZM226.536 18.53L227.912 14.594L226.024 13.934L224.648 17.87L226.536 18.53ZM226.968 15.264H238.488V13.264H226.968V15.264ZM237.546 14.6008L238.954 18.5368L240.837 17.8632L239.429 13.9272L237.546 14.6008ZM239.896 17.2H225.592V19.2H239.896V17.2ZM248.69 23H247.69V24H248.69V23ZM248.69 0.599998V-0.400002H247.69V0.599998H248.69ZM264.498 0.599998L265.498 0.607574L265.506 -0.400002H264.498V0.599998ZM264.466 4.824V5.824H265.459L265.466 4.83157L264.466 4.824ZM252.626 4.824L251.919 4.11689L250.212 5.824H252.626V4.824ZM253.81 3.64L254.81 3.63835L254.806 1.22977L253.103 2.93289L253.81 3.64ZM253.842 23V24H254.844L254.842 22.9983L253.842 23ZM249.69 23V0.599998H247.69V23H249.69ZM248.69 1.6H264.498V-0.400002H248.69V1.6ZM263.498 0.592423L263.466 4.81642L265.466 4.83157L265.498 0.607574L263.498 0.592423ZM264.466 3.824H252.626V5.824H264.466V3.824ZM253.333 5.53111L254.517 4.34711L253.103 2.93289L251.919 4.11689L253.333 5.53111ZM252.81 3.64165L252.842 23.0017L254.842 22.9983L254.81 3.63835L252.81 3.64165ZM253.842 22H248.69V24H253.842V22ZM267.659 23H266.659V24H267.659V23ZM267.659 0.599998V-0.400002H266.659V0.599998H267.659ZM272.811 0.599998H273.811V-0.400002H272.811V0.599998ZM272.811 15.192H271.811V18.2496L273.618 15.7829L272.811 15.192ZM283.499 0.599998V-0.400002H282.992L282.692 0.00909519L283.499 0.599998ZM288.363 0.599998H289.363V-0.400002H288.363V0.599998ZM288.363 23V24H289.363V23H288.363ZM283.243 23H282.243V24H283.243V23ZM283.243 8.44H284.243V5.38781L282.437 7.84825L283.243 8.44ZM272.555 23V24H273.061L273.361 23.5917L272.555 23ZM268.659 23V0.599998H266.659V23H268.659ZM267.659 1.6H272.811V-0.400002H267.659V1.6ZM271.811 0.599998V15.192H273.811V0.599998H271.811ZM273.618 15.7829L284.306 1.1909L282.692 0.00909519L272.004 14.6011L273.618 15.7829ZM283.499 1.6H288.363V-0.400002H283.499V1.6ZM287.363 0.599998V23H289.363V0.599998H287.363ZM288.363 22H283.243V24H288.363V22ZM284.243 23V8.44H282.243V23H284.243ZM282.437 7.84825L271.749 22.4083L273.361 23.5917L284.049 9.03175L282.437 7.84825ZM272.555 22H267.659V24H272.555V22Z" fill="#DDDCDC" fill-opacity="0.2"/>
</svg>
